<svg xmlns="http://www.w3.org/2000/svg" viewBox="0 0 60.5 64.4"><defs><style>.a{fill:#ff8080;}</style></defs><title>200415_OSH Portal_UI_WIP_icons</title><path class="a" d="M46.5,10.9h0m5,16.9c-.1,4.5-1.9,7-3.9,9.6h0A23.5,23.5,0,0,0,44.8,42a20,20,0,0,0-1.5,9.7A29.8,29.8,0,0,0,45.8,61a1.2,1.2,0,0,1,0,1,1,1,0,0,1-.9.4H25a1,1,0,0,1-1-.6,14,14,0,0,0-3.2-5.7l.7-.2,1.6-.6q6.3-1.9,6.3-5.7a.9.9,0,0,0-.3-.7,1.1,1.1,0,0,0-.7-.3.8.8,0,0,0-.7.3,1.1,1.1,0,0,0-.3.7c0,1.1-.8,2.5-4.9,3.8l-1.6.6-2.6.9h0a82.9,82.9,0,0,1-8.5,2.5,1.7,1.7,0,0,1-2-1.3,3.3,3.3,0,0,1-.1-2.4,5,5,0,0,0,.1-2.1,3.4,3.4,0,0,0-1.9-2H5.7l.4-.6a1.1,1.1,0,0,0,.2-.8.8.8,0,0,0-.4-.6l-1.2-1c.1,0,.1-.2.2-.2l.5-1a3.3,3.3,0,0,0,.2-2.2c-.2-1.2-1.4-1.8-2.2-2.2l-.8-.4L2,39.9c0-.6,2.2-2.9,3.4-4.2a7.3,7.3,0,0,0,1.8-4.2l.2-.3a3.7,3.7,0,0,0,.4-1.4,3.5,3.5,0,0,0-1.4-2.5c-.4-.4-.8-.7-.9-1a10.7,10.7,0,0,1,.7-1.9c.4-.9.7-1.8,1-2.7v-.3a21.7,21.7,0,0,1,.8-3,17,17,0,0,1,3.5-5.8A13.8,13.8,0,0,1,17.9,9V7a16.9,16.9,0,0,0-7.6,4.2,20.8,20.8,0,0,0-4,6.5l-.9,3.2v.4a21.8,21.8,0,0,1-.9,2.3,6.1,6.1,0,0,0-.8,3A4.4,4.4,0,0,0,5,28.8c.5.4.8.7.8,1s-.1.3-.2.5l-.3.9a5.8,5.8,0,0,1-1.4,3.2C.8,37.7-.1,38.9,0,40.1A2.9,2.9,0,0,0,1.5,42a2.1,2.1,0,0,0,1,.6c.4.3,1.1.6,1.2.9a3.4,3.4,0,0,1-.1,1,5.6,5.6,0,0,1-.5.8c-.4.7-.9,1.7,0,2.5l.9.7a1.7,1.7,0,0,0-.3,1.4,1.1,1.1,0,0,0,.6,1l.6.4c.6.4.9.5.9.8a1.4,1.4,0,0,1-.1,1.1,6.3,6.3,0,0,0,.2,3.6,3.7,3.7,0,0,0,4.3,2.6,79.3,79.3,0,0,0,8.3-2.5c1.4.8,2.7,2.8,3.6,5.5a3.1,3.1,0,0,0,2.9,2H44.9A3,3,0,0,0,47.5,63a3.3,3.3,0,0,0,.1-2.9,28.7,28.7,0,0,1-2.3-8.7,17.5,17.5,0,0,1,1.3-8.7,25.7,25.7,0,0,1,2.6-4.1c2-2.7,4.2-5.6,4.3-10.8Zm-3.9,9.6"/><path class="a" d="M31.4,17.6a8.2,8.2,0,0,1-5.7-2.1c-3.4-3.4-3.8-10-3.8-14.6a.9.9,0,0,1,.9-.9C27.5,0,34,.4,37.4,3.8s2.5,9.2,0,11.7A8.7,8.7,0,0,1,31.4,17.6ZM23.7,1.8c0,4.2.5,9.7,3.2,12.5s7.4,1.8,9.3,0,2.2-7.1,0-9.3S27.9,1.8,23.7,1.8Z"/><path class="a" d="M50.9,21A8.6,8.6,0,0,1,45,19c-2.5-2.6-3-8.8,0-11.8s9.9-3.7,14.6-3.7a.9.9,0,0,1,.9.8c0,4.7-.4,11.3-3.8,14.7A8.2,8.2,0,0,1,50.9,21ZM58.7,5.2c-4.3.1-9.8.5-12.5,3.3s-1.9,7.3,0,9.2,7.1,2.2,9.3,0S58.7,9.5,58.7,5.2Z"/><path class="a" d="M40.3,35a.9.9,0,0,1-.9-.9c0-18.5-6.8-23.2-9.4-24.9a3,3,0,0,1-.8-.7.8.8,0,0,1,0-1.2.7.7,0,0,1,1.2,0l.6.4c2.3,1.6,7.7,5.2,9.5,17.3C42,19.3,45.3,13.8,52,10.6a1.1,1.1,0,0,1,1.3.4.8.8,0,0,1-.4,1.2h-.1c-9.6,4.5-11.6,14.4-11.6,21.9A.9.9,0,0,1,40.3,35Z"/></svg>