<svg xmlns="http://www.w3.org/2000/svg" viewBox="0 0 53.5 61"><defs><style>.a{fill:#ff8080;}</style></defs><title>200415_OSH Portal_UI_WIP_icons</title><path class="a" d="M46.5,7.5h0m5,16.9c-.1,4.5-1.9,7-3.9,9.6h0a26,26,0,0,0-2.8,4.5,20.6,20.6,0,0,0-1.5,9.8,29.8,29.8,0,0,0,2.5,9.3,1.2,1.2,0,0,1,0,1,1,1,0,0,1-.9.4H25a1,1,0,0,1-1-.7,13.7,13.7,0,0,0-3.2-5.6l.7-.3,1.6-.5c4.2-1.3,6.3-3.3,6.3-5.7a.8.8,0,0,0-.3-.7,1.1,1.1,0,0,0-.7-.3.8.8,0,0,0-.7.3,1.1,1.1,0,0,0-.3.7c0,1-.8,2.5-4.9,3.8l-1.6.6-2.6.9h0A82.9,82.9,0,0,1,9.8,54a1.7,1.7,0,0,1-2-1.3,3.3,3.3,0,0,1-.1-2.4,5,5,0,0,0,.1-2.1,3.4,3.4,0,0,0-1.9-2H5.7l.4-.6a1.2,1.2,0,0,0,.2-.8.8.8,0,0,0-.4-.6l-1.2-1,.2-.3.5-.9a3.4,3.4,0,0,0,.2-2.2c-.2-1.2-1.4-1.8-2.2-2.2L2.6,37,2,36.5c0-.6,2.2-2.9,3.4-4.2a7.5,7.5,0,0,0,1.8-4.2c.1-.1.1-.3.2-.4a2.8,2.8,0,0,0,.4-1.3,3.5,3.5,0,0,0-1.4-2.5c-.4-.4-.8-.7-.9-1A10.7,10.7,0,0,1,6.2,21c.4-.9.7-1.8,1-2.7v-.4c.2-1,.5-2,.8-3a19.1,19.1,0,0,1,3.5-5.8,14.6,14.6,0,0,1,6.3-3.5v-2a15.2,15.2,0,0,0-7.6,4.2,20.8,20.8,0,0,0-4,6.5l-.9,3.2v.3a23.4,23.4,0,0,1-.9,2.4,6,6,0,0,0-.8,2.9A3.7,3.7,0,0,0,5,25.3c.5.5.8.8.8,1.1a.8.8,0,0,1-.2.4l-.3.9A5.8,5.8,0,0,1,3.9,31C.8,34.3-.1,35.5,0,36.7a2.9,2.9,0,0,0,1.5,1.9l1,.6c.4.2,1.1.6,1.2.9a3.8,3.8,0,0,1-.1,1l-.5.8c-.4.7-.9,1.7,0,2.5l.9.7a1.7,1.7,0,0,0-.3,1.4,1.1,1.1,0,0,0,.6,1l.6.4c.6.3.9.5.9.8a1.4,1.4,0,0,1-.1,1.1,5.9,5.9,0,0,0,.2,3.5A3.7,3.7,0,0,0,10.2,56c2.8-.7,5.6-1.6,8.3-2.5,1.4.8,2.7,2.8,3.6,5.5A3.1,3.1,0,0,0,25,61H44.9a3,3,0,0,0,2.6-1.4,3.3,3.3,0,0,0,.1-2.9A28.7,28.7,0,0,1,45.3,48a17.5,17.5,0,0,1,1.3-8.7,25.7,25.7,0,0,1,2.6-4.1c2-2.7,4.2-5.7,4.3-10.8ZM47.6,34"/><path class="a" d="M25.4,16.8a9.7,9.7,0,0,1,0-13.9,9.7,9.7,0,0,1,13.9,0,9.9,9.9,0,0,1,0,13.9A9.9,9.9,0,0,1,25.4,16.8ZM38,4.1a8.1,8.1,0,0,0-11.4,0,8.1,8.1,0,0,0,0,11.4,8.1,8.1,0,0,0,11.4,0A8.1,8.1,0,0,0,38,4.1Z"/><path class="a" d="M19.8,28a9.8,9.8,0,1,1,13.8,0A9.7,9.7,0,0,1,19.8,28ZM32.4,15.4A8,8,0,0,0,21,26.7a8.1,8.1,0,0,0,11.4,0A8,8,0,0,0,32.4,15.4Z"/><path class="a" d="M33.1,27.3a9.7,9.7,0,0,1,0-13.9,9.8,9.8,0,1,1,0,13.9ZM45.7,14.7A8,8,0,0,0,34.3,26a8.1,8.1,0,0,0,11.4,0A8,8,0,0,0,45.7,14.7Z"/></svg>