<svg xmlns="http://www.w3.org/2000/svg" viewBox="0 0 66.4 58.8"><defs><style>.a{fill:#ff8080;}</style></defs><title>200415_OSH Portal_UI_WIP_icons</title><path class="a" d="M65.5,38.3a2.7,2.7,0,0,0-1.7-1,3.7,3.7,0,0,0-.7-3.5,3.4,3.4,0,0,0-2.5-1.1h-.1a3,3,0,0,0-.9-2.5,3.2,3.2,0,0,0-2.4-1.1,3.3,3.3,0,0,0-.9-2.7,3.2,3.2,0,0,0-2.4-1.1,3.4,3.4,0,0,0-2.5.9l-.5.4a4.2,4.2,0,0,0-2.3-.7,2.5,2.5,0,0,0-1.2.1l-1.9-2.3a1.9,1.9,0,0,0-2.7-.2l-.5.4L22.6.3A1.1,1.1,0,0,0,21.2.2a1,1,0,0,0-.1,1.4h0L.5,18.8A1.7,1.7,0,0,0,0,20a1.4,1.4,0,0,0,.6,1.1l7.8,5.3,4.2,9a1.2,1.2,0,0,0,1,.8h.3a1.2,1.2,0,0,0,.9-.4L35.4,18.7l5.4,6.5-.7.5a2.2,2.2,0,0,0-.6,1.3,1.8,1.8,0,0,0,.4,1.4l1.9,2.3a5.2,5.2,0,0,0-.6,1.3l-3.8,9.4L19,55.5a1.7,1.7,0,0,0-.6,2.1,1.7,1.7,0,0,0,1.7,1.2H40.3a1.6,1.6,0,0,0,1.3-.6l5.5-5.6,5.8-.4H53a8.8,8.8,0,0,0,3.5-1.7l2.4-2.3h0l1.6-1.3a3.1,3.1,0,0,0,1.8-.9l3-2.8A3.5,3.5,0,0,0,65.5,38.3ZM14.1,34l-3.9-8.6c-.2-.2-.3-.4-.5-.5l-7.4-5,20-16.8L34.2,17.2Zm42.3-.3a3.1,3.1,0,0,0-.7-2l.3-.3a1.5,1.5,0,0,1,1.1-.4,1.6,1.6,0,0,1,1.1.5,1.7,1.7,0,0,1,0,2.1h-.1l-3,2.9c-.1,0-.1,0-.1.1a1.3,1.3,0,0,1-.8.3l.6-.4.6-.6A3.2,3.2,0,0,0,56.4,33.7Zm-3.7-6.1a2.1,2.1,0,0,1,1.1-.4,1.6,1.6,0,0,1,1.1.5,1.6,1.6,0,0,1-.1,2.2l-.4.4L52.3,28Zm-11.3-.4L44,25l1.6,1.9c0,.1-.1.1-.1.2l-2.4,2.1ZM55.1,49a4.4,4.4,0,0,1-2.4,1.3l-6.1.4a.9.9,0,0,0-.6.3l-5.7,5.9H20.4L38.8,42.7h0a.1.1,0,0,0,.1-.1h0a.1.1,0,0,0,.1-.1h0c0-.1.1-.1.1-.2h0L43,32.7h0a4,4,0,0,1,1-1.5l2.8-2.6a2.3,2.3,0,0,1,1.7-.7,2.2,2.2,0,0,1,1.6.7h.1l3.4,3.7h0l.5.5a1.2,1.2,0,0,1,.3.9.9.9,0,0,1-.4.8l-.5.5a1.1,1.1,0,0,1-1.4.2h0l-.3-.2-1.4-1.5a2.5,2.5,0,0,0-2-.9,2.8,2.8,0,0,0-2.1.8,1.1,1.1,0,0,0-.3.8,3.4,3.4,0,0,1,0,1h0a4,4,0,0,1-1,2.2,1.1,1.1,0,0,0,.2,1.4,1.1,1.1,0,0,0,1.4-.2l.8-1.3L56.3,48h0Zm2.6-2.3L48,35v-.4h.3a.6.6,0,0,1,.6.3l1.5,1.5c.1.2.3.3.4.4a3.6,3.6,0,0,0,.7,1,3.7,3.7,0,0,0,2.4,1.2H54a3,3,0,0,0,.9,2.5h0a4.2,4.2,0,0,0,1.7,1,3.5,3.5,0,0,0,.8,3.4h0a3.4,3.4,0,0,0,.6.6Zm-.3-6.1a2.2,2.2,0,0,1-1.1-.5,1.7,1.7,0,0,1,0-2.1.1.1,0,0,0,.1-.1l3-2.8h.2a1.2,1.2,0,0,1,1-.3,1.3,1.3,0,0,1,1,.4,1.5,1.5,0,0,1-.1,2.2l-.5.5-.3.3-2.4,2.2A1.6,1.6,0,0,1,57.4,40.6ZM64,41.7l-3.1,2.9a1.3,1.3,0,0,1-.9.4h-.1a1.6,1.6,0,0,1-1.1-.5,1.5,1.5,0,0,1,.1-2.1l.6-.6.3-.2,2.4-2.2a1.6,1.6,0,0,1,.9-.3,1.4,1.4,0,0,1,1,.5A1.4,1.4,0,0,1,64,41.7Z"/></svg>