<svg xmlns="http://www.w3.org/2000/svg" viewBox="0 0 98 88"><defs><style>.a{fill:#ff8080;}</style></defs><title>200415_OSH Portal_UI_WIP_icons</title><path class="a" d="M15,16.4V68.2a3,3,0,0,0,3,3H71.9a3,3,0,0,0,3-3V16.4a2.9,2.9,0,0,0-3-3H18a2.9,2.9,0,0,0-3,3ZM71.9,68.8H18a.6.6,0,0,1-.6-.6V25.1H72.5V68.2a.6.6,0,0,1-.6.6Zm.6-52.4v6.3H17.4V16.4a.6.6,0,0,1,.6-.6H71.9a.6.6,0,0,1,.6.6ZM53.6,19.3a1.2,1.2,0,0,1,1.2-1.2h1.1a1.2,1.2,0,0,1,1.2,1.2,1.2,1.2,0,0,1-1.2,1.2H54.8a1.2,1.2,0,0,1-1.2-1.2Zm5.6,0a1.2,1.2,0,0,1,1.2-1.2h1.1a1.2,1.2,0,0,1,1.2,1.2,1.2,1.2,0,0,1-1.2,1.2H60.4a1.2,1.2,0,0,1-1.2-1.2Zm5.6,0A1.2,1.2,0,0,1,66,18.1h1.1a1.2,1.2,0,0,1,1.2,1.2,1.2,1.2,0,0,1-1.2,1.2H66a1.2,1.2,0,0,1-1.2-1.2Zm0,0"/><path class="a" d="M25.3,39.1a1.2,1.2,0,0,0,1.2,1.2H44.9a1.2,1.2,0,0,0,1.2-1.2,1.2,1.2,0,0,0-1.2-1.2H26.5a1.2,1.2,0,0,0-1.2,1.2Z"/><path class="a" d="M44.9,45.8H26.5A1.2,1.2,0,0,0,25.3,47a1.2,1.2,0,0,0,1.2,1.2H44.9A1.2,1.2,0,0,0,46.1,47a1.2,1.2,0,0,0-1.2-1.2Z"/><path class="a" d="M44.9,53.7H26.5a1.2,1.2,0,1,0,0,2.4H44.9a1.2,1.2,0,1,0,0-2.4Z"/></svg>