<svg xmlns="http://www.w3.org/2000/svg" viewBox="0 0 70 42"><defs><style>.a{fill:#ff8080;}</style></defs><title>200415_OSH Portal_UI_WIP_icons</title><path class="a" d="M32.4,33.2C23.2,42.2,7.2,38,5,24.8S16.4,2.7,28.1,8c.8.4,1.6-.9.7-1.3C16.2.9,1.1,10.6,3.5,25.1s19.9,18.9,30,9.2a.8.8,0,0,0-1.1-1.1Z"/><path class="a" d="M27.5,12.2h16a.7.7,0,0,0,0-1.5h-16a.8.8,0,0,0,0,1.5Z"/><path class="a" d="M29,31.2H45a.7.7,0,1,0,0-1.5H29a.8.8,0,0,0,0,1.5Z"/><path class="a" d="M36.5,16.2h20a.7.7,0,0,0,0-1.5h-20a.8.8,0,0,0,0,1.5Z"/><path class="a" d="M37,26.2H57a.7.7,0,1,0,0-1.5H37a.8.8,0,0,0,0,1.5Z"/><path class="a" d="M33.5,21.2h32a.7.7,0,1,0,0-1.5h-32a.8.8,0,0,0,0,1.5Z"/><path class="a" d="M19.8,6.6V8a.7.7,0,1,0,1.4,0V6.6a.7.7,0,0,0-1.4,0Z"/><path class="a" d="M19.8,17v5.5l.7-.8h-8a.8.8,0,0,0,0,1.5h8a.7.7,0,0,0,.7-.7V17a.7.7,0,1,0-1.4,0Z"/><path class="a" d="M19.8,36.6V38a.7.7,0,1,0,1.4,0V36.6a.7.7,0,0,0-1.4,0Z"/><path class="a" d="M6.2,21.6H4.8a.8.8,0,0,0,0,1.5H6.2a.8.8,0,1,0,0-1.5Z"/></svg>