<svg xmlns="http://www.w3.org/2000/svg" viewBox="0 0 49 54"><defs><style>.a{fill:#ff8080;}</style></defs><title>200415_OSH Portal_UI_WIP_icons</title><path class="a" d="M6,18V35.3H7.3V18H40.7V38H7.3V36.7H6v2a.7.7,0,0,0,.7.6h6.6v1.4A1.3,1.3,0,0,0,14.7,42h3l-2.3,6.4a.4.4,0,0,0-.1.3A1.3,1.3,0,0,0,16.7,50H18a1.2,1.2,0,0,0,1.3-1.2L21.8,42H22v6.7A1.3,1.3,0,0,0,23.3,50h1.4A1.3,1.3,0,0,0,26,48.7V42h.2l2.5,6.8A1.2,1.2,0,0,0,30,50h1.3a1.3,1.3,0,0,0,1.4-1.3.4.4,0,0,0-.1-.3L30.3,42h3a1.3,1.3,0,0,0,1.4-1.3V39.3h6.6a.7.7,0,0,0,.7-.6V18h.7A1.3,1.3,0,0,0,44,16.7V15.3A1.3,1.3,0,0,0,42.7,14h-16V12.7a2.7,2.7,0,0,0-5.4,0V14H5.3A1.3,1.3,0,0,0,4,15.3v1.4A1.3,1.3,0,0,0,5.3,18ZM18,48.4v.3H16.7L19.1,42h1.3Zm6.7.3H23.3V42h1.4Zm6.6,0H30v-.3L27.6,42h1.3Zm2-8H14.7V39.3H33.3Zm-10.6-28a1.3,1.3,0,1,1,2.6,0V14H22.7ZM5.3,15.3H42.7v1.4H5.3Zm0,0"/><path class="a" d="M23.3,29.3V20a.7.7,0,0,0-.6-.7H9.3a.7.7,0,0,0-.6.7v9.3a.7.7,0,0,0,.6.7H22.7a.7.7,0,0,0,.6-.7ZM22,28.7H10v-8H22Zm0,0"/><rect class="a" x="8.7" y="31.3" width="4.7" height="1.33"/><rect class="a" x="14.7" y="31.3" width="8" height="1.33"/><rect class="a" x="8.7" y="34" width="14" height="1.33"/><path class="a" d="M25.3,19.3v9.4a.7.7,0,0,0,.7.6H39.3V28h-2V20a.7.7,0,0,0-.6-.7H34a.7.7,0,0,0-.7.7v1.3h-2a.7.7,0,0,0-.6.7v2h-2a.7.7,0,0,0-.7.7V28H26.7V19.3Zm9.4,1.4H36V28H34.7Zm-2.7,2h1.3V28H32Zm-2.7,2.6h1.4V28H29.3Zm0,0"/><rect class="a" x="26" y="31.3" width="4" height="1.33"/><rect class="a" x="31.3" y="31.3" width="8" height="1.33"/><rect class="a" x="26" y="34" width="13.3" height="1.33"/></svg>