<svg xmlns="http://www.w3.org/2000/svg" viewBox="0 0 56 54"><defs><style>.a{fill:#ff8080;}</style></defs><title>200415_OSH Portal_UI_WIP_icons</title><path class="a" d="M47.8,29.4H44a4.1,4.1,0,0,0-4.2-4.1H34.3a4.1,4.1,0,0,0-4.2,4.1H28.9a4.1,4.1,0,0,0-4.2-4.1H19.2A4.2,4.2,0,0,0,15,29.4H11.2A1.3,1.3,0,0,0,10,30.6v1.5a1.2,1.2,0,0,0,1.2,1.1h.3V48.9a1,1,0,0,0,1,1.1h1.4A1.1,1.1,0,0,0,15,48.9V33.2h.7l.7,3.1a2.9,2.9,0,0,0,2.8,2.2h.6v1.2H18.4a2.2,2.2,0,0,0-2.2,2.2,1.3,1.3,0,0,0,1.4,1.3h3.8v4.1H20.3a3.1,3.1,0,0,0-2.8,1.9c-.2.3,0,.6.3.8a.6.6,0,0,0,.7-.3,1.8,1.8,0,0,1,1.8-1.2h3.4a1.8,1.8,0,0,1,1.7,1.2.8.8,0,0,0,.8.3.7.7,0,0,0,.3-.8,3.2,3.2,0,0,0-2.8-1.9H22.5V43.2h3.8a1.3,1.3,0,0,0,1.3-1.3,2.2,2.2,0,0,0-2.2-2.2H24.1V38.5h.6a2.6,2.6,0,0,0,2.5-1.7.5.5,0,0,0-.3-.7.5.5,0,0,0-.7.3,1.8,1.8,0,0,1-1.5,1H19.2a1.5,1.5,0,0,1-1.6-1.3l-1.4-5.9a3.1,3.1,0,0,1,3-3.8h5.5a3,3,0,0,1,3,3.8l-.8,3.7a.6.6,0,0,0,.4.7.8.8,0,0,0,.7-.5l.2-.9h2.6l.7,3.1a2.8,2.8,0,0,0,2.8,2.2h.6v1.2H33.6a2.2,2.2,0,0,0-2.2,2.2,1.2,1.2,0,0,0,1.3,1.3h3.8v4.1H35.4a3.2,3.2,0,0,0-2.8,1.9.7.7,0,0,0,.3.8.6.6,0,0,0,.7-.3,1.8,1.8,0,0,1,1.8-1.2h3.4a1.7,1.7,0,0,1,1.7,1.2.8.8,0,0,0,.8.3.7.7,0,0,0,.3-.8,3.2,3.2,0,0,0-2.8-1.9H37.7V43.2h3.7a1.3,1.3,0,0,0,1.4-1.3,2.2,2.2,0,0,0-2.2-2.2H39.2V38.5h.5a2.8,2.8,0,0,0,2.8-2.2l.7-3.1h.8V48.9a1.1,1.1,0,0,0,1,1.1h1.4a1.1,1.1,0,0,0,1.1-1.1V46.4a.6.6,0,1,0-1.2,0v2.5H45.2V33.2h1.2V43.7a.6.6,0,0,0,1.2,0V33.2h.2A1.2,1.2,0,0,0,49,32.1V30.6a1.3,1.3,0,0,0-1.2-1.2Zm-34,19.5H12.6V33.2h1.2ZM11.2,32.1h0V30.6h3.9l.4,1.5ZM23,38.5v1.2H21V38.5Zm2.4,2.4a1,1,0,0,1,1.1,1,.2.2,0,0,1-.2.2H17.6a.2.2,0,0,1-.2-.2,1,1,0,0,1,1-1Zm3.1-8.8.3-1.5h1.4l.4,1.5Zm12.1,8.8a1,1,0,0,1,1,1,.2.2,0,0,1-.2.2H32.7a.2.2,0,0,1-.2-.2,1,1,0,0,1,1.1-1ZM36,38.5h2.2L38,39.7H36.1Zm6.8-8.3-1.3,5.9a1.7,1.7,0,0,1-1.7,1.3H34.3a1.7,1.7,0,0,1-1.7-1.3l-1.3-5.9a3.1,3.1,0,0,1,3-3.8h5.5a3.1,3.1,0,0,1,3,3.8Zm5,1.9H43.5l.4-1.5h3.9Zm0,0"/><path class="a" d="M11.7,14.3h3.8v1.2a1.7,1.7,0,0,0-1.3,1.8V18a4.2,4.2,0,0,0-2.1,3.3.7.7,0,0,0,.7.8h6.5a.7.7,0,0,0,.7-.8A3.8,3.8,0,0,0,18,18v-.7a1.8,1.8,0,0,0-1.4-1.8V14.3H28.9v1.2a1.9,1.9,0,0,0-1.3,1.8V18a4.2,4.2,0,0,0-2.1,3.3.8.8,0,0,0,.8.8h6.4a.7.7,0,0,0,.8-.8A4.2,4.2,0,0,0,31.4,18v-.7a1.7,1.7,0,0,0-1.3-1.8V14.3H42.4v1.2a1.7,1.7,0,0,0-1.3,1.8V18A4.2,4.2,0,0,0,39,21.3a.7.7,0,0,0,.7.8h6.5a.8.8,0,0,0,.8-.8A4.2,4.2,0,0,0,44.9,18v-.7a1.8,1.8,0,0,0-1.4-1.8V14.3h3.9A1.7,1.7,0,0,0,49,12.6,1.6,1.6,0,0,0,47.4,11H11.7A1.7,1.7,0,0,0,10,12.6a1.8,1.8,0,0,0,1.7,1.7Zm5.5,4.6A3.3,3.3,0,0,1,18.9,21H13.3A2.8,2.8,0,0,1,15,18.9h0a2.8,2.8,0,0,1,2.2,0Zm-.4-1.6v.3a3.8,3.8,0,0,0-1.5,0v-.3a.7.7,0,0,1,.8-.8.7.7,0,0,1,.7.8Zm13.8,1.6A3,3,0,0,1,32.3,21H26.7a3,3,0,0,1,1.7-2.1h0a2.8,2.8,0,0,1,2.2,0Zm-.3-1.6v.3a3.8,3.8,0,0,0-1.5,0v-.3a.7.7,0,0,1,.7-.8.8.8,0,0,1,.8.8Zm13.8,1.6A3.3,3.3,0,0,1,45.8,21H40.2a3,3,0,0,1,1.7-2.1h0a2.8,2.8,0,0,1,2.2,0Zm-.4-1.6v.3a3.8,3.8,0,0,0-1.5,0v-.3a.8.8,0,0,1,.8-.8.7.7,0,0,1,.7.8Zm-32-5.2H47.4a.6.6,0,0,1,.5.5.5.5,0,0,1-.5.5H11.7a.5.5,0,0,1-.5-.5.5.5,0,0,1,.5-.5Zm0,0"/></svg>