<svg xmlns="http://www.w3.org/2000/svg" viewBox="0 0 40 52"><defs><style>.a{fill:#ff8080;}</style></defs><title>200415_OSH Portal_UI_WIP_icons</title><path class="a" d="M7.7,24.5V46.9H5.5a.5.5,0,0,0,0,1h28a.5.5,0,0,0,0-1H24.3a10.7,10.7,0,0,0,1.6-1.4,6,6,0,0,0,1-5.2v-.2a7.2,7.2,0,0,0-4-4.7c0-.1.1-.2.1-.3v-.7a1,1,0,0,0-.5-.8,16.2,16.2,0,0,1,1-1.8,3.7,3.7,0,0,1,1.3-1.2,1,1,0,0,1,.5-.4,1.2,1.2,0,0,0,.2-1,.9.9,0,0,0-.9-.6,3.5,3.5,0,0,1-1.3-.5l-.5-.3a1.6,1.6,0,0,0-1.9.6l-.5.3h-.1a1,1,0,0,1-1.1-.3,1.5,1.5,0,0,0-2-.2,1.5,1.5,0,0,0-.5.6c0,.2-.1.3-.1.4a.1.1,0,0,0-.1.1h-.4l-1.2-.7h-.3a3.3,3.3,0,0,0-1.7-.1l-.3.2a1,1,0,0,0-.4.5,1.3,1.3,0,0,0,.5,1.3,6.1,6.1,0,0,1,1.6,1.6,5.6,5.6,0,0,1,.9,1.7,1,1,0,0,0-.7.9v.7a.9.9,0,0,0,.1.5,6.9,6.9,0,0,0-3.9,4,.8.8,0,0,0-.1.4,5.9,5.9,0,0,0,.9,5.4,5.7,5.7,0,0,0,1.6,1.5H8.7V24.5a5.8,5.8,0,0,1,11.5,0,.5.5,0,0,0,1,0,6.5,6.5,0,0,0-3.5-5.8h.8a3.1,3.1,0,0,1,1.3.3h.3a5.5,5.5,0,0,0,5.8-.5H26l.7-.7.8-.5.4,1.3a.5.5,0,0,0,.5.3h3.7a.5.5,0,0,0,.5-.5L31.3,8.4a.5.5,0,0,0-.5-.4H25.3a.4.4,0,0,0-.4.6l.6,2.3-2.1,1.4a1.4,1.4,0,0,1-.9.1h0l-4.6-.9a6.3,6.3,0,0,0-3.8.6H14L6.1,17.5a.7.7,0,0,0-.2.7A2.3,2.3,0,0,0,9,19h.1a1.6,1.6,0,0,0,.8.6,6.4,6.4,0,0,0-2.2,4.9Zm7.9,10.6h-.2v-.7H22v.7H15.6Zm-2.4-5.7a.3.3,0,0,1-.1-.2h1.1c.1,0,.2,0,.2.1h.1l1,.6h.1a1.7,1.7,0,0,0,1,.3,1.1,1.1,0,0,0,.8-.6l.2-.4.2-.3c.2-.2.4-.1.7.2a2,2,0,0,0,2.1.4h.1c.1-.1.7-.3.9-.6s.5-.4.8-.3l.4.2a3.9,3.9,0,0,0,1.6.7l-.2.2a4.2,4.2,0,0,0-1.5,1.5,22.5,22.5,0,0,0-1.2,2.1H20.2a2.2,2.2,0,0,1,.5-1.4l.6-.4c.6-.3.1-1.2-.5-.9a2.7,2.7,0,0,0-.8.7,3,3,0,0,0-.8,2h-.5a9.3,9.3,0,0,0-.9-2,.4.4,0,0,0-.6-.2.5.5,0,0,0-.2.7,10.7,10.7,0,0,1,.7,1.5H16.2a9.1,9.1,0,0,0-1.1-2.2,6.6,6.6,0,0,0-1.9-1.8Zm-1,15.4a5.2,5.2,0,0,1-.7-4.5c0-.1.1-.2.1-.3a7.2,7.2,0,0,1,3.8-3.8H22a6.1,6.1,0,0,1,3.9,4.3.1.1,0,0,1,.1.1,5,5,0,0,1-.9,4.4,5.2,5.2,0,0,1-4.2,2H16.5a5.5,5.5,0,0,1-4.3-2.1ZM30.4,9l1.1,9H28.8L26,9ZM7.1,18l7.5-5.1a4.7,4.7,0,0,1,3.1-.4l4.6.8a1.8,1.8,0,0,0,1.6-.2h0l1.9-1.2,1.4,4.6a1.9,1.9,0,0,0-1.1.7l-.8.6a4.7,4.7,0,0,1-4.7.5l-.3-.2a3.9,3.9,0,0,0-1.8-.4H15.4a1.7,1.7,0,0,1-1.7-1.3h2a9.7,9.7,0,0,0,2.4-.1.5.5,0,0,0,.5-.5c-.1-.3-.3-.5-.6-.4H15.8l-2.7-.2a.5.5,0,0,0-.5.5h-.2L8.6,18.2A1.4,1.4,0,0,1,7.1,18Zm5.7-1h0l.3.5-2.2,1.2a1.1,1.1,0,0,1-.9-.2Zm0,0"/><path class="a" d="M22.8,41.5a3.8,3.8,0,0,0-3.9-3.8,3.8,3.8,0,1,0,0,7.6,3.8,3.8,0,0,0,3.9-3.8Zm-3.9,2.9a2.9,2.9,0,0,1-3-2.9,2.8,2.8,0,0,1,3-2.8,2.9,2.9,0,0,1,3,2.8,3,3,0,0,1-3,2.9Zm0,0"/><path class="a" d="M19.4,39.5h0a.5.5,0,0,0-1,0h0l-.4.2a1.2,1.2,0,0,0-.3,1,1.2,1.2,0,0,0,1,1.1H19l.3.4c0,.1-.1.1-.1.2h-.3c-.1,0-.4-.1-.4-.3s-.3-.4-.5-.4a.6.6,0,0,0-.5.6,1.5,1.5,0,0,0,.9,1c.1.6,1,.6,1,0a1,1,0,0,0,.5-.4,1,1,0,0,0,.4-.9,1.7,1.7,0,0,0-.8-1.1h0a.1.1,0,0,1-.1-.1h-.2a.1.1,0,0,0-.1-.1h-.2l-.3-.2c0-.1.1-.2.1-.3s.2-.1.3,0a.4.4,0,0,1,.3.2h0l1-.2a1.4,1.4,0,0,0-.9-.9Zm0,0"/></svg>