<svg xmlns="http://www.w3.org/2000/svg" viewBox="0 0 42 47"><defs><style>.a{fill:#ff8080;}</style></defs><title>INCYNATION</title><path class="a" d="M20.8,3h-.7A12.3,12.3,0,0,0,7.8,15.3V33.7h-2a2.7,2.7,0,0,0-2.7,2.6v4A2.7,2.7,0,0,0,5.8,43H35.1a2.7,2.7,0,0,0,2.7-2.7v-4a2.7,2.7,0,0,0-2.7-2.6h-2V15.3A12.3,12.3,0,0,0,20.8,3ZM13.1,33.7h-4V15.3a11.1,11.1,0,0,1,11-11h.7a11,11,0,0,1,11,11V33.7h-4m-1.3,0h-12M35.1,35a1.3,1.3,0,0,1,1.4,1.3v4a1.4,1.4,0,0,1-1.4,1.4H5.8a1.3,1.3,0,0,1-1.3-1.4v-4A1.3,1.3,0,0,1,5.8,35Z"/><path class="a" d="M19.8,7l.5-.2a.8.8,0,0,0,.2-.5.9.9,0,0,0-.7-.6,9.5,9.5,0,0,0-9.3,9.6.7.7,0,0,0,.6.7.7.7,0,0,0,.7-.7A8.3,8.3,0,0,1,19.8,7Z"/><path class="a" d="M20.5,36.3a2,2,0,1,0,2,2A2,2,0,0,0,20.5,36.3Zm0,2.7a.7.7,0,0,1-.7-.7.7.7,0,0,1,.7-.6.6.6,0,0,1,.6.6A.7.7,0,0,1,20.5,39Z"/><path class="a" d="M15,37.7h-.3a.4.4,0,0,0-.2.4v.3l.2.2a.6.6,0,0,0,.8.1.7.7,0,0,0,.3-.8A.7.7,0,0,0,15,37.7Z"/><path class="a" d="M26.2,37.8h-.9a.7.7,0,0,0,0,.9h.5a.7.7,0,0,0,.6-.4.6.6,0,0,0-.1-.7Z"/><path class="a" d="M20.5,22.7a5.4,5.4,0,0,1,0-10.8,5.4,5.4,0,0,1,0,10.8Zm0-9.7a4.3,4.3,0,0,0,0,8.6,4.3,4.3,0,0,0,0-8.6Z"/><path class="a" d="M20.2,27.8H18.8a3.6,3.6,0,0,1-3.6-3.6.7.7,0,0,1,.7-.7h1.4a3.6,3.6,0,0,1,3.6,3.6A.7.7,0,0,1,20.2,27.8Zm-3.9-3.2a2.4,2.4,0,0,0,2.5,2.1h1a2.5,2.5,0,0,0-2.5-2.1Z"/><path class="a" d="M22,27.8H20.6a.8.8,0,0,1-.8-.7,3.7,3.7,0,0,1,3.7-3.6h1.4a.7.7,0,0,1,.7.7A3.6,3.6,0,0,1,22,27.8Zm-1-1.1h1a2.5,2.5,0,0,0,2.5-2.1h-1A2.4,2.4,0,0,0,21,26.7Z"/><path class="a" d="M21.6,15c-.7,0-1.5-.2-2,.4a1.1,1.1,0,0,0,.7,2c.2.1.5,0,.8,0h0c-.1,0,0,0,.1.1s.1.1.1.2-.5.3-.8.3h-.8a.4.4,0,0,0,0,.9c.5,0,1.4.2,1.9-.1a1.3,1.3,0,0,0-.2-2.3h-.9c-.1,0-.3,0-.3-.1s.3-.5.5-.5h.9c.6.1.6-.9,0-.9Z"/><path class="a" d="M20,21V31.7a.4.4,0,0,0,.9,0V21a.5.5,0,1,0-.9,0Z"/><path class="a" d="M20.1,18.2v1a.4.4,0,0,0,.9,0v-1a.4.4,0,0,0-.9,0Z"/><path class="a" d="M20.3,14.5v1.3a.5.5,0,0,0,1,0V14.5a.5.5,0,0,0-1,0Z"/></svg>