<svg xmlns="http://www.w3.org/2000/svg" viewBox="0 0 45 52"><defs><style>.a{fill:#ff8080;}</style></defs><title>200415_OSH Portal_UI_WIP_icons</title><path class="a" d="M37,32.9l-1.3-2.5a12.2,12.2,0,0,0,.7-1.7l2.7-.9V20.4l-2.7-.9a11.1,11.1,0,0,0-.7-1.6L37,15.3l-5.2-5.2-2.6,1.3-1.6-.7L26.7,8H19.3l-.9,2.7-1.6.7-2.6-1.3L9,15.3l1.3,2.6a11.1,11.1,0,0,0-.7,1.6l-2.7.9v7.4l2.7.9a12.2,12.2,0,0,0,.7,1.7l-.9,1.5H5.6V44.8h4.5v-2H15l1.9,2h3.5v.6a2.6,2.6,0,1,0,5.2,0v-.6h4.5a1.9,1.9,0,0,0,1.9-2,2.1,2.1,0,0,0-.5-1.3,1.7,1.7,0,0,0,.5-1.2,1.9,1.9,0,0,0-.5-1.3,1.9,1.9,0,0,0,.5-1ZM11.6,30.1a9.5,9.5,0,0,1-.9-2.1v-.3l-2.4-.8V21.4l2.4-.8v-.4a11.3,11.3,0,0,1,.9-2v-.3l-1.1-2.3,3.9-3.9,2.3,1.1h.3a7.2,7.2,0,0,1,2-.9h.3l.8-2.4h5.6l.8,2.4h.3a7.2,7.2,0,0,1,2,.9h.3l2.3-1.1,3.9,3.9-1.1,2.3v.3a11.3,11.3,0,0,1,.9,2v.4l2.4.8v5.5l-2.4.8V28a9.5,9.5,0,0,1-.9,2.1v.3l1.1,2.3-3.8,3.8a.1.1,0,0,0-.1-.1,2.1,2.1,0,0,0,.5-1.3,1.9,1.9,0,0,0-1.7-1.9,11.6,11.6,0,1,0-14.6,0H10.2l1.5-2.8ZM30.7,40.3a.6.6,0,0,1-.6.6H24.9a.6.6,0,0,1-.6-.6.7.7,0,0,1,.6-.7h5.2c.4,0,.6.3.6.7ZM21.4,24.1h3.2l1-1V20.3a1.2,1.2,0,0,1,1.3,1.2v3l-2.2,2.2H21.3l-2.2-2.2v-3a1.2,1.2,0,0,1,1.3-1.2v2.8Zm.3,3.9h2.6v2.6H21.7Zm3.9-.4L28.2,25V21.5A2.6,2.6,0,0,0,25.6,19H24.3v3.6l-.3.2H22l-.3-.2V19H20.4a2.6,2.6,0,0,0-2.6,2.5V25l2.6,2.6v3H18.8a7.6,7.6,0,0,1-3.5-6.5,7.7,7.7,0,1,1,15.4,0,7.8,7.8,0,0,1-3.5,6.5H25.6ZM32,24.1a9,9,0,0,0-18,0,9.2,9.2,0,0,0,3.9,7.5l-.9.9a10.5,10.5,0,0,1-4.3-8.4,10.3,10.3,0,1,1,20.6,0,10.1,10.1,0,0,1-3.9,8.1,2.4,2.4,0,0,0-.6-1.1,9.3,9.3,0,0,0,3.2-7ZM30.1,34.5a.6.6,0,0,1,0,1.2H24.9a.6.6,0,0,1,0-1.2Zm-5.2,3.8a.6.6,0,0,1-.6-.6.7.7,0,0,1,.6-.7h5.2c.4,0,.6.3.6.7a.6.6,0,0,1-.6.6ZM8.8,43.5H6.9V33.2H8.8Zm8.7,0-2-2H10.1v-7h6.7l2.6-2.6h8.1a.7.7,0,0,1,.7.6.7.7,0,0,1-.7.7H20.8L18,35.9l.9.9,1.5-1.4v8.1ZM23,46.7a1.3,1.3,0,0,1-1.3-1.3V34.5h1.4a1.3,1.3,0,0,0-.1.6,2.1,2.1,0,0,0,.5,1.3,1.9,1.9,0,0,0-.5,1.3,2.1,2.1,0,0,0,.5,1.3,1.9,1.9,0,0,0-.5,1.3,1.7,1.7,0,0,0,.5,1.2,2.1,2.1,0,0,0-.5,1.3,2,2,0,0,0,1.3,1.9v.7A1.3,1.3,0,0,1,23,46.7Zm7.1-3.2H24.9a.7.7,0,0,1-.6-.7.6.6,0,0,1,.6-.6h5.2a.6.6,0,0,1,.6.6c0,.4-.2.7-.6.7Zm0,0"/></svg>