<svg xmlns="http://www.w3.org/2000/svg" viewBox="0 0 90 76"><defs><style>.a{fill:#ff8080;}</style></defs><title>200415_OSH Portal_UI_WIP_icons</title><path class="a" d="M39.1,65.4h11a2.7,2.7,0,0,0,2.7-2.7V53.5a2.7,2.7,0,0,0-2.7-2.7h-11a2.7,2.7,0,0,0-2.7,2.7v9.2a2.7,2.7,0,0,0,2.7,2.7Zm-.9-11.9a.9.9,0,0,1,.9-.9h11a.9.9,0,0,1,.9.9v9.2a.9.9,0,0,1-.9.9h-11a.9.9,0,0,1-.9-.9Zm0,0"/><rect class="a" x="40" y="54.5" width="1.8" height="1.83"/><rect class="a" x="43.7" y="54.5" width="1.8" height="1.83"/><rect class="a" x="47.3" y="54.5" width="1.8" height="1.83"/><path class="a" d="M36.8,41.6H52.3a4.4,4.4,0,0,0,3.5-1.5,15,15,0,0,0,3.5-9.5A14.8,14.8,0,0,0,54.7,20a14.3,14.3,0,0,0-10.8-4A14.7,14.7,0,0,0,30,30a14.3,14.3,0,0,0,3.3,9.9,4.6,4.6,0,0,0,3.5,1.7ZM44,17.8a13,13,0,0,1,9.5,3.6,12.7,12.7,0,0,1,3.9,9.2,13.2,13.2,0,0,1-3,8.3,2.6,2.6,0,0,1-2.1.9H36.8a2.8,2.8,0,0,1-2.1-1A12.8,12.8,0,0,1,31.8,30,13,13,0,0,1,44,17.8Zm0,0"/><path class="a" d="M35.4,30.5v-.3c.1-.4.1-.8.2-1.2l-1.8-.4a7.7,7.7,0,0,0-.2,1.5v.4h1.8Zm0,0"/><path class="a" d="M44.2,21.5h.4V19.6h-.5a11,11,0,0,0-9.7,6.9l1.7.7a9,9,0,0,1,8.1-5.8Zm0,0"/><path class="a" d="M71.5,46.9a11.9,11.9,0,0,0-7.1-5.7h-.3A4.5,4.5,0,0,0,60.9,39l.9-2h2a2.8,2.8,0,0,0,2.8-2.7V25.1a2.8,2.8,0,0,0-2.8-2.7H60.9a18.2,18.2,0,0,0-32.6,0H25.4a2.7,2.7,0,0,0-2.8,2.7v9.2A2.7,2.7,0,0,0,25.4,37h2l.9,2a4.5,4.5,0,0,0-3.2,2.1h-.3a11.9,11.9,0,0,0-7.1,5.7,11.4,11.4,0,0,0-1,9,12,12,0,0,0,3.4,5.6c-.1,1-.2,2-.2,3v4.6H69.3V64.5c0-1-.1-2-.2-3a12,12,0,0,0,3.4-5.6,11.8,11.8,0,0,0-1-9ZM71,54.5,69.2,54a7,7,0,0,0,.1-2.5l1.7-.4a9.7,9.7,0,0,1,0,3.4Zm-.4-5.2-1.8.5a9.4,9.4,0,0,0-1.2-2.2l1.3-1.3a7.8,7.8,0,0,1,1,1.5,10.1,10.1,0,0,1,.7,1.5Zm-3.4,5.1a3.6,3.6,0,0,1-.4,1.1,17.7,17.7,0,0,0-1.6-2.2l.2-.4a2.6,2.6,0,0,0,.1-2.1,2.6,2.6,0,0,0-.7-1.1V47.4a6.3,6.3,0,0,1,2.4,7ZM22.4,55.5a3.6,3.6,0,0,1-.4-1.1,6.3,6.3,0,0,1,2.4-7v2.3a2.6,2.6,0,0,0-.7,1.1,2.6,2.6,0,0,0,.1,2.1l.2.4a17.7,17.7,0,0,0-1.6,2.2Zm3.1-3.4a.6.6,0,0,1-.1-.7l.5-.5h.4a1,1,0,0,1,.8.5l5.5,11a.9.9,0,0,1,0,.7.7.7,0,0,1-.4.5.9.9,0,0,1-1.2-.4Zm6.3,13.3,1.2-.2a3.1,3.1,0,0,0,1.4-1.6,2.6,2.6,0,0,0-.2-2.1L29.1,51.3A15.9,15.9,0,0,1,37.3,49H51.9a15.9,15.9,0,0,1,8.2,2.3L55,61.5a2.6,2.6,0,0,0-.2,2.1,2.7,2.7,0,0,0,1.4,1.6l1.2.2h0v1.9H31.8V65.4Zm2.7-18.3a.9.9,0,1,1,0-1.8H54.7a.9.9,0,1,1,0,1.8Zm23.7,16a.9.9,0,0,1-1.2.4.7.7,0,0,1-.4-.5.9.9,0,0,1,0-.7l5.5-11a1,1,0,0,1,.8-.5h.4a1.2,1.2,0,0,1,.5.5.9.9,0,0,1-.1.7ZM67.7,45l-1.3,1.3-1.6-1.1V43.5c0-.1-.1-.2-.1-.3a11.4,11.4,0,0,1,3,1.8Zm-7.5-4.3a2.7,2.7,0,0,1,2.7,2.8V49a2.6,2.6,0,0,0-1.9.7,21.7,21.7,0,0,0-4.1-1.9,2.8,2.8,0,0,0,.5-1.6,2.9,2.9,0,0,0-.7-1.8,22.4,22.4,0,0,0,3.2-3.7Zm3.6-16.5a1,1,0,0,1,1,.9v9.2a1,1,0,0,1-1,.9H62.3a17.6,17.6,0,0,0,.6-4.6,17.3,17.3,0,0,0-1.2-6.4Zm-38.4,11a1,1,0,0,1-1-.9V25.1a1,1,0,0,1,1-.9h2.1a17.3,17.3,0,0,0-1.2,6.4,17.6,17.6,0,0,0,.6,4.6ZM44.6,14.1A16.5,16.5,0,0,1,54.9,43.5H34.3A16.5,16.5,0,0,1,44.6,14.1ZM29,40.7h.3a22.4,22.4,0,0,0,3.2,3.7,2.9,2.9,0,0,0-.7,1.8,2.8,2.8,0,0,0,.5,1.6,21.7,21.7,0,0,0-4.1,1.9,2.6,2.6,0,0,0-1.9-.7V43.5A2.7,2.7,0,0,1,29,40.7Zm-4.6,2.8v1.7l-1.6,1.1L21.5,45a11.4,11.4,0,0,1,3-1.8c0,.1-.1.2-.1.3Zm-4.2,2.8,1.4,1.3a9.4,9.4,0,0,0-1.2,2.2l-1.8-.5a10.1,10.1,0,0,1,.7-1.5l.9-1.5Zm-2,8.2a9.7,9.7,0,0,1,0-3.4l1.7.4A7,7,0,0,0,20,54Zm.5,1.8,1.8-.5a5.1,5.1,0,0,0,.9,1.6,15.9,15.9,0,0,0-.7,2,10.3,10.3,0,0,1-2-3.1Zm3,8.2a15.3,15.3,0,0,1,3.2-9.4l4.4,8.8.6.8v2.6H21.7Zm45.8,2.8H59.3V64.7l.6-.8,4.4-8.8a15.3,15.3,0,0,1,3.2,9.4Zm1-7.9a15.9,15.9,0,0,0-.7-2,8.3,8.3,0,0,0,.9-1.6l1.8.5a10.3,10.3,0,0,1-2,3.1Zm0,0"/></svg>