<svg xmlns="http://www.w3.org/2000/svg" viewBox="0 0 94 76"><defs><style>.a{fill:#ff8080;}</style></defs><title>200415_OSH Portal_UI_WIP_icons</title><path class="a" d="M72.3,10.6H21.7A7.6,7.6,0,0,0,14,18.3v44A7.6,7.6,0,0,0,21.7,70H72.3A7.6,7.6,0,0,0,80,62.3v-44a7.6,7.6,0,0,0-7.7-7.7Zm5.5,51.7a5.5,5.5,0,0,1-5.5,5.5H21.7a5.5,5.5,0,0,1-5.5-5.5v-44a5.5,5.5,0,0,1,5.5-5.5H72.3a5.5,5.5,0,0,1,5.5,5.5Zm0,0"/><path class="a" d="M72.3,19.4H21.7a3.3,3.3,0,0,0-3.3,3.3V62.3a3.3,3.3,0,0,0,3.3,3.3H72.3a3.3,3.3,0,0,0,3.3-3.3V22.7a3.3,3.3,0,0,0-3.3-3.3ZM47,41.3,35,34.8l12-6.5,12,6.5Zm13.2-4.7V49.5L48.1,56.1V43.2ZM45.9,43.2V56.1L33.8,49.5V36.6ZM20.6,22.7a1.1,1.1,0,0,1,1.1-1.1H45.9v4.8L32.2,33.8a.1.1,0,0,0-.1.1,1.1,1.1,0,0,0-.5.9V44l-11,5.5ZM73.4,62.3a1.1,1.1,0,0,1-1.1,1.1H21.7a1.1,1.1,0,0,1-1.1-1.1V52l11-5.5v3.7a1.1,1.1,0,0,0,.6,1l14.3,7.7a1.7,1.7,0,0,0,1,0l14.3-7.7a1.1,1.1,0,0,0,.6-1V46.5l11,5.5Zm0-12.8L62.4,44V34.8a1.1,1.1,0,0,0-.5-.9h-.1L48.1,26.4V21.6H72.3a1.1,1.1,0,0,1,1.1,1.1Zm0,0"/><path class="a" d="M21.7,16.1A1.1,1.1,0,1,1,20.6,15a1.1,1.1,0,0,1,1.1,1.1Zm0,0"/><path class="a" d="M26.1,16.1A1.1,1.1,0,1,1,25,15a1.1,1.1,0,0,1,1.1,1.1Zm0,0"/><path class="a" d="M30.5,16.1A1.1,1.1,0,1,1,29.4,15a1.1,1.1,0,0,1,1.1,1.1Zm0,0"/><path class="a" d="M56.9,17.2H72.3a1.1,1.1,0,1,0,0-2.2H56.9a1.1,1.1,0,0,0,0,2.2Zm0,0"/></svg>