<svg xmlns="http://www.w3.org/2000/svg" viewBox="0 0 68 76"><defs><style>.a{fill:#ff8080;}</style></defs><title>200415_OSH Portal_UI_WIP_icons</title><path class="a" d="M51.9,16.9c-7.8-6.1-14.5-7.2-26.7-4.5-3.2.8-7,2-9.7,4.8a20.5,20.5,0,0,0-3.9,6.5,16.8,16.8,0,0,0-.9,3.2v.4a10.9,10.9,0,0,1-.9,2.3,6.1,6.1,0,0,0-.8,3,4,4,0,0,0,1.5,2.2c.4.4.8.7.8,1l-.2.5a1.9,1.9,0,0,0-.4.9,5.8,5.8,0,0,1-1.4,3.2c-3.1,3.3-4,4.5-3.8,5.7A2.7,2.7,0,0,0,6.8,48a2.7,2.7,0,0,0,1,.6c.5.3,1.2.6,1.2.9a1.7,1.7,0,0,1-.1,1,5.9,5.9,0,0,1-.4.8c-.4.7-1,1.7-.1,2.5l.9.7A3.2,3.2,0,0,0,9,55.9a1.7,1.7,0,0,0,.6,1l.7.4c.6.4.8.5.9.8a3.7,3.7,0,0,1-.1,1.1,5.6,5.6,0,0,0,.2,3.6,3.7,3.7,0,0,0,4.3,2.6,79.3,79.3,0,0,0,8.3-2.5c1.4.8,2.7,2.8,3.6,5.5a2.9,2.9,0,0,0,2.8,2h20A2.9,2.9,0,0,0,52.8,69a3,3,0,0,0,.1-2.9,25.9,25.9,0,0,1-2.2-8.7,17.4,17.4,0,0,1,1.2-8.7,26.3,26.3,0,0,1,2.7-4.1c1.9-2.7,4.1-5.6,4.2-10.8a30.2,30.2,0,0,0-1-8.4,16.5,16.5,0,0,0-5.9-8.5ZM53,43.4A23.9,23.9,0,0,0,50.1,48a18.9,18.9,0,0,0-1.4,9.7A27.3,27.3,0,0,0,51.2,67a1.2,1.2,0,0,1-.1,1,.9.9,0,0,1-.8.4h-20a.9.9,0,0,1-.9-.6,15.5,15.5,0,0,0-3.3-5.7l.8-.2,1.5-.6q6.5-1.9,6.3-5.7a1,1,0,0,0-1.7-.7,1.1,1.1,0,0,0-.3.7c.1,1.1-.8,2.5-4.9,3.8l-1.6.6-2.6.9h0a81.1,81.1,0,0,1-8.4,2.5,1.8,1.8,0,0,1-2.1-1.3,3.9,3.9,0,0,1-.1-2.4,3.8,3.8,0,0,0,.1-2.1,3.2,3.2,0,0,0-1.8-2h-.2l.3-.6a.8.8,0,0,0,.2-.8.7.7,0,0,0-.3-.6l-1.3-1c.1,0,.2-.2.2-.2a9.3,9.3,0,0,0,.5-1,4.1,4.1,0,0,0,.3-2.2,3.6,3.6,0,0,0-2.3-2.2L8,46.5l-.7-.6c.1-.6,2.2-2.9,3.4-4.2a8.1,8.1,0,0,0,1.9-4.2c0-.1.1-.2.1-.3a3.9,3.9,0,0,0,.5-1.4,3.7,3.7,0,0,0-1.5-2.5c-.4-.4-.8-.7-.8-1a6,6,0,0,1,.6-1.9,9.9,9.9,0,0,0,1-2.7v-.3a21.7,21.7,0,0,1,.8-3A15.8,15.8,0,0,1,17,18.6c2.3-2.5,5.5-3.5,8.7-4.2,12.9-3,18.5-1,25,4.1A14.3,14.3,0,0,1,55.9,26a25.6,25.6,0,0,1,.9,7.8c0,4.5-1.9,7-3.8,9.6Zm0,0"/><path class="a" d="M45,27.6a4.1,4.1,0,0,0,5.5.5,3.9,3.9,0,0,0,1.1-5.3A4.1,4.1,0,0,0,46.5,21,4.2,4.2,0,0,0,44,25.9a11,11,0,0,0-2.9,3.8,8.2,8.2,0,0,0-2-1.2c-.9-1.6-.7-3.8-.3-5.6H39a3.8,3.8,0,0,0,3.9-3.4,3.9,3.9,0,0,0-2.8-4.4,3.8,3.8,0,0,0-4.7,2.2,3.9,3.9,0,0,0,1.5,5,11.8,11.8,0,0,0-.2,5.3l-2.8-.8-2.6-.5a5.6,5.6,0,0,1-1.8-2.7A3.8,3.8,0,0,0,31.9,19a3.8,3.8,0,0,0-4.3-3,3.9,3.9,0,0,0-3.5,3.8,4,4,0,0,0,3.4,4,11.9,11.9,0,0,0,.8,2L23,25.2a3.8,3.8,0,0,0-4-3.3,3.9,3.9,0,0,0-3.8,3.6,3.8,3.8,0,0,0,3.1,4.2,3.9,3.9,0,0,0,4.6-2.5c2.1.2,4.9.5,7.8,1h.1A13.7,13.7,0,0,0,28.2,31l-1.1-.2A3.9,3.9,0,0,0,23.2,34a4,4,0,0,0,2.3,4.5A4,4,0,0,0,29.9,32,10.4,10.4,0,0,1,33,29.2l.7-.4,4.1,1.3H38a6.1,6.1,0,0,1,2.2,1.3l.4.4c.4.8.3,1.9-.4,3.6a23.8,23.8,0,0,1-1.3,2.9c-1.8,3.5-3.8,7.5-.6,10s3.9,13.3,3.6,17a.9.9,0,0,0,.3.7c.1.2.4.3.7.4h0a1,1,0,0,0,1-1c.1-.5,1-14.4-4.3-18.6-1.8-1.5-.8-4,1-7.6.5-.9.9-1.8,1.3-2.6a2.9,2.9,0,0,1,2.8.7,4,4,0,0,0,5.8,5.5,4,4,0,0,0,.8-5.3,4,4,0,0,0-5.1-1.4,5.4,5.4,0,0,0-3.6-1.6,5,5,0,0,0-.1-3.2A11.9,11.9,0,0,1,45,27.6Zm2.9-4.7a2,2,0,1,1-2,2,2,2,0,0,1,2-2ZM39,17a1.8,1.8,0,0,1,1.9,1.9,1.9,1.9,0,0,1-1.9,2,2,2,0,0,1-2-2A1.9,1.9,0,0,1,39,17ZM26.1,19.9a2,2,0,0,1,2-2,2,2,0,0,1,0,4,2,2,0,0,1-2-2Zm-6.9,7.9a1.9,1.9,0,0,1-2-1.9,2,2,0,1,1,3.9,0,1.9,1.9,0,0,1-1.9,1.9Zm7.9,9a2,2,0,1,1,2-2,2,2,0,0,1-2,2Zm22.8,2.9a2,2,0,0,1-4,0,2,2,0,0,1,4,0Zm0,0"/></svg>