<svg xmlns="http://www.w3.org/2000/svg" viewBox="0 0 76 82"><defs><style>.a{fill:#ff8080;}</style></defs><title>200415_OSH Portal_UI_WIP_icons</title><path class="a" d="M20.5,26a.6.6,0,0,1-.5.6.6.6,0,0,1,0-1.2.6.6,0,0,1,.5.6Zm0,0"/><path class="a" d="M6,55.1v11a5.2,5.2,0,0,0,5.2,5.3H64.8A5.2,5.2,0,0,0,70,66.1V18.4A5.3,5.3,0,0,0,64.8,13H11.2A5.3,5.3,0,0,0,6,18.4V55.1Zm2.3-2.9V27.5H67.7V66.1a3,3,0,0,1-2.9,3H11.2a3,3,0,0,1-2.9-3V52.2Zm2.9-36.8H18a4.2,4.2,0,0,0-.4,2,2,2,0,0,1-2,2H8.3v-1a2.9,2.9,0,0,1,2.9-3Zm34.8,4H39.1a2,2,0,0,1-1.9-2,4.2,4.2,0,0,0-.5-2H64.8a2.9,2.9,0,0,1,2.9,3v1H46Zm5.7,2.3h16v3.4H8.3V21.7h7.3a4.2,4.2,0,0,0,4.2-4.3,2,2,0,0,1,1.9-2H33a2,2,0,0,1,2,2,4.2,4.2,0,0,0,4.1,4.3H51.7ZM8.3,25.1"/><path class="a" d="M44.6,32.7a1.9,1.9,0,0,0-1.8-.3l-7.9,3a2.5,2.5,0,0,0-1.5,2.3V45l-1.2-.2a3.7,3.7,0,0,0,0,7.3,3.6,3.6,0,0,0,3.5-3.6V37.7h0l7.5-2.8v7l-1.3-.2a3.7,3.7,0,0,0,0,7.3,3.5,3.5,0,0,0,3.5-3.7V34.3a1.9,1.9,0,0,0-.8-1.6ZM32.2,49.8a1.3,1.3,0,0,1-1.3-1.3,1.3,1.3,0,0,1,1.3-1.3,1.2,1.2,0,0,1,1.2,1.3,1.2,1.2,0,0,1-1.2,1.3Zm9.7-3.2a1.3,1.3,0,0,1-1.2-1.4,1.2,1.2,0,0,1,1.2-1.3,1.3,1.3,0,0,1,1.3,1.3,1.3,1.3,0,0,1-1.3,1.4Zm0,0"/><path class="a" d="M18.1,61.7V58.2A1.2,1.2,0,0,0,17,57a1.2,1.2,0,0,0-1.1,1.2v3.5A1.2,1.2,0,0,0,17,62.9a1.2,1.2,0,0,0,1.1-1.2Zm0,0"/><path class="a" d="M22.3,60.6V59.3a1.1,1.1,0,1,0-2.2,0v1.3a1.1,1.1,0,1,0,2.2,0Zm0,0"/><path class="a" d="M41,59.3v1.3a1.2,1.2,0,0,0,1.2,1.2,1.1,1.1,0,0,0,1.1-1.2V59.3a1.1,1.1,0,0,0-1.1-1.2A1.2,1.2,0,0,0,41,59.3Zm0,0"/><path class="a" d="M55.9,60.6V59.3a1.1,1.1,0,0,0-1.1-1.2,1.2,1.2,0,0,0-1.2,1.2v1.3a1.2,1.2,0,0,0,1.2,1.2,1.1,1.1,0,0,0,1.1-1.2Zm0,0"/><path class="a" d="M26.5,61.7V58.2a1.1,1.1,0,1,0-2.2,0v3.5a1.1,1.1,0,1,0,2.2,0Zm0,0"/><path class="a" d="M60.1,61.7V58.2A1.2,1.2,0,0,0,58.9,57a1.2,1.2,0,0,0-1.1,1.2v3.5a1.2,1.2,0,0,0,1.1,1.2,1.2,1.2,0,0,0,1.2-1.2Zm0,0"/><path class="a" d="M51.7,61.7V58.2A1.2,1.2,0,0,0,50.6,57a1.2,1.2,0,0,0-1.2,1.2v3.5a1.2,1.2,0,0,0,1.2,1.2,1.2,1.2,0,0,0,1.1-1.2Zm0,0"/><path class="a" d="M33.8,57a1.2,1.2,0,0,0-1.1,1.2v3.5a1.1,1.1,0,1,0,2.2,0V58.2A1.2,1.2,0,0,0,33.8,57Zm0,0"/><path class="a" d="M36.9,58.2v3.5a1.1,1.1,0,1,0,2.2,0V58.2a1.1,1.1,0,1,0-2.2,0Zm0,0"/><path class="a" d="M28.5,63a1.1,1.1,0,1,0,2.2,0V56.9a1.1,1.1,0,1,0-2.2,0Zm0,0"/><path class="a" d="M45.2,63a1.2,1.2,0,0,0,1.2,1.2A1.1,1.1,0,0,0,47.5,63V56.9a1.1,1.1,0,0,0-1.1-1.2,1.2,1.2,0,0,0-1.2,1.2Zm0,0"/></svg>