<svg xmlns="http://www.w3.org/2000/svg" viewBox="0 0 69 76"><defs><style>.a{fill:#ff8080;}</style></defs><title>200415_OSH Portal_UI_WIP_icons</title><path class="a" d="M63,24.7a5,5,0,0,0-8.5-3.4L35.1,10.2a.9.9,0,0,0-1.2,0L14.5,21.3A5,5,0,0,0,6,24.7a5,5,0,0,0,3.8,4.9V51.9a1.1,1.1,0,0,0,.6,1L29.7,64a6.8,6.8,0,0,0-.2,1.4,5,5,0,0,0,10,0,6.8,6.8,0,0,0-.2-1.4L58.6,52.9a1.1,1.1,0,0,0,.6-1V29.6A5,5,0,0,0,63,24.7Zm-54.6,0A2.6,2.6,0,0,1,11,22.1a2.6,2.6,0,0,1,2.6,2.6A2.6,2.6,0,0,1,11,27.3a2.5,2.5,0,0,1-2.6-2.6ZM34.5,68a2.6,2.6,0,0,1-2.6-2.6,2.6,2.6,0,1,1,5.2,0A2.6,2.6,0,0,1,34.5,68Zm3.6-6a5.1,5.1,0,0,0-7.2,0L12.1,51.2V29.6a5,5,0,0,0,3.8-4.9,3,3,0,0,0-.2-1.3L34.5,12.5,53.3,23.4a3,3,0,0,0-.2,1.3,5,5,0,0,0,3.8,4.9V51.2ZM58,27.3a2.6,2.6,0,0,1-2.6-2.6A2.6,2.6,0,0,1,58,22.1a2.6,2.6,0,0,1,2.6,2.6A2.5,2.5,0,0,1,58,27.3Zm0,0"/><path class="a" d="M50.7,28.3l-15.6-9a1.3,1.3,0,0,0-1.2,0l-15.6,9a1.1,1.1,0,0,0-.6,1v18a1.1,1.1,0,0,0,.6,1l15.6,9,.6.2.6-.2,15.6-9a1.1,1.1,0,0,0,.6-1v-18a1.1,1.1,0,0,0-.6-1ZM34.5,21.7l13.2,7.6L34.5,36.9,21.3,29.3ZM33.3,38.9V54.2L20.1,46.6V31.4l13.8,7.9.6.2.6-.2,13.8-7.9V46.6L35.7,54.2V38.9m0,15.3"/></svg>