<svg xmlns="http://www.w3.org/2000/svg" viewBox="0 0 67 77"><defs><style>.a{fill:#ff8080;}</style></defs><title>200415_OSH Portal_UI_WIP_icons</title><path class="a" d="M50,19.4,42.8,9H21.3L14,19.3l18,22Zm-12.7.8L32,36.8,26.8,20.2Zm-10-1.9L32,11.6l4.8,6.8Zm12,1.9h7.6L34.4,35.5Zm.7-1.8,2.5-6.5,4.6,6.5Zm-1.7-1.1-4.5-6.4h7.1Zm-12.6,0-2.6-6.4h7.1Zm-1.6,1H17l4.5-6.4Zm.7,1.9,4.8,15.3L17.2,20.2Zm0,0"/><path class="a" d="M59,35.2,47.7,39.3l.6,2.1-4.4,2.2H37.4a5.9,5.9,0,0,0-2.9.7l-3.2-1.6-13-.9.8-2.6-14-4H3V55.8H14l.4-1.5,3.5,2.8-.3.4a2.7,2.7,0,0,0-.6,1.7v.3a2.8,2.8,0,0,0,2.8,2.8l1.1-.2a2.8,2.8,0,0,0,2.7,2.1l1-.2a2.8,2.8,0,0,0,2.7,2.1,3,3,0,0,0,2.1-1A2.8,2.8,0,0,0,32,67h.2a2.7,2.7,0,0,0,1.9-.8l.7-.7A2.9,2.9,0,0,0,39.3,64l1,.2a2.9,2.9,0,0,0,2.9-2.8A2.9,2.9,0,0,0,46,58.5a3.7,3.7,0,0,0-.2-1.2l2.3-.6,4.2-2.5.5,1.6H61V35.2ZM4.9,53.9V37.1l11.9,3.4L12.6,53.9Zm14.9,6.6a1,1,0,0,1-.9-1v-.3a1.4,1.4,0,0,1,.2-.6L21,56.1a.8.8,0,0,1,.7-.3.9.9,0,0,1,.9.9V57a1.3,1.3,0,0,1-.1.6l-1.9,2.5a1.2,1.2,0,0,1-.8.4Zm3.8,1.8a1,1,0,0,1-1-.9v-.3a1.4,1.4,0,0,1,.2-.6L24.7,58a1.2,1.2,0,0,1,.8-.4,1,1,0,0,1,.9,1v.3a1.4,1.4,0,0,1-.2.6l-1.9,2.4a.7.7,0,0,1-.7.4Zm4.5,1.5a.9.9,0,0,1-.8.4.9.9,0,0,1-.9-.9v-.4a.8.8,0,0,1,.2-.5l1.8-2.5a1.2,1.2,0,0,1,.8-.4.9.9,0,0,1,.9,1v.3c0,.2,0,.4-.2.5Zm5.8-.4a.9.9,0,0,1-.3.7l-.8.8-.6.2H32a.9.9,0,0,1-.9-.9V64a1.1,1.1,0,0,1,.2-.6l.8-.8a.9.9,0,0,1,.7-.3h.1a.9.9,0,0,1,1,1Zm9.2-3.9a.9.9,0,0,1-.7-.3l-5.1-5L36,55.5l1,.9,4,4.1a1.2,1.2,0,0,1,.4.8,1,1,0,0,1-1.1,1,.9.9,0,0,1-.7-.3l-5.1-5-1.3,1.3,4.1,4.1a1.1,1.1,0,0,1,.3.7,1.1,1.1,0,0,1-1,1.1,1.1,1.1,0,0,1-.8-.3h-.1v-.4h0a2.7,2.7,0,0,0-2.8-2.8H32a2.9,2.9,0,0,0-2.8-2.9,1.7,1.7,0,0,0-1,.3,2.9,2.9,0,0,0-2.7-2.1l-1.1.2a2.8,2.8,0,0,0-2.7-2.1A2.7,2.7,0,0,0,19.5,55l-.5.6-4-3.2,2.8-8.7,13,.8,1.8.9-3.8,2.4a3.2,3.2,0,0,0-1.5,2.6v.4a3.1,3.1,0,0,0,3.2,3.1,4.7,4.7,0,0,0,1.6-.4l3.5-2.2a1.8,1.8,0,0,1,2.1.3l6.2,6.1a1.1,1.1,0,0,1,.3.8,1.1,1.1,0,0,1-1.1,1Zm4.4-4.6-3.1.8-5.3-5.4a3.8,3.8,0,0,0-4.5-.6l-3.5,2.2h-.6a1.2,1.2,0,0,1-1.3-1.2v-.4a1.1,1.1,0,0,1,.6-1l5.1-3.2a4.3,4.3,0,0,1,2.5-.7h7l4.5-2.3,2.9,9.2Zm11.6-1H54.2L50,40.4l9.1-3.3Zm0,0"/></svg>