<svg xmlns="http://www.w3.org/2000/svg" viewBox="0 0 72 68"><defs><style>.a{fill:#ff8080;}</style></defs><title>200415_OSH Portal_UI_WIP_icons</title><path class="a" d="M7,58H52.6a1,1,0,0,0,1-1V48.5h6.6a1.1,1.1,0,0,0,1-1V38a.9.9,0,0,0-.9-.9H53.5V28.5a.9.9,0,0,0-.9-.9H50.8a2.3,2.3,0,0,0-.3-1.8l-4.3-5.7,1.9-1.5a3.2,3.2,0,0,0,1.3-2.8V14.1a1.4,1.4,0,0,1,.6-1.2l2-1.5.8,1.1.6.4h.2l.5-.2,7.9-5.9a2.8,2.8,0,0,0,.5-4l-.5-.7a2.9,2.9,0,0,0-4-.6L50.1,7.4a1.1,1.1,0,0,0-.2,1.4l.8,1.1-1.9,1.5a3.4,3.4,0,0,0-1.4,2.8v1.7a1.2,1.2,0,0,1-.5,1.2l-2,1.5-4.3-5.8a2,2,0,0,0-1.9-.8,1.8,1.8,0,0,0-1.7,1.1L29.3,27.6H7a1.1,1.1,0,0,0-1,1v9.5A.9.9,0,0,0,7,39h6.7v7.6H7a1,1,0,0,0-.9,1v9.5A.9.9,0,0,0,7,58ZM59.1,3.1a.9.9,0,0,1,1.3.1l.5.7a1.1,1.1,0,0,1-.2,1.4l-7,5.3L52,8.4ZM23.2,48.5H36.5v7.6H23.2ZM30.8,39H44.1v7.6H30.8ZM51.7,56.1H38.4V48.5H51.7Zm7.6-9.5H46V39H59.3Zm-7.7-9.5H38.4V31.6l9.8-2.1h3.5ZM38.7,14h.5l4.3,5.7-3.9,3a.9.9,0,1,0,1.1,1.5l3.9-3,4.3,5.7a.4.4,0,0,1,.1.3.2.2,0,0,1-.2.2L30,31.4h-.3a.2.2,0,0,1,0-.3ZM28.2,32.4a2.3,2.3,0,0,0,2.2.9l6-1.3v5.1H23.2V29.5h5.2l-.3.6a2,2,0,0,0,.2,2.3Zm-20.3.9H9.8a.9.9,0,0,0,1-.9,1,1,0,0,0-1-1H7.9V29.5H21.2v7.6H8ZM15.6,39H28.9v7.6H15.6ZM8,48.5H21.3v7.6H8Zm0,0"/></svg>