<svg xmlns="http://www.w3.org/2000/svg" viewBox="0 0 85 77"><defs><style>.a{fill:#ff8080;}</style></defs><title>200415_OSH Portal_UI_WIP_icons</title><path class="a" d="M64.9,52.3a14,14,0,0,0,0-5l4.5-10.9h0a18.6,18.6,0,0,1,3.1-5.5,1.5,1.5,0,0,0,.4-1.4L71,21.6v-.3h-.1l-.2-.2h-.1a.1.1,0,0,0-.1-.1h-.9l-7,4.4a1.6,1.6,0,0,0-.7,1.2,18.4,18.4,0,0,1-1.6,6.1h0L58,38.1a13.3,13.3,0,0,0-3.5-1.3,44.8,44.8,0,0,0,.5-9.7,10.7,10.7,0,0,0,2.5-7.8c-.6-5.8-5.8-9.9-6-10.1a.9.9,0,0,0-1.2,0,1,1,0,0,0-.4,1c.5,1.9.1,3.9-3.7,8.1a5.5,5.5,0,0,0-1.3,6.2,6.8,6.8,0,0,0,1.4,2.3c-.3,1.5-.4,3-.6,4.4a39.8,39.8,0,0,0-.1,6.9,22,22,0,0,0-2.5,1.7L38.3,19.4h0v-.2l-4.8-9a2.2,2.2,0,0,0-2.5-1.1,2.2,2.2,0,0,0-1.8,2.1l-.4,10.2c0,.1,0,.2.1.2h0l4.8,20.8a8.3,8.3,0,0,0-2.2.3L26,29.9a2,2,0,0,0-2.6-1.1l-8.1,3.4a2,2,0,0,0-1.1,2.6l7.2,17.5A7.9,7.9,0,0,0,21.9,68H65.1a8,8,0,0,0,6.8-4,8.2,8.2,0,0,0-.1-7.9,7.9,7.9,0,0,0-6.9-3.8Zm-1-25.5L68,24.2l-1.4,3.6c-.3.5,0,1,.5,1.3a1,1,0,0,0,1.3-.6L69.8,25l1.1,4.7a22.5,22.5,0,0,0-2.8,4.7,4.2,4.2,0,0,1-3.3.1,4.1,4.1,0,0,1-2.2-2.3,20.3,20.3,0,0,0,1.3-5.4Zm-2.3,7.7a6.7,6.7,0,0,0,4.9,2.3h.6l-3.2,7.6a12.7,12.7,0,0,0-4.2-5.3Zm-13.4-7,4.9.3v2.8a16,16,0,0,1-4.9-.2h-.4a28.9,28.9,0,0,1,.4-2.9Zm-.5-7.9c2.6-2.9,4-5.1,4.3-7.2a13.3,13.3,0,0,1,3.5,7.1,8.8,8.8,0,0,1-2,6.4l-5.7-.4a3.7,3.7,0,0,1-1.3-2.9,3.9,3.9,0,0,1,1.2-3Zm-.1,12.7h.3a24.3,24.3,0,0,0,3.8.3H53c-.1,1.3-.2,2.6-.4,4h-.8a13.1,13.1,0,0,0-4.3.8,41.7,41.7,0,0,1,.1-5ZM40,43.8l-2.8-12a1,1,0,1,0-1.9.5l2.5,10.8a8.3,8.3,0,0,0-2.1-.6L31.3,24.1a4.8,4.8,0,0,0,2,.4h.2l.7,3a.9.9,0,0,0,.6.7,1.2,1.2,0,0,0,1-.2.9.9,0,0,0,.3-1l-.7-2.9a7,7,0,0,0,1.7-1.3l4.4,18.7A11.4,11.4,0,0,0,40,43.8ZM34,22.5a3.5,3.5,0,0,1-3.3-1.3V17.7h2.1a6.1,6.1,0,0,0,1.8-.9l1.7,3A3.5,3.5,0,0,1,34,22.5ZM31.3,11h.3L33.8,15a3.9,3.9,0,0,1-1.4.8,3.8,3.8,0,0,1-1.5-.1l.2-4.4c0-.2.1-.3.2-.3ZM24.2,30.6l.7,1.8L21.3,34a.9.9,0,0,0-.6,1.1,1,1,0,0,0,1,.7h.4l3.6-1.5.7,1.8-1.8.7a1.1,1.1,0,0,0-.6,1.1,1,1,0,0,0,1,.8h.4l1.8-.8.8,1.8-3.7,1.5a1.1,1.1,0,0,0-.6,1.1,1,1,0,0,0,1,.8h.4l3.6-1.5.8,2a11.3,11.3,0,0,0-6.4,7.7L16,34ZM65.1,66H21.9A5.8,5.8,0,0,1,16,60.1a5.9,5.9,0,0,1,5.9-5.9,4.5,4.5,0,0,1,1.6.3,1,1,0,0,0,.9-.2,1,1,0,0,0,.4-.7,9.3,9.3,0,0,1,15-7.3.8.8,0,0,0,.8.1,1.3,1.3,0,0,0,.7-.6,11.2,11.2,0,0,1,12.6-7.1,11.4,11.4,0,0,1,9.3,11.1,12,12,0,0,1-.5,3.3.9.9,0,0,0,.2,1,1,1,0,0,0,.9.3l1.3-.2A5.9,5.9,0,0,1,71,60.1,5.8,5.8,0,0,1,65.1,66Zm0,0"/><path class="a" d="M52,24.4a1.1,1.1,0,0,0,.8-.3,7.5,7.5,0,0,0,1.3-5.8,1,1,0,0,0-.7-.8.8.8,0,0,0-.9.3,1,1,0,0,0-.3,1,5.1,5.1,0,0,1-1,4.1.9.9,0,0,0,0,1,.9.9,0,0,0,.8.5Zm0,0"/><path class="a" d="M50.7,54.2a5.4,5.4,0,0,0-2.1.5,5.9,5.9,0,0,0-7.7-1.6,6,6,0,0,0-2.5,7.4,1,1,0,0,0,.9.6h.4c.3-.1.5-.3.5-.5a1.1,1.1,0,0,0,0-.8,4,4,0,0,1,3.7-5.5,3.8,3.8,0,0,1,3.5,2.3h.2c0,.1.1.1.1.2h1a.1.1,0,0,1,.1-.1.1.1,0,0,0,.1-.1,3,3,0,0,1,4.5,1.1,1,1,0,0,0,1.8-.8,5,5,0,0,0-4.5-2.9Zm0,0"/><path class="a" d="M31.4,47.4a5.1,5.1,0,0,0-3.6,4.9.9.9,0,0,0,.9.9.9.9,0,0,0,1-.9,3.3,3.3,0,0,1,2.3-3,1,1,0,0,0,.6-1.3.9.9,0,0,0-1.2-.6Zm0,0"/><path class="a" d="M45.2,46.3h.3a.9.9,0,0,0,.9-.8,4.4,4.4,0,0,1,4-3.2,1,1,0,0,0,1-1,1,1,0,0,0-1-.9,6.1,6.1,0,0,0-5.9,4.6,1,1,0,0,0,.7,1.2Zm0,0"/></svg>