<svg xmlns="http://www.w3.org/2000/svg" viewBox="0 0 91 77"><defs><style>.a{fill:#ff8080;}</style></defs><title>200415_OSH Portal_UI_WIP_icons</title><path class="a" d="M60.3,36.6V25.4a.9.9,0,0,0-.4-.8c-.2-.1-.6-.2-.8,0L44.9,31.2a18.7,18.7,0,0,0-5-16.7h-.2a18.6,18.6,0,0,0-26.2,0h-.1a18.6,18.6,0,0,0,0,26.2c0,.1.1.1.1.2a19.4,19.4,0,0,0,6.2,4v2.9A4.3,4.3,0,0,0,24,52.1h.3V66.5a.9.9,0,0,0,.9.9A7.8,7.8,0,0,0,33,59.6V53a41.7,41.7,0,0,1,9,3.1L59.1,64c.2.2.6.1.8,0a.9.9,0,0,0,.4-.8V52a7.8,7.8,0,0,0,0-15.4ZM39.2,38.9l-.7-.7a.9.9,0,0,0-1.3,1.3l.7.7a17.3,17.3,0,0,1-10.4,4.3v-1a.9.9,0,1,0-1.8,0v1a17,17,0,0,1-10.3-4.3l.6-.7a.9.9,0,0,0,0-1.3.9.9,0,0,0-1.2,0l-.7.7A16.7,16.7,0,0,1,9.8,28.5h.9a.9.9,0,0,0,0-1.8H9.8a16.5,16.5,0,0,1,4.3-10.3l.7.6A.8.8,0,0,0,16,15.8l-.6-.7a16.5,16.5,0,0,1,10.3-4.3v.9a.9.9,0,1,0,1.8,0v-.9a16.7,16.7,0,0,1,10.4,4.3l-.7.7a.9.9,0,0,0,0,1.2.9.9,0,0,0,1.3,0l.7-.6a17,17,0,0,1,4.3,10.3h-1a.9.9,0,1,0,0,1.8h1a17.3,17.3,0,0,1-4.3,10.4ZM24,50.3a2.6,2.6,0,0,1-2.6-2.5V45.5a19.2,19.2,0,0,0,9.8.2v5.2a43.7,43.7,0,0,0-7.2-.6Zm7.2,9.3a6.1,6.1,0,0,1-5.1,6V52.1a44.3,44.3,0,0,1,5.1.6ZM33,51.2v-6a19.7,19.7,0,0,0,6.7-4.3l.2-.2a18.1,18.1,0,0,0,4.4-7.3l8.6-4V59.2L42.7,54.5A42.7,42.7,0,0,0,33,51.2ZM58.5,61.8,54.6,60V28.6l3.9-1.8Zm1.8-11.6V38.4a6,6,0,0,1,0,11.8Zm0,0"/><path class="a" d="M75.3,44.3a11.2,11.2,0,0,0-6.8-10.2,1.1,1.1,0,0,0-.8.1,1,1,0,0,0-.4.9,1.1,1.1,0,0,0,.6.7,9.3,9.3,0,0,1,0,17,1.2,1.2,0,0,0-.6.8.9.9,0,0,0,.4.8.8.8,0,0,0,.8.1,11.2,11.2,0,0,0,6.8-10.2Zm0,0"/><path class="a" d="M70.7,29.2a1,1,0,0,0-1.1.5.9.9,0,0,0,.4,1.2,14.5,14.5,0,0,1,0,26.8.9.9,0,0,0-.5.8.9.9,0,0,0,.4.8.8.8,0,0,0,.8.1,16.4,16.4,0,0,0,0-30.2Zm0,0"/><path class="a" d="M26.6,14.1a13.6,13.6,0,0,0,0,27.1,13.6,13.6,0,1,0,0-27.1Zm0,25.3A11.8,11.8,0,1,1,38.4,27.6,11.8,11.8,0,0,1,26.6,39.4Zm0,0"/><path class="a" d="M28.8,20V18.5a.9.9,0,0,0-.8-.9.9.9,0,0,0-.9.9V20H25.6V18.5a.9.9,0,1,0-1.8,0V20H22.2a.9.9,0,0,0-.9.9V34.5a.9.9,0,0,0,.9.9h1.6v1.4a.9.9,0,0,0,1.8,0V35.4h1.5v1.4a.8.8,0,0,0,.9.8.8.8,0,0,0,.8-.8V35.3A3.7,3.7,0,0,0,32,31.7V30.5a3.5,3.5,0,0,0-1.4-2.8A3.7,3.7,0,0,0,32,24.8V23.7A3.8,3.8,0,0,0,28.8,20Zm1.4,10.5v1.2a2,2,0,0,1-2,1.9H23.1v-5h5.1a1.9,1.9,0,0,1,2,1.9Zm-7.1-3.7V21.7h5.1a2,2,0,0,1,2,2v1.1a2,2,0,0,1-2,2Zm0,0"/></svg>