<svg xmlns="http://www.w3.org/2000/svg" viewBox="0 0 74 77"><defs><style>.a{fill:#ff8080;}</style></defs><title>200415_OSH Portal_UI_WIP_icons</title><path class="a" d="M26,13.8A16.2,16.2,0,1,0,42.2,30,16.1,16.1,0,0,0,26,13.8Zm0,1.9A14.5,14.5,0,0,1,39.4,25l-3.3,5h-.8L34,27.1l-1.3-2.7a2.5,2.5,0,0,0,.9-2,2.9,2.9,0,1,0-5.7,0,2.6,2.6,0,0,0,.7,1.8l-3.1,5.1-2.8,4.5h-.9l-1.1-2.2-1.2-2.5a2.8,2.8,0,0,0-2.1-4.8,2.8,2.8,0,0,0-2.9,2.8,2.8,2.8,0,0,0,.5,1.6l-3,4.1a13.3,13.3,0,0,1-.3-2.8A14.3,14.3,0,0,1,26,15.7ZM35.1,32c0-.1,0-.1.1-.1h.6a.1.1,0,0,1,.1.1.8.8,0,0,1,.5.8,1,1,0,0,1-.9,1,1.1,1.1,0,0,1-1-1A.9.9,0,0,1,35.1,32Zm-4-8.8h-.8a1.1,1.1,0,0,1-.5-.9.9.9,0,0,1,.9-.9.9.9,0,0,1,1,.9.9.9,0,0,1-.6.9ZM17.6,28h-.7a.8.8,0,0,1-.5-.8,1,1,0,0,1,1-.9.9.9,0,0,1,.9.9,1.1,1.1,0,0,1-.5.9Zm4.1,7.8h.9a1,1,0,0,1,.5.8.9.9,0,0,1-.9,1,.9.9,0,0,1-1-1A.9.9,0,0,1,21.7,35.8ZM26,44.3a14.5,14.5,0,0,1-13.4-9.2l3.9-5.3h1.3L19,32.4l1.1,2.2a3.2,3.2,0,0,0-.8,2,2.9,2.9,0,0,0,2.9,2.9,2.9,2.9,0,0,0,2.2-4.7l2.7-4.5,3.1-5.2H31l1.2,2.7,1.3,2.9a2.9,2.9,0,1,0,4.9,2,2.8,2.8,0,0,0-.7-1.7L40,27.5a10.1,10.1,0,0,1,.3,2.5A14.4,14.4,0,0,1,26,44.3Z"/><path class="a" d="M62.4,58.3,47.9,43.8A5.8,5.8,0,0,0,43,42.2,20.8,20.8,0,1,0,38.2,47a2.2,2.2,0,0,0-.1.8,5.8,5.8,0,0,0,1.7,4.1L54.3,66.4a5.7,5.7,0,0,0,4.1,1.7,5.8,5.8,0,0,0,5.7-5.7A5.7,5.7,0,0,0,62.4,58.3ZM6.9,30A19.1,19.1,0,1,1,26,49,19.2,19.2,0,0,1,6.9,30ZM61.1,65.1a4,4,0,0,1-5.4,0L41.1,50.5a3.9,3.9,0,0,1,0-5.4A4,4,0,0,1,43.8,44a3.9,3.9,0,0,1,2.7,1.1L61.1,59.7a3.9,3.9,0,0,1,1.1,2.7A4,4,0,0,1,61.1,65.1Z"/></svg>