<svg xmlns="http://www.w3.org/2000/svg" viewBox="0 0 82 83"><defs><style>.a{fill:#ff8080;}</style></defs><title>200415_OSH Portal_UI_WIP_icons</title><path class="a" d="M62.7,28,35.9,15.1h-.7L8.4,28a1,1,0,0,0-.5.8V60.2a1,1,0,0,0,.5.8L35.2,73.9h.7L62.7,61a1,1,0,0,0,.5-.8V28.8A1,1,0,0,0,62.7,28ZM35.5,16.8l24.8,12-7.2,3.5H53L28.4,20.3Zm-9.1,4.5L51.2,33.2l-5.1,2.5-24.8-12ZM47,37.1l4.8-2.2v9L47,46.2ZM36.4,71.8V42.3l6-2.9a.9.9,0,0,0,.4-1.2,1,1,0,0,0-1.2-.4l-6.1,3-2.4-1.2A.8.8,0,0,0,32,40a.9.9,0,0,0,.4,1.2l2.3,1.1V71.8L9.6,59.7V30.2l19.1,9.2h.4a.8.8,0,0,0,.7-.5.9.9,0,0,0-.4-1.2l-18.7-9,8.6-4.1,26,12.5h0V47.6a.8.8,0,0,0,.4.7h.8L53,45.2a.8.8,0,0,0,.5-.8V34l8-3.8V59.7Z"/><path class="a" d="M12.8,55.8l-4.2-2a1.1,1.1,0,0,0-1.3.4,1,1,0,0,0,.5,1.3l4.2,2h.4a1.1,1.1,0,0,0,.9-.5A1,1,0,0,0,12.8,55.8Z"/><path class="a" d="M16.7,53.3,8.6,49.4a1.1,1.1,0,0,0-1.3.4,1,1,0,0,0,.5,1.3L15.9,55h.4a1.1,1.1,0,0,0,.9-.5A1,1,0,0,0,16.7,53.3Z"/></svg>