<svg xmlns="http://www.w3.org/2000/svg" viewBox="0 0 94 83"><defs><style>.a{fill:#ff8080;}</style></defs><title>200415_OSH Portal_UI_WIP_icons</title><path class="a" d="M74.7,12.9H13.3A4.3,4.3,0,0,0,9,17.2V58.8a4.4,4.4,0,0,0,4.3,4.4H34.1l-.9,6.7H29.8a1,1,0,1,0,0,2H58.2a1,1,0,1,0,0-2H54.8l-.9-6.7H74.7A4.4,4.4,0,0,0,79,58.8V17.2A4.3,4.3,0,0,0,74.7,12.9Zm-22,57H35.3l.8-6.7h3.8l.4,1.4a3.8,3.8,0,0,0,7.4,0l.4-1.4h3.8ZM42,63.2h4l-.3.9a1.7,1.7,0,0,1-3.4,0Zm34.9-4.4a2.2,2.2,0,0,1-2.2,2.3H13.3a2.2,2.2,0,0,1-2.2-2.3V17.2a2.2,2.2,0,0,1,2.2-2.3H74.7a2.2,2.2,0,0,1,2.2,2.3V58.8Z"/><path class="a" d="M16.6,56.7H15.4V19.3H67a1,1,0,0,0,0-2H14.4a.9.9,0,0,0-1,1V57.7a1,1,0,0,0,1,1.1h2.2a1,1,0,0,0,1-1.1A1,1,0,0,0,16.6,56.7Z"/><path class="a" d="M73.6,17.3H71.4a1,1,0,0,0,0,2h1.2V56.7H21a1,1,0,0,0-1,1,1,1,0,0,0,1,1.1H73.6a1,1,0,0,0,1-1.1V18.3A.9.9,0,0,0,73.6,17.3Z"/><path class="a" d="M37.1,43.1h1.2l14.4-1.7a4.1,4.1,0,0,0,3.7-3.4l1.8-8.7a3.1,3.1,0,0,0-.2-.8,1.2,1.2,0,0,0-.8-.4L33.1,27.1H33a2.1,2.1,0,0,0-.8-1.1l-3-2a1,1,0,0,0-1.4.3,1,1,0,0,0,.3,1.4l2.9,2h.1l3.7,13.2a2.4,2.4,0,0,0,.6,1.1L34,44.7a2.2,2.2,0,0,0,.1,2.1l.5.6a4.2,4.2,0,0,0-.4,1.6,3.3,3.3,0,0,0,3.2,3.2A3.2,3.2,0,0,0,40.6,49a2.5,2.5,0,0,0-.2-1.2h9.4a2.5,2.5,0,0,0-.2,1.2,3.2,3.2,0,0,0,3.2,3.2A3.3,3.3,0,0,0,56,49a2.8,2.8,0,0,0-.4-1.5.7.7,0,0,0,.4-.7,1,1,0,0,0-1-1H35.8Zm1-1.9a1.3,1.3,0,0,1-1.3-.9l-1.3-4.5h3.3l.8,5.2Zm8-1V35.8h3.5l-.3,4Zm0-6.5V29.8l4.1.2-.4,3.7Zm-2,0H40.5l-.7-4.2,4.3.2Zm0,2.1v4.7l-2.4.2-.8-4.9Zm8.4,3.7H51.3l.4-3.8h3.1l-.4,1.9A2.3,2.3,0,0,1,52.5,39.5Zm2.7-5.8H51.9l.3-3.7,3.7.2ZM37.7,29.4l.7,4.3H34.9l-1.3-4.5ZM38.6,49a1.1,1.1,0,0,1-1.2,1.1A1.1,1.1,0,0,1,36.3,49a1.1,1.1,0,0,1,1.1-1.2A1.2,1.2,0,0,1,38.6,49Zm14.2,1.1A1.1,1.1,0,0,1,51.6,49a1.2,1.2,0,0,1,1.2-1.2A1.1,1.1,0,0,1,53.9,49,1.1,1.1,0,0,1,52.8,50.1Z"/></svg>