<svg xmlns="http://www.w3.org/2000/svg" viewBox="0 0 78 83"><defs><style>.a{fill:#ff8080;}</style></defs><title>200415_OSH Portal_UI_WIP_icons</title><path class="a" d="M40.5,40.9a1,1,0,0,0,.9.6h.4a77.1,77.1,0,0,1,8.7-3.9.9.9,0,0,0,.6-1.2,1,1,0,0,0-1.2-.7c-3,1-8.7,3.9-9,4a.9.9,0,0,0-.4,1.3Zm0,0"/><path class="a" d="M41.4,29.7h.4c.1,0,5.9-3,8.7-3.9a.9.9,0,0,0,.6-1.2,1,1,0,0,0-1.2-.7c-3,1-8.7,3.9-9,4a1,1,0,0,0-.4,1.4,1.1,1.1,0,0,0,.9.5Zm0,0"/><path class="a" d="M64.9,27.7a1,1,0,0,0-.9,1V67a3.1,3.1,0,0,1-3,3H37.4V67.7A29.6,29.6,0,0,1,46.3,66a52.5,52.5,0,0,1,14.4,1.9,1,1,0,0,0,.9-.1A1.2,1.2,0,0,0,62,67V23.8a1,1,0,0,0-.8-1l-2.1-.4a1,1,0,0,0-1.1.8,1,1,0,0,0,.8,1.2l1.2.2V65.7a54.4,54.4,0,0,0-13.7-1.6,33.9,33.9,0,0,0-9.8,1.8,24.2,24.2,0,0,0-8.9-1.8,72.5,72.5,0,0,0-14.7,1.6V24.6a62.4,62.4,0,0,1,14.7-1.8,21.6,21.6,0,0,1,7.9,1.6V63.1a.9.9,0,0,0,.5.8.9.9,0,0,0,1,0c.1,0,9.8-5.8,18.4-8.7a1.1,1.1,0,0,0,.7-1V14a1.2,1.2,0,0,0-.4-.8.8.8,0,0,0-.9-.1A105.8,105.8,0,0,0,38.9,21a1,1,0,0,0-.3,1.4,1,1,0,0,0,1.3.3,98.3,98.3,0,0,1,14.2-7.3V53.5a117.4,117.4,0,0,0-16.7,7.9V23.8a1.1,1.1,0,0,0-.5-.9,23.2,23.2,0,0,0-9.3-2,63,63,0,0,0-16,2,1,1,0,0,0-.7.9V67a1.2,1.2,0,0,0,.4.8l.6.2h.3a55.7,55.7,0,0,1,15.4-2,21.6,21.6,0,0,1,7.9,1.6V70H11.9A3,3,0,0,1,9,67V28.7a1.1,1.1,0,0,0-1-1,1,1,0,0,0-1,1V67a4.9,4.9,0,0,0,4.9,4.9H61A4.9,4.9,0,0,0,65.9,67V28.7a1,1,0,0,0-1-1Zm0,0"/><path class="a" d="M40.5,35.1a1.1,1.1,0,0,0,.9.5h.4a77.1,77.1,0,0,1,8.7-3.9.9.9,0,0,0,.6-1.2,1,1,0,0,0-1.2-.7c-3,1-8.7,3.9-9,4a1,1,0,0,0-.4,1.4Zm0,0"/><path class="a" d="M40.5,46.8a1,1,0,0,0,.9.6h.4a77.1,77.1,0,0,1,8.7-3.9.9.9,0,0,0,.6-1.2.9.9,0,0,0-1.2-.7c-3,1-8.7,3.9-9,4a.9.9,0,0,0-.4,1.3Zm0,0"/><path class="a" d="M30.8,31.2c-6.1-1.4-13,.4-13.3.5a.9.9,0,0,0-.6,1.2,1,1,0,0,0,.9.7h.3s6.7-1.8,12.2-.5a.9.9,0,0,0,1.2-.7,1,1,0,0,0-.7-1.2Zm0,0"/><path class="a" d="M30.8,37.1c-6.1-1.4-13,.4-13.3.5a.9.9,0,0,0-.6,1.2,1,1,0,0,0,.9.7h.3s6.7-1.8,12.2-.5a.9.9,0,0,0,1.2-.7,1,1,0,0,0-.7-1.2Zm0,0"/><path class="a" d="M40.5,52.7a1,1,0,0,0,.9.6h.4a77.1,77.1,0,0,1,8.7-3.9.9.9,0,0,0,.6-1.2.9.9,0,0,0-1.2-.7c-3,1-8.7,3.9-9,4a.9.9,0,0,0-.4,1.3Zm0,0"/><path class="a" d="M30.8,43c-6.1-1.4-13,.4-13.3.5a.9.9,0,0,0-.6,1.2,1,1,0,0,0,.9.7h.3s6.7-1.8,12.2-.5a1,1,0,0,0,1.2-.7,1,1,0,0,0-.7-1.2Zm0,0"/><path class="a" d="M30.8,54.8c-6.1-1.4-13,.4-13.3.5a.9.9,0,0,0-.6,1.2,1,1,0,0,0,.9.7h.3a27.6,27.6,0,0,1,12.2-.5,1,1,0,1,0,.5-1.9Zm0,0"/><path class="a" d="M30.8,48.9c-6.1-1.4-13,.4-13.3.5a.9.9,0,0,0-.6,1.2,1,1,0,0,0,.9.7h.3a27.6,27.6,0,0,1,12.2-.5,1,1,0,0,0,1.2-.7,1,1,0,0,0-.7-1.2Zm0,0"/></svg>