<svg xmlns="http://www.w3.org/2000/svg" viewBox="0 0 78 77"><defs><style>.a{fill:#ff8080;}</style></defs><title>200415_OSH Portal_UI_WIP_icons</title><path class="a" d="M16.7,54.2h-.5a1.1,1.1,0,0,1-.5-1.2l3.6-13.5H14.7a1,1,0,0,1-.9-.6.9.9,0,0,1,.1-1L27.7,21a.9.9,0,0,1,1.3-.2.9.9,0,0,1,.5,1.1L25.8,35.4h4.7a1.1,1.1,0,0,1,.9.6.9.9,0,0,1-.2,1L17.4,53.8A1,1,0,0,1,16.7,54.2Zm.1-16.8h3.8a.9.9,0,0,1,.8.4,1.2,1.2,0,0,1,.2.8L18.8,49.1l9.6-11.7H24.6a.9.9,0,0,1-.8-.4.8.8,0,0,1-.2-.8l2.8-10.4Z"/><path class="a" d="M28.5,12.8H16.7a1,1,0,0,1-1-1v-4a1,1,0,0,1,1-1H28.5a1.1,1.1,0,0,1,1,1v4A1.1,1.1,0,0,1,28.5,12.8Zm-10.8-2h9.8v-2H17.7Z"/><path class="a" d="M33.6,66h-22a3.8,3.8,0,0,1-3.8-3.8V14.6a3.8,3.8,0,0,1,3.8-3.8h22a3.8,3.8,0,0,1,3.8,3.8V62.2A3.8,3.8,0,0,1,33.6,66Zm-22-53.2a1.8,1.8,0,0,0-1.8,1.8V62.2A1.8,1.8,0,0,0,11.6,64h22a1.8,1.8,0,0,0,1.8-1.8V14.6a1.8,1.8,0,0,0-1.8-1.8Z"/><path class="a" d="M50.2,18.7H46.3a1,1,0,0,1-1-1V9.8a3,3,0,1,1,5.9,0v7.9A1.1,1.1,0,0,1,50.2,18.7Zm-3-2h2V9.8a1,1,0,0,0-1-1,1.1,1.1,0,0,0-1,1Z"/><path class="a" d="M60.1,18.7h-4a1.1,1.1,0,0,1-1-1V9.8a3.1,3.1,0,0,1,3-3,3,3,0,0,1,2.9,3v7.9A1,1,0,0,1,60.1,18.7Zm-3-2h2V9.8a1.1,1.1,0,0,0-1-1,1,1,0,0,0-1,1Z"/><path class="a" d="M63,22.6H43.3a1,1,0,0,1-1-1V17.7a1,1,0,0,1,1-1H63a.9.9,0,0,1,1,1v3.9A.9.9,0,0,1,63,22.6Zm-18.7-2H62V18.7H44.3Z"/><path class="a" d="M58.1,34.4H48.2a3.8,3.8,0,0,1-3.9-3.9V21.6a1,1,0,0,1,1-1H61a1,1,0,0,1,1,1v8.9A3.8,3.8,0,0,1,58.1,34.4ZM46.3,22.6v7.9a1.9,1.9,0,0,0,1.9,2h9.9a2,2,0,0,0,2-2V22.6Z"/><path class="a" d="M53.2,38.4a2.9,2.9,0,0,1-3-3V33.5a.9.9,0,0,1,1-1h3.9a.9.9,0,0,1,1,1v1.9A2.9,2.9,0,0,1,53.2,38.4Zm-1-4v1a.9.9,0,0,0,1,1,.9.9,0,0,0,.9-1v-1Z"/><path class="a" d="M48.2,65a5.9,5.9,0,0,1-5.9-5.9V37.4a5.8,5.8,0,0,0-5.9-5.9,1,1,0,0,1,0-2,8,8,0,0,1,7.9,7.9V59.1A3.8,3.8,0,0,0,48.2,63a3.9,3.9,0,0,0,4-3.9V37.4a1,1,0,0,1,1-1,1,1,0,0,1,.9,1V59.1A5.8,5.8,0,0,1,48.2,65Z"/></svg>