<svg xmlns="http://www.w3.org/2000/svg" viewBox="0 0 71 77"><defs><style>.a{fill:#ff8080;fill-rule:evenodd;}</style></defs><title>200415_OSH Portal_UI_WIP_icons</title><path class="a" d="M59.8,30.8H20.5L58.2,19.9a1.1,1.1,0,0,0,.7-.6.9.9,0,0,0,.1-.9l-2-6.8A6.4,6.4,0,0,0,50.9,7a5.7,5.7,0,0,0-1.8.3L13.6,17.5a6.5,6.5,0,0,0-3.8,3.1,6.4,6.4,0,0,0-.5,4.9l1.9,6.6V59.6A6.4,6.4,0,0,0,17.6,66H31.4a1.2,1.2,0,0,0,1.2-1.2,1.1,1.1,0,0,0-1.2-1.1H17.6a4.1,4.1,0,0,1-4.1-4.1V43.9H58.6V59.6a4.1,4.1,0,0,1-4.1,4.1H40.7a1.1,1.1,0,0,0-1.2,1.1A1.2,1.2,0,0,0,40.7,66H54.5a6.4,6.4,0,0,0,6.4-6.4V32a1.1,1.1,0,0,0-1.1-1.2ZM39.5,41.6l4.8-8.5h6.4l-4.9,8.5Zm-9.1,0,4.9-8.5h6.4l-4.9,8.5Zm-9,0,4.9-8.5h6.4l-4.9,8.5Zm4.3-14.9-8.2-7.9L23.6,17c.1.1.1.2.2.2L32,25.1l-6.2,1.8v-.2ZM41.1,12.2l8.2,7.9-6.1,1.7H43l-8.2-7.9L41,12v.2Zm-8.7,2.5,8.2,7.9-6.1,1.7h-.2l-8.1-7.9,6.1-1.8v.2ZM49.7,9.5l1.2-.2a4.1,4.1,0,0,1,3.9,3L56.5,18l-4.7,1.3a.3.3,0,0,0-.1-.2l-8.2-7.8ZM11.8,21.7a4.1,4.1,0,0,1,2.5-2l.6-.2.2.2,8.2,7.9L13.1,30.5l-1.6-5.7a4.2,4.2,0,0,1,.3-3.1Zm1.7,11.4H23.6l-4.9,8.5H13.5Zm35,8.5,4.9-8.5h5.2v8.5Zm0,0"/><path class="a" d="M44,53.7a1.1,1.1,0,0,0-.6-1L33.3,46.8a1.1,1.1,0,0,0-1.1,0,1.1,1.1,0,0,0-.6,1V59.5a1.1,1.1,0,0,0,.6,1l.5.2.6-.2,10.1-5.8a1.1,1.1,0,0,0,.6-1ZM33.9,57.5V49.8l6.7,3.9Zm0,0"/><path class="a" d="M36.1,63.7a1.1,1.1,0,0,0-1.2,1.1A1.2,1.2,0,0,0,36.1,66a1.1,1.1,0,0,0,1.1-1.2,1.1,1.1,0,0,0-1.1-1.1Zm0,0"/></svg>