<svg xmlns="http://www.w3.org/2000/svg" viewBox="0 0 63 77"><defs><style>.a{fill:#ff8080;}</style></defs><title>200415_OSH Portal_UI_WIP_icons</title><path class="a" d="M31,45.4h.4a1,1,0,0,0,.8-.5v-.3a.8.8,0,0,0-1.5-.7l-.2.3A.8.8,0,0,0,31,45.4Z"/><path class="a" d="M18.3,51.8h.4a.8.8,0,0,0,.7-.5l.2-.3a.8.8,0,0,0-.4-1.1.9.9,0,0,0-1.2.4v.3A.8.8,0,0,0,18.3,51.8Z"/><path class="a" d="M21.1,38.8a.9.9,0,0,0-1.2,0,1.8,1.8,0,0,1-2.5,0A.8.8,0,1,0,16.2,40a3.9,3.9,0,0,0,2.5,1,3.7,3.7,0,0,0,2.4-1A.9.9,0,0,0,21.1,38.8Z"/><path class="a" d="M36.5,53.7a1.5,1.5,0,0,1-1.4-.6c-.3-.6-.6-2.1-1.1-6s-.9-7.6-1.4-8.3-4.3-2.4-6.8-2.8h-.6c-4.1-.6-8.3-1.6-11.5-4.4s-5.9-8.6-2.9-13.4c1.4-2,4.9-2.6,8.3-3.1s6.5-1,6.7-2.7C26,8.7,29.1,6.2,33.7,6c7.7-.4,16.8,5.8,19,18.2,1.8,10.3-5.5,20-8.6,24.2a13.8,13.8,0,0,0-1.3,1.8c-1.1,2-4.4,3.4-6.2,3.5Zm-.2-1.5c.8.2,4.3-1,5.1-2.7a11,11,0,0,1,1.5-2c3-4,10-13.4,8.4-23C49,11.5,39.6,7.2,33.7,7.5c-2.9.2-6.2,1.5-6.4,4.9s-4.2,3.5-8,4.1-6.2,1-7.2,2.5c-2.6,3.9-.7,8.7,2.5,11.4s7,3.4,10.9,4H26c2.7.5,6,1,7.8,3.5h0c.7.9,1.1,4.1,1.7,8.9C35.8,49,36.1,51.5,36.3,52.2Z"/><path class="a" d="M37.2,62.5,31,52.3V49.2a5.3,5.3,0,0,0-4.7-5,4.6,4.6,0,0,0-4.5,2.7h0a5.1,5.1,0,0,0,1.8,6.4l2.6,1.7,6.4,10.6a.7.7,0,0,0,.7.4h.4a.8.8,0,0,0,.3-1.1L27.8,54.8l1.1-.6,1-.6,5.8,9.7a.8.8,0,0,0,1.1.3A.8.8,0,0,0,37.2,62.5Zm-14-14.8h0a3,3,0,0,1,2.7-1.7h.2a3.4,3.4,0,0,1,3.1,3.3V52l-2.6,1.5L24.4,52A3.3,3.3,0,0,1,23.2,47.7Z"/><path class="a" d="M16.3,18.6a5.2,5.2,0,0,0-3,3,5.3,5.3,0,0,0,.5,4.2.9.9,0,0,0,.8.4h.3a.8.8,0,0,0,.4-1.1,3.4,3.4,0,0,1-.4-2.9,3.5,3.5,0,0,1,2.1-2,.8.8,0,0,0-.7-1.5Z"/><path class="a" d="M44.2,62.6c.3,0,1-.2,1.1-.4a.6.6,0,0,0,.1-.7,3.7,3.7,0,0,0-.7-1.4,4.1,4.1,0,0,1-.5-.9,16,16,0,0,1-1-2.3,38.9,38.9,0,0,1-.9-4.7,6.2,6.2,0,0,1-.2-2.4c0-.3-1.2-.1-1.4.8s-.2,0,0,1.8a26.6,26.6,0,0,0,1,4.9,13.3,13.3,0,0,0,1,2.4l.6,1.1h.1M24.9,64a1.7,1.7,0,0,0,.5-1.9,16.5,16.5,0,0,0-2.7-4.7l.7-.3h0a1.2,1.2,0,0,0,.7-1.5h0c0-.2-.2-.3-.4-.2a3.2,3.2,0,0,0-.9.3l-2.1.7h0c-2.2.8-4.5,1.5-6.8,2.1a1.4,1.4,0,0,1-1.6-1.1,2.2,2.2,0,0,1-.2-1.4,1.1,1.1,0,0,1,.1-.5,3.3,3.3,0,0,0,0-1.7,2.5,2.5,0,0,0-1.4-1.6h-.2l.3-.5a.8.8,0,0,0,.2-.6l-.3-.5-.8-.6a.4.4,0,0,1-.1-.3,5.9,5.9,0,0,0,.4-.8,2.8,2.8,0,0,0,.2-1.8,2.8,2.8,0,0,0-1.8-1.7l-.6-.4-.5-.4c0-.1.1-.4.7-1.1a35.8,35.8,0,0,0,3.6-5.9,2.3,2.3,0,0,0,.3-1.1,3.1,3.1,0,0,0-1.1-2c-.4-.3-.7-.5-.7-.8a4.3,4.3,0,0,1,.1-.5,9.3,9.3,0,0,1,.5-1,24.4,24.4,0,0,0,1.4-2.8c.2-.9-1.2-2.4-1.4-1.4s-1.2,2.9-1.5,3.5-.3.7-.4,1.1a3.1,3.1,0,0,0-.3,1.3A3.2,3.2,0,0,0,10,35.6a2.3,2.3,0,0,1,.7.8c-.1.1-.1.3-.2.4a32.2,32.2,0,0,1-3.4,5.6A3.3,3.3,0,0,0,6,44.7a2.6,2.6,0,0,0,1.2,1.5h0l.8.5a2.4,2.4,0,0,1,1,.6,1.9,1.9,0,0,1-.1.8,4.3,4.3,0,0,1-.4.7c-.3.5-.7,1.4,0,2l.7.5A1.7,1.7,0,0,0,9,52.5a1.2,1.2,0,0,0,.4.8l.6.3c.5.3.6.4.7.6a3.1,3.1,0,0,1-.1,1c0,.2-.1.4-.1.6a3.7,3.7,0,0,0,.3,2.1,2.9,2.9,0,0,0,2.8,2.2h.6a51.6,51.6,0,0,0,6.7-2c1.8,1.1,2.9,4.2,3.2,5.4a.8.8,0,0,0,.8.6ZM7.2,46.2"/></svg>