<svg xmlns="http://www.w3.org/2000/svg" viewBox="0 0 84 83"><defs><style>.a{fill:#ff8080;}</style></defs><title>200415_OSH Portal_UI_WIP_icons</title><path class="a" d="M66.9,23.7V18.3a4.7,4.7,0,0,0-4.8-4.8H23.8A4.7,4.7,0,0,0,19,18.3V39.4a4.8,4.8,0,0,0,4.3,4.7l3.6,9.4a4.8,4.8,0,0,0,6.2,2.7l22.5-8.6a13.8,13.8,0,0,0,1.2,12.3l.5.8V70a1,1,0,0,0,1,1H75.5a.9.9,0,0,0,1-1V38.4a12.2,12.2,0,0,0-3.7-8.8Zm0,5.7,2.9,7.5a2.8,2.8,0,0,1-1.6,3.7l-1.7.7a4.3,4.3,0,0,0,.4-1.9Zm-46,10V18.3a2.9,2.9,0,0,1,2.9-2.9H62.1A2.9,2.9,0,0,1,65,18.3v6.1h0v15a1.1,1.1,0,0,1-.1.5l-8.7-8.8a5.1,5.1,0,0,0-7.4,7.1l3.7,4H23.8a2.8,2.8,0,0,1-2.9-2.8Zm12.3,4.8-6.8,2.6-1-2.6Zm-.8,10.2a2.8,2.8,0,0,1-3.7-1.6l-1.6-4.2,11.4-4.4H54.3l1.2,1.3ZM74.6,69.1H59.2V61.4H74.6Zm0-9.6H58.8l-.4-.7a11.9,11.9,0,0,1-.2-12.2,1.1,1.1,0,0,0-.2-1.2l-7.8-8.5a3.3,3.3,0,0,1,.1-4.5,3.2,3.2,0,0,1,4.5.1L70.1,47.7l1.3-1.3-3.5-3.6,1-.4a4.8,4.8,0,0,0,2.7-6.2l-3.2-8.4,3.1,3.1a10.6,10.6,0,0,1,3.1,7.5Zm0,0"/><rect class="a" x="61.2" y="63.3" width="1.9" height="1.92"/><path class="a" d="M25.8,25h3.1a2.3,2.3,0,0,0,2.3-2.3v-3a2.3,2.3,0,0,0-2.3-2.3H25.8a2.3,2.3,0,0,0-2.3,2.3v3A2.3,2.3,0,0,0,25.8,25Zm0-6.1h3.1a.8.8,0,0,1,.8.8v.7h-.8a.8.8,0,0,0,0,1.6h.8v.7a.8.8,0,0,1-.8.8H25.8a.7.7,0,0,1-.7-.8V22h.7a.8.8,0,0,0,0-1.6h-.7v-.7a.7.7,0,0,1,.7-.8Zm0,0"/><path class="a" d="M24.3,35.8H35.8a.7.7,0,0,0,.8-.8.7.7,0,0,0-.8-.7H24.3a.8.8,0,0,0-.8.7.8.8,0,0,0,.8.8Zm0,0"/><path class="a" d="M24.3,38.9H39.7a.8.8,0,0,0,0-1.6H24.3a.8.8,0,1,0,0,1.6Zm0,0"/><path class="a" d="M58.5,25a.6.6,0,0,0,.6,0,1,1,0,0,0,.5-.4,9.2,9.2,0,0,0,.8-3.4,9.9,9.9,0,0,0-.8-3.4.9.9,0,0,0-1.1-.4.9.9,0,0,0-.3,1.1,7.1,7.1,0,0,1,.7,2.7,7.1,7.1,0,0,1-.7,2.7.9.9,0,0,0,.3,1.1Zm0,0"/><path class="a" d="M52.2,23.3l.5.2.6-.2a3.3,3.3,0,0,0,1-2.1,3.3,3.3,0,0,0-1-2.1.8.8,0,1,0-1.1,1.1,1.9,1.9,0,0,1,.5,1,1.9,1.9,0,0,1-.5,1,.8.8,0,0,0-.2.5,1.4,1.4,0,0,0,.2.6Zm0,0"/><path class="a" d="M24.3,29.7h4.6a.8.8,0,0,0,0-1.6H24.3a.8.8,0,1,0,0,1.6Zm0,0"/><path class="a" d="M33.5,29.7h4.6a.8.8,0,0,0,0-1.6H33.5a.8.8,0,0,0,0,1.6Zm0,0"/><path class="a" d="M42.8,29.7h4.6a.8.8,0,0,0,0-1.6H42.8a.8.8,0,1,0,0,1.6Zm0,0"/><path class="a" d="M56.4,18.4a.8.8,0,0,0-1.1,0,.7.7,0,0,0,0,1,2.9,2.9,0,0,1,.5,1.8,2.9,2.9,0,0,1-.5,1.8h0a.8.8,0,1,0,1.1,1.1,4.3,4.3,0,0,0,1-2.9,3.9,3.9,0,0,0-1-2.8Zm0,0"/></svg>