<svg xmlns="http://www.w3.org/2000/svg" viewBox="0 0 91 79"><defs><style>.a{fill:#ff8080;}</style></defs><title>200415_OSH Portal_UI_WIP_icons</title><path class="a" d="M49.5,71.1h-1V68.2h-2v4.9H22.9V23.9H27a3.9,3.9,0,0,0,3.8,3h7.8a4.1,4.1,0,0,0,3.9-3h4v4.9h2V25.9h1v2.9h1.9V22a2.9,2.9,0,0,0-2.9-3H21a2.9,2.9,0,0,0-3,3V75a2.9,2.9,0,0,0,3,3H48.5a2.9,2.9,0,0,0,2.9-3V68.2H49.5ZM21,21H48.5a1,1,0,0,1,1,1v1.9h-1v-1a1,1,0,0,0-1-.9H41.6a1,1,0,0,0-1,.9,2,2,0,0,1-2,2H30.8a2,2,0,0,1-2-2,.9.9,0,0,0-1-.9H21.9a.9.9,0,0,0-.9.9v1H20V22a.9.9,0,0,1,1-1Zm0,50.1H20V25.9h1ZM48.5,76H21a.9.9,0,0,1-1-1V73.1h1v1a.9.9,0,0,0,.9.9H47.5a1,1,0,0,0,1-.9v-1h1V75a1,1,0,0,1-1,1Zm0,0"/><rect class="a" x="32.8" y="22" width="3.9" height="1.97"/><path class="a" d="M39.6,22.9a.9.9,0,0,1-1,1,.9.9,0,0,1-.9-1,.9.9,0,0,1,.9-.9.9.9,0,0,1,1,.9Zm0,0"/><path class="a" d="M34.7,57.4v1.9a6.9,6.9,0,1,0,0-13.8v2a4.9,4.9,0,0,1,4.9,4.9,5,5,0,0,1-4.9,5Zm0,0"/><path class="a" d="M57.3,52.4a2.9,2.9,0,0,0-1.8-2.7,2.9,2.9,0,0,0-3.8,3.9,2.8,2.8,0,0,0,2.7,1.8,2.9,2.9,0,0,0,2.9-3Zm-3.9,0a1,1,0,0,1,.6-.9,1.4,1.4,0,0,1,1.1.2,1.1,1.1,0,0,1,.2,1.1,1,1,0,0,1-.9.6.9.9,0,0,1-1-1Zm0,0"/><path class="a" d="M76,30.8H34.7v2H75v1.9H34.7v2H75V52.4H69.1V39.6a.9.9,0,0,0-1-.9H34.7v1.9H67.2v2H34.7v2H67.2V56.4H60.3a.9.9,0,0,0-1,1v2.9H34.7v2H59.3v1.9H34.7v2H60.3a1.1,1.1,0,0,0,.7-.3l7.6-7.6H76a.9.9,0,0,0,1-.9V31.8a.9.9,0,0,0-1-1ZM65.8,58.3l-4.5,4.5V58.3Zm3.3-1.9v-2H75v2Zm0,0"/></svg>