<svg xmlns="http://www.w3.org/2000/svg" viewBox="0 0 88 84"><defs><style>.a{fill:#ff8080;}</style></defs><title>200415_OSH Portal_UI_WIP_icons</title><path class="a" d="M53.1,39.3a12.3,12.3,0,0,0-.3-5.4h0l-.7-2.1A4.4,4.4,0,0,0,46.4,29a4.6,4.6,0,0,0-2.8,2.8L43,33.9a11,11,0,0,0-.4,5.4,5,5,0,0,0,2.7,3.5l-.7,15.8a3.2,3.2,0,0,0,.7,2.5,3.5,3.5,0,0,0,4.9.2c.1-.1.1-.2.2-.2a3.1,3.1,0,0,0,.8-2.4l-.7-15.9A4.9,4.9,0,0,0,53.1,39.3ZM51.2,39a3.2,3.2,0,0,1-2.1,2.3,1,1,0,0,0-.6,1l.7,16.6a.9.9,0,0,1-.3.9,1.7,1.7,0,0,1-2.1,0,1.9,1.9,0,0,1-.3-1l.8-16.5a1.1,1.1,0,0,0-.7-1,3.3,3.3,0,0,1-2-2.3,8.6,8.6,0,0,1,.3-4.5l.6-2.1a2.6,2.6,0,0,1,3.3-1.5,2.5,2.5,0,0,1,1.5,1.5l.6,2.1h0A11.3,11.3,0,0,1,51.2,39Z"/><path class="a" d="M38.2,39.3a1.1,1.1,0,0,0,.3-.7V29.7a.9.9,0,0,0-1-.9.9.9,0,0,0-.9.9v8.5l-2.7,2.6a1.1,1.1,0,0,0-.3.8l.9,17.2a1.3,1.3,0,0,1-.4,1,1.5,1.5,0,0,1-2,0h0a1.2,1.2,0,0,1-.3-1l.8-17.2a1.1,1.1,0,0,0-.3-.8l-2.6-2.6V29.7a1,1,0,0,0-2,0v8.9a1.1,1.1,0,0,0,.3.7l2.6,2.6-.8,16.8A3.3,3.3,0,0,0,33,62.2,3.2,3.2,0,0,0,36.4,59v-.3l-.8-16.8Z"/><path class="a" d="M31.6,38.6a1,1,0,0,0,1-1V29.7a.9.9,0,0,0-1-.9.9.9,0,0,0-.9.9v7.9A1,1,0,0,0,31.6,38.6Z"/><path class="a" d="M33.6,29.7v7.9a1,1,0,0,0,2,0V29.7a1,1,0,0,0-2,0Z"/><path class="a" d="M40.5,14A29.5,29.5,0,1,0,70,43.5,29.5,29.5,0,0,0,40.5,14Zm0,57A27.5,27.5,0,1,1,68,43.5,27.5,27.5,0,0,1,40.5,71Z"/><path class="a" d="M42.6,61.1a29.4,29.4,0,0,1-4.2,0,1,1,0,0,0-1.1.8c0,.6.3,1.1.9,1.1a17.7,17.7,0,0,0,4.6,0,1,1,0,0,0,.9-1,.9.9,0,0,0-1.1-.9Z"/><path class="a" d="M54.2,30.7a1,1,0,0,0-.2,1.4A17.6,17.6,0,0,1,53,56a1,1,0,0,0,1.4,1.4,19.7,19.7,0,0,0,1.1-26.6.9.9,0,0,0-1.3-.1Z"/><path class="a" d="M33.9,27h.4a18.4,18.4,0,0,1,10.4-.6,1.1,1.1,0,0,0,1.2-.7,1,1,0,0,0-.8-1.2,19.7,19.7,0,0,0-11.5.7,1,1,0,0,0-.6,1.3,1,1,0,0,0,.9.6Z"/><path class="a" d="M22.8,43.5a17.7,17.7,0,0,1,3.4-10.4,1,1,0,0,0-1.6-1.2h0a19.6,19.6,0,0,0,2,25.5,1,1,0,0,0,1.4,0A1.2,1.2,0,0,0,28,56h0A17.3,17.3,0,0,1,22.8,43.5Z"/></svg>