<svg xmlns="http://www.w3.org/2000/svg" viewBox="0 0 85 95"><defs><style>.a{fill:#ff8080;}</style></defs><title>200415_OSH Portal_UI_WIP_icons</title><path class="a" d="M35.6,50.4a5.9,5.9,0,0,0-2.3,11.3l.7-1.8a4,4,0,0,1-2-5.2,3.9,3.9,0,0,1,3.6-2.3,4.1,4.1,0,0,1,1.6.3,1,1,0,0,0,1.3-.5c0-.1.1-.3.1-.4V44.6h5a2.8,2.8,0,0,0-.1.9,5.8,5.8,0,0,0,4.7,5.8l.4-1.9a4,4,0,0,1-3.1-3.9,2.7,2.7,0,0,1,.3-1.5,1,1,0,0,0-.5-1.3H38.6v-5h.9a6,6,0,0,0,6-5.9,5.9,5.9,0,0,0-6-5.9h-.9V21H55.3a4.9,4.9,0,0,1,4.9,4.9V42.6H53.9a.9.9,0,0,0-1,1,.6.6,0,0,0,.1.4,4,4,0,0,1,.3,1.5h2a2.8,2.8,0,0,0-.1-.9h6a1.1,1.1,0,0,0,1-1V25.9A6.9,6.9,0,0,0,55.3,19H19.9A6.9,6.9,0,0,0,13,25.9V61.2a6.9,6.9,0,0,0,6.9,6.9H30.7v-2H19.9A4.9,4.9,0,0,1,15,61.2V44.6h6.3a1.2,1.2,0,0,0,1-1.2c0-.1-.1-.2-.1-.3a3.9,3.9,0,0,1,2-5.2,4,4,0,0,1,5.2,2,4.4,4.4,0,0,1,0,3.2,1.1,1.1,0,0,0,.5,1.4h6.7v5.9ZM19.9,21H36.6v6.3a1,1,0,0,0,1,1H38a2.7,2.7,0,0,1,1.5-.3,3.9,3.9,0,1,1,0,7.8,4,4,0,0,1-1.5-.3,1,1,0,0,0-1.3.5c-.1.1-.1.2-.1.4v6.2h-5a2.8,2.8,0,0,0,.1-.9h0a6,6,0,0,0-5.9-5.9,5.9,5.9,0,0,0-5.9,5.9h0a2.8,2.8,0,0,0,.1.9H15V25.9A4.9,4.9,0,0,1,19.9,21Z"/><path class="a" d="M69.9,61.3l-8.3-5.7-3.1-8.5a1,1,0,0,0-1.3-.6h-.1l-6.4,2.9a1,1,0,0,0-.5,1.2l.3.7.4.7a4,4,0,0,1-2.3,5.1,3.9,3.9,0,0,1-5.1-2.3,2.9,2.9,0,0,1-.2-1.6,1,1,0,0,0-1-1h-.4l-6.8,2.5a1,1,0,0,0-.6,1.3L37,62.7l-1,.2a6.1,6.1,0,0,0-3.5,7.6A6,6,0,0,0,40.1,74l1-.4,1.7,4.7a1,1,0,0,0,1.3.5h0l9.7-3.6a5.2,5.2,0,0,0,3.1,2.7l.7-1.8a3.4,3.4,0,0,1-1.9-1.6l2.9-1.1a6.9,6.9,0,0,0,6.5,4.5V76a5.1,5.1,0,0,1-4.9-5,1.1,1.1,0,0,0-.3-.7l-3.4-3.4a1.4,1.4,0,0,1-.1-1.9,1.7,1.7,0,0,1,1-.6,1.6,1.6,0,0,1,1.1.5l6.9,6.8,1.4-1.4-2-2a7.2,7.2,0,0,0-.1-4.6l-1.9-4.9,6,4.1A2.7,2.7,0,0,1,70,65.3V78h2V65.3A4.9,4.9,0,0,0,69.9,61.3Zm-6.8,5.4-3.2-3.2A3.4,3.4,0,1,0,55,68.2h.1l3.1,3.1L44.3,76.7l-1.9-5.1a.9.9,0,0,0-.7-.6h-.2a1.1,1.1,0,0,0-.7.3,3.9,3.9,0,0,1-5.4-5.7,2.6,2.6,0,0,1,1.3-.8,3.8,3.8,0,0,1,1-.3h.6a1,1,0,0,0,1-.9v-.4l-2.6-6.9,4.7-1.7a5.8,5.8,0,0,0,6.9,4.6l1-.2a6,6,0,0,0,3.4-7.6,3.9,3.9,0,0,1-.2-.6l4.5-2,5.8,15.6A4.5,4.5,0,0,1,63.1,66.7Z"/></svg>