<svg xmlns="http://www.w3.org/2000/svg" viewBox="0 0 96 90"><defs><style>.a{fill:#ff8080;}</style></defs><title>200415_OSH Portal_UI_WIP_icons</title><path class="a" d="M75.5,26H67.6a1.2,1.2,0,0,0-1.2,1.1,1.2,1.2,0,0,0,1.2,1.2h7.9a1.1,1.1,0,0,1,1.2,1.1V46l-1.2-.2-1.1.2V44a3.5,3.5,0,0,0-3.5-3.5l-1.1.2V40a4.3,4.3,0,0,0-.2-1.1h2.9a1.2,1.2,0,0,0,1.2-1.2v-5a1.2,1.2,0,0,0-1.2-1.2H67a1.1,1.1,0,0,0-1.1,1.2v3.9A3.3,3.3,0,0,0,63.5,38a.4.4,0,0,0,.1-.3v-5a1.2,1.2,0,0,0-1.2-1.2H56.9a1.2,1.2,0,0,0-1.2,1.2v5a1.2,1.2,0,0,0,1.2,1.2h5.5a.9.9,0,0,0,.7-.3,3.5,3.5,0,0,0-.3,1.4v.7l-1.1-.2a3.7,3.7,0,0,0-2.6,1.2H52.3a1.1,1.1,0,0,0-1.2,1.1v5.1A1.1,1.1,0,0,0,52.3,49h5.9v3.3H40.8V49h5.9a1.1,1.1,0,0,0,1.2-1.1V42.8a1.1,1.1,0,0,0-1.2-1.1H39.9a3.7,3.7,0,0,0-2.6-1.2l-1.1.2V40a3.5,3.5,0,0,0-.3-1.4.9.9,0,0,0,.7.3h5.5a1.2,1.2,0,0,0,1.2-1.2v-5a1.2,1.2,0,0,0-1.2-1.2H36.6a1.2,1.2,0,0,0-1.2,1.2v5a.4.4,0,0,0,.1.3,3.3,3.3,0,0,0-2.4-1.4V32.7A1.1,1.1,0,0,0,32,31.5H26.5a1.2,1.2,0,0,0-1.2,1.2v5a1.2,1.2,0,0,0,1.2,1.2h2.9a4.3,4.3,0,0,0-.2,1.1v.7l-1.1-.2A3.5,3.5,0,0,0,24.6,44v2l-1.1-.2-1.2.2V29.4a1.1,1.1,0,0,1,1.2-1.1H57.2a1.2,1.2,0,0,0,1.2-1.2A1.1,1.1,0,0,0,57.2,26H50.7V24.8a4.4,4.4,0,0,0-4.4-4.3H41.4a2.1,2.1,0,0,1-2-2.1,2,2,0,0,1,2-2.1h8.1a1.2,1.2,0,0,0,1.2-1.1A1.2,1.2,0,0,0,49.5,14H41.4a4.4,4.4,0,0,0,0,8.8h4.9a2,2,0,0,1,2,2V26H23.5A3.5,3.5,0,0,0,20,29.4v34a9.7,9.7,0,0,0,2.8,6.8l2.5,2.5a1.2,1.2,0,0,0,1.6,0,1.2,1.2,0,0,0,0-1.7l-2.5-2.5a7.4,7.4,0,0,1-2.1-5.1V49.2a1.1,1.1,0,0,1,1.2-1.1,1.1,1.1,0,0,1,1.1,1.1v7.2a1.1,1.1,0,0,0,1.2,1.1,1.1,1.1,0,0,0,1.1-1.1V44a1.2,1.2,0,0,1,1.2-1.2A1.2,1.2,0,0,1,29.2,44V56.4a1.2,1.2,0,0,0,1.2,1.1,1.1,1.1,0,0,0,1.1-1.1V40a1.2,1.2,0,0,1,2.4,0V56.4A1.1,1.1,0,0,0,35,57.5a1.2,1.2,0,0,0,1.2-1.1V44a1.2,1.2,0,0,1,1.1-1.2A1.2,1.2,0,0,1,38.5,44V61.6a1.2,1.2,0,0,0,1,1.2,1.3,1.3,0,0,0,1.3-.9L42,56.6a1.3,1.3,0,0,1,1.4-.9,1.1,1.1,0,0,1,.8.5,1,1,0,0,1,.2.9L43,64.2a6.8,6.8,0,0,1-2,3.7L37.9,71a1.4,1.4,0,0,0,0,1.7,1.2,1.2,0,0,0,1.6,0l3.2-3.2a9.7,9.7,0,0,0,2.6-4.9l1.4-7a3.2,3.2,0,0,0-.6-2.7l-.3-.3h7.4l-.3.3a3.2,3.2,0,0,0-.6,2.7l1.4,7a9.7,9.7,0,0,0,2.6,4.9l3.2,3.2a1.2,1.2,0,0,0,1.6,0,1.4,1.4,0,0,0,0-1.7L58,67.9a6.8,6.8,0,0,1-2-3.7l-1.4-7.1a1,1,0,0,1,.2-.9,1.1,1.1,0,0,1,.8-.5,1.3,1.3,0,0,1,1.4.9l1.2,5.3a1.3,1.3,0,0,0,1.3.9,1.2,1.2,0,0,0,1-1.2V44a1.2,1.2,0,0,1,1.2-1.2A1.2,1.2,0,0,1,62.8,44V56.4A1.2,1.2,0,0,0,64,57.5a1.1,1.1,0,0,0,1.1-1.1V40a1.2,1.2,0,0,1,2.4,0V56.4a1.1,1.1,0,0,0,1.1,1.1,1.2,1.2,0,0,0,1.2-1.1V44a1.2,1.2,0,0,1,1.1-1.2A1.2,1.2,0,0,1,72.1,44V56.4a1.1,1.1,0,0,0,1.1,1.1,1.1,1.1,0,0,0,1.2-1.1V49.2a1.1,1.1,0,0,1,1.1-1.1,1.1,1.1,0,0,1,1.2,1.1V63.4a7.4,7.4,0,0,1-2.1,5.1L72.1,71a1.2,1.2,0,0,0,0,1.7,1.2,1.2,0,0,0,1.6,0l2.5-2.5A9.7,9.7,0,0,0,79,63.4v-34A3.5,3.5,0,0,0,75.5,26ZM61.3,36.6H58V33.8h3.3ZM37.7,33.8H41v2.8H37.7Zm-10.1,0h3.2v2.8H27.6ZM53.4,46.7V44h4.8v2.7ZM40.8,44h4.8v2.7H40.8ZM68.2,33.8h3.2v2.8H68.2Zm0,0"/><path class="a" d="M62.4,28.3a1.1,1.1,0,0,0,.8-.3,1.8,1.8,0,0,0,.4-.9,1.2,1.2,0,0,0-.4-.8,1.1,1.1,0,0,0-1.9.8,1.6,1.6,0,0,0,.3.9,1.1,1.1,0,0,0,.8.3Zm0,0"/></svg>