<svg xmlns="http://www.w3.org/2000/svg" viewBox="0 0 69 90"><defs><style>.a{fill:#ff8080;}</style></defs><title>200415_OSH Portal_UI_WIP_icons</title><path class="a" d="M38.4,30.9H31.5a1.1,1.1,0,0,0-1.1,1.2v5.7H24.6A1.1,1.1,0,0,0,23.5,39v6.9A1.1,1.1,0,0,0,24.6,47h5.8v5.8a1.1,1.1,0,0,0,1.1,1.1h6.9a1.1,1.1,0,0,0,1.2-1.1V47h5.7a1.1,1.1,0,0,0,1.2-1.1V39a1.2,1.2,0,0,0-1.2-1.2H39.6V32.1A1.2,1.2,0,0,0,38.4,30.9Zm5.8,9.2v4.6H38.4a1.1,1.1,0,0,0-1.1,1.2v5.7H32.7V45.9a1.2,1.2,0,0,0-1.2-1.2H25.8V40.1h5.7A1.1,1.1,0,0,0,32.7,39V33.2h4.6V39a1.1,1.1,0,0,0,1.1,1.1Z"/><path class="a" d="M58,20.6a3.4,3.4,0,0,0-5.2-2.9,11.8,11.8,0,0,1-6.3,1.8,11.5,11.5,0,0,1-8.8-4.1h0a3.5,3.5,0,0,0-5.4,0,11.5,11.5,0,0,1-8.8,4.1,11.8,11.8,0,0,1-6.3-1.8A3.4,3.4,0,0,0,12,20.6V44a24.1,24.1,0,0,0,4.7,14.4A49,49,0,0,0,34.5,72.9h1A49,49,0,0,0,53.3,58.4,24.1,24.1,0,0,0,58,44ZM55.7,44a21.2,21.2,0,0,1-4.3,13A48.2,48.2,0,0,1,35,70.6,47.8,47.8,0,0,1,18.5,57a21.7,21.7,0,0,1-4.2-13V20.6a1.1,1.1,0,0,1,1.7-1,13.9,13.9,0,0,0,18.1-2.7,1.1,1.1,0,0,1,1.8,0A13.9,13.9,0,0,0,54,19.6a1.1,1.1,0,0,1,1.7,1V44Z"/></svg>