<svg xmlns="http://www.w3.org/2000/svg" viewBox="0 0 87 90"><defs><style>.a{fill:#ff8080;}</style></defs><title>200415_OSH Portal_UI_WIP_icons</title><path class="a" d="M18,73h4.9a2.9,2.9,0,0,0,2.2-1H49.9A8.1,8.1,0,0,0,54,70.9L72.6,59.6a4.3,4.3,0,0,0,1.7-2.4,3.7,3.7,0,0,0-.6-2.9h-.1a3.7,3.7,0,0,0-4.1-1.3l-7,2.3V34.4h1.3A1.9,1.9,0,0,0,65.1,31l-2.6-2.3V17.6a1.9,1.9,0,0,0-2-1.9H55.6a1.9,1.9,0,0,0-2,1.9V21L46,14.5a1.9,1.9,0,0,0-2.6,0L24.3,31a2,2,0,0,0-.6,2.2,2.1,2.1,0,0,0,1.9,1.2h1.3V48.3H25.7a2.9,2.9,0,0,0-2.8-2H18a2.9,2.9,0,0,0-3,3V70a2.9,2.9,0,0,0,3,3ZM70.1,54.8a1.9,1.9,0,0,1,1.9.5h0a1.6,1.6,0,0,1,.3,1.3,2,2,0,0,1-.8,1.2L53,69.2a6.5,6.5,0,0,1-3.1.8h-24V50.3h1.8a8.2,8.2,0,0,1,5,1.7,10.2,10.2,0,0,0,6.2,2.2h5.2a3.9,3.9,0,0,1,3.4,1.9h0a2.7,2.7,0,0,1,0,3H41.4a10,10,0,0,0-5.5,1.6l-.7.5a1.1,1.1,0,0,0-.2,1.4.9.9,0,0,0,1.3.2l.7-.4a7.9,7.9,0,0,1,4.4-1.4h8.8l1.6-.2ZM51.6,58.9h-.4l-1,.2h-.5a5,5,0,0,0-.4-4c-.1,0-.1,0-.1-.1a6,6,0,0,0-5.1-2.9H37.8V50.3a6.9,6.9,0,1,1,13.8,0Zm4-41.3h4.9V27l-4.9-4.2ZM30.8,34.4a.9.9,0,0,0,1-.9.9.9,0,0,0-1-1H25.6L44.7,16l9.2,7.9,9.9,8.6H50.6a1,1,0,0,0-1,1,1,1,0,0,0,1,.9h9.9V55.9l-6.9,2.3V50.3a8.9,8.9,0,0,0-17.8,0v1.3a11.8,11.8,0,0,1-1.9-1.1,9.3,9.3,0,0,0-5-2.1v-14ZM17,49.3a.9.9,0,0,1,1-1h4.9a.9.9,0,0,1,1,1V70a.9.9,0,0,1-1,1H18a.9.9,0,0,1-1-1Zm0,0"/></svg>