<svg xmlns="http://www.w3.org/2000/svg" viewBox="0 0 72 90"><defs><style>.a{fill:#ff8080;}</style></defs><title>200415_OSH Portal_UI_WIP_icons</title><path class="a" d="M31.9,47.5l.2.2a16.5,16.5,0,0,0,11.2,4.4,16.1,16.1,0,0,0,11-4.3c.1-.1.3-.2.4-.4a16.5,16.5,0,0,0,4.9-11.7A16.4,16.4,0,1,0,31.9,47.5ZM34,46.3a6.5,6.5,0,0,1,6.4-5.2h1.7v4.3a1.2,1.2,0,0,0,1.2,1.2,1.1,1.1,0,0,0,1.1-1.2V41.1h1.7a6.5,6.5,0,0,1,6.4,5.2,14,14,0,0,1-18.5,0Zm5.8-11.8h1.1A6.4,6.4,0,0,0,45,32.9L46.7,34v1.3a3.5,3.5,0,1,1-6.9,0Zm6.9-3.2-1.3-.8a1.2,1.2,0,0,0-1.5.2,3.7,3.7,0,0,1-3,1.4H39.8V31a3.5,3.5,0,0,1,6.9,0Zm-3.4-9.6a14,14,0,0,1,14,14,13.9,13.9,0,0,1-3,8.7,9,9,0,0,0-6.6-5.5A5.7,5.7,0,0,0,49,35.3V31a5.8,5.8,0,0,0-11.5,0v4.3a5.7,5.7,0,0,0,1.3,3.6,9,9,0,0,0-6.6,5.5,13.9,13.9,0,0,1-3-8.7,14.1,14.1,0,0,1,14.1-14Zm0,0"/><path class="a" d="M53.9,19.6a19.3,19.3,0,0,1,4.9,4.6,20.1,20.1,0,0,1,3.6,8.5,19.8,19.8,0,0,1-8.7,19.7,19.2,19.2,0,0,1-6.6,2.7,19.6,19.6,0,0,1-17.9-5.4l-.7-.8c-6.8-7.6-6.1-19.3,1.1-26.5h.1A19.2,19.2,0,0,1,53.9,19.6ZM21.2,37a4.9,4.9,0,0,1,.1,1.2A22.9,22.9,0,0,0,24,46.7l-4.7,4.6L7.9,62.8A6.6,6.6,0,0,0,6,66.6a6.4,6.4,0,0,0,1.7,4.7A6.2,6.2,0,0,0,12.4,73a6.9,6.9,0,0,0,3.8-1.9L27.6,59.6h0L32.3,55a22.6,22.6,0,0,0,10.8,2.8h0A21.5,21.5,0,0,0,58.9,51a22,22,0,0,0,6-15.8,20.9,20.9,0,0,0-6.4-14.7,21.1,21.1,0,0,0-13.1-6.3H44.2C33.4,13,20.2,23.2,21.2,37ZM14.4,69.6a3.6,3.6,0,0,1-2.5,1.1,3.6,3.6,0,0,1-2.6-1.1,3.7,3.7,0,0,1,0-5L20.2,53.8l5,5ZM26.8,57.2l-5-5,3.5-3.6a31.1,31.1,0,0,0,2.3,2.8l2.7,2.3Zm0,0"/></svg>