<svg xmlns="http://www.w3.org/2000/svg" viewBox="0 0 48 58.5"><defs><style>.a{fill:#ff8080;}</style></defs><title>200415_OSH Portal_UI_WIP_icons</title><path class="a" d="M46.9,6.9a5.8,5.8,0,0,1-5.8-5.8A1.1,1.1,0,0,0,40,0H8A1.1,1.1,0,0,0,6.9,1.1,5.8,5.8,0,0,1,1.1,6.9,1.1,1.1,0,0,0,0,8V26.7A33.3,33.3,0,0,0,23.7,58.5h.6A33.3,33.3,0,0,0,48,26.7V8A1.1,1.1,0,0,0,46.9,6.9ZM45.7,26.7A30.8,30.8,0,0,1,24,56.2,30.9,30.9,0,0,1,2.3,26.7V9.1A8.1,8.1,0,0,0,9.1,2.3H38.9a8.1,8.1,0,0,0,6.8,6.8Z"/><path class="a" d="M24.1,53.9h-.8A29.6,29.6,0,0,1,9.4,43.3,29.2,29.2,0,0,1,4.2,26.6V12a2.2,2.2,0,0,1,1.3-2,8.6,8.6,0,0,0,4.6-4.6,2.1,2.1,0,0,1,2-1.3H36a2.1,2.1,0,0,1,2,1.3A8.6,8.6,0,0,0,42.6,10a2.2,2.2,0,0,1,1.3,2V26.6a29.2,29.2,0,0,1-5.2,16.7A29.6,29.6,0,0,1,24.8,53.8ZM12.1,6.3h0A11.3,11.3,0,0,1,6.4,12h0V26.6A26.4,26.4,0,0,0,24,51.7,26.3,26.3,0,0,0,41.7,26.6V12h0A11.3,11.3,0,0,1,36,6.3H12.1Z"/><path class="a" d="M13.7,27A10.3,10.3,0,1,0,24,16.7,10.3,10.3,0,0,0,13.7,27ZM32,27a8,8,0,1,1-8-8A8,8,0,0,1,32,27Z"/><path class="a" d="M21.4,27.3a1.2,1.2,0,0,0-1.6,0,1,1,0,0,0,0,1.6L22,31.2l.9.3.8-.3,5.7-5.7a1.2,1.2,0,0,0,0-1.6,1,1,0,0,0-1.6,0l-4.9,4.9Z"/></svg>