<svg xmlns="http://www.w3.org/2000/svg" viewBox="0 0 79 77"><defs><style>.a{fill:#ff8080;}</style></defs><title>200415_OSH Portal_UI_WIP_icons</title><path class="a" d="M14.5,46.2l1,.6a4.1,4.1,0,0,1,1.2.8,1.7,1.7,0,0,1-.1,1,5.9,5.9,0,0,0-.4.8c-.4.6-1,1.7-.1,2.4l.9.7a3.2,3.2,0,0,0-.3,1.4,2.1,2.1,0,0,0,.6,1l.6.4c.6.3.8.5.9.8a2.2,2.2,0,0,1-.1,1.1c0,.3-.1.5-.1.8a5.7,5.7,0,0,0,.3,2.6,3.5,3.5,0,0,0,3.4,2.6h.8a59.1,59.1,0,0,0,8.2-2.4c2.1,1.2,3.5,5.1,3.9,6.6a1,1,0,0,0,.9.7H60.4a1.2,1.2,0,0,0,.8-.4,1,1,0,0,0,.1-.9,8.1,8.1,0,0,0-1-1.8l-.6-1A23.3,23.3,0,0,1,58.6,61a38.6,38.6,0,0,1-1.2-5.7,16.6,16.6,0,0,1,1.3-8.5,22.6,22.6,0,0,1,2.6-4.2A20.7,20.7,0,0,0,63,40.2a13.1,13.1,0,0,0,2-4.7,1.1,1.1,0,0,0-.7-1.2,1,1,0,0,0-1.2.8,13.2,13.2,0,0,1-1.7,4.1l-1.6,2.3A21.6,21.6,0,0,0,56.9,46a18.3,18.3,0,0,0-1.4,9.5,41.3,41.3,0,0,0,1.3,6.1,18.8,18.8,0,0,0,1.2,3,5.4,5.4,0,0,0,.7,1.3H36.9a16.6,16.6,0,0,0-3.5-6.2l.9-.3,1.4-.5c4.1-1.3,6.2-3.2,6.1-5.6a1.1,1.1,0,0,0-.3-.7l-.6-.2a.9.9,0,0,0-1,1c0,1-.8,2.4-4.8,3.7l-1.4.5-2.7.9h0a60.9,60.9,0,0,1-8.3,2.5,1.8,1.8,0,0,1-2-1.2,3.7,3.7,0,0,1-.2-1.8,4.3,4.3,0,0,0,.1-.5,5,5,0,0,0,.1-2.1,3.2,3.2,0,0,0-1.8-2h-.2a2.1,2.1,0,0,1,.4-.6,1.9,1.9,0,0,0,.2-.7,1.6,1.6,0,0,0-.4-.7l-1.2-.9a.4.4,0,0,0,.1-.3,1.9,1.9,0,0,0,.5-.9,4.1,4.1,0,0,0,.3-2.2c-.2-1.1-1.4-1.7-2.2-2.1l-.8-.5-.6-.5a4.6,4.6,0,0,1,.9-1.4,37.5,37.5,0,0,0,4.4-7.2,2.8,2.8,0,0,0,.4-1.3,3.5,3.5,0,0,0-1.4-2.4c-.4-.3-.8-.7-.8-1a1.3,1.3,0,0,1,.1-.6,11.2,11.2,0,0,0,.5-1.3,11.7,11.7,0,0,0,1-2.6,19.2,19.2,0,0,1,.9-3.2,16.6,16.6,0,0,1,3.4-5.7c1.9-1.9,4.8-3.3,8.7-4.1a54.2,54.2,0,0,1,9-1.3h3.1a.8.8,0,0,0,.9-.4,1,1,0,0,0,.1-.9.9.9,0,0,0-.8-.6H42a74.6,74.6,0,0,0-9.3,1.4c-4.4.9-7.5,2.4-9.7,4.7a19.6,19.6,0,0,0-3.9,6.3,25.8,25.8,0,0,0-.9,3.5,14.3,14.3,0,0,1-.8,2.2l-.6,1.4a4.5,4.5,0,0,0-.3,1.6A4.2,4.2,0,0,0,18,33.3c.4.4.8.7.8,1s-.1.2-.2.4a48.9,48.9,0,0,1-4.2,6.9,4.1,4.1,0,0,0-1.3,2.8,2.8,2.8,0,0,0,1.4,1.8Zm0,0"/><path class="a" d="M24.6,24.4a13.4,13.4,0,0,1,2.6-4.3q1.9-2.1,6.6-3a1,1,0,0,0,.8-1.2.9.9,0,0,0-1.1-.7c-3.5.7-6.1,1.9-7.7,3.6a13.4,13.4,0,0,0-3,5,13.8,13.8,0,0,0-.8,2.9l1.9.4a26.8,26.8,0,0,1,.7-2.7Zm0,0"/><path class="a" d="M44.8,15.4l-.6,2.9-1.6.7-2.5-1.6a2,2,0,0,0-2.4.2l-1.6,1.6a2,2,0,0,0-.3,2.5l1.7,2.4a11.1,11.1,0,0,0-.7,1.6l-2.9.6a1.9,1.9,0,0,0-1.5,1.9v2.3a1.9,1.9,0,0,0,1.5,1.9l2.9.6a11.1,11.1,0,0,0,.7,1.6l-1.6,2.5a2,2,0,0,0,.2,2.4l1.6,1.6a2.1,2.1,0,0,0,2.5.2l2.4-1.6,1.7.7.5,2.8a1.9,1.9,0,0,0,1.9,1.6H49a2,2,0,0,0,1.9-1.6l.6-2.9a7.6,7.6,0,0,0,1.6-.6l2.5,1.6A1.8,1.8,0,0,0,58,41l1.6-1.6a1.8,1.8,0,0,0,.3-2.4l-1.7-2.5a7.7,7.7,0,0,0,.7-1.6l2.9-.6a2.1,2.1,0,0,0,1.3-1l1.5,1a1.4,1.4,0,0,0,.9.3,1.4,1.4,0,0,0,1.2-.6L68,30.8a1.7,1.7,0,0,0,.2-2.2L67,26.7l.5-1.1,2.1-.5A1.6,1.6,0,0,0,71,23.4V21.6a1.7,1.7,0,0,0-1.4-1.7l-2.2-.4c-.1-.4-.3-.8-.4-1.2l1.2-1.9a1.5,1.5,0,0,0-.2-2.1L66.7,13a1.7,1.7,0,0,0-2.2-.2L62.6,14l-1.1-.4-.4-2.2A1.7,1.7,0,0,0,59.3,10H57.5a1.8,1.8,0,0,0-1.7,1.4l-.4,2.2-1.1.4-1.9-1.2a1.7,1.7,0,0,0-2.2.2l-.9.9H46.7a1.9,1.9,0,0,0-1.9,1.5Zm14.8,3.8-.5-.5a3.8,3.8,0,0,1,3.3,3.2A3.9,3.9,0,0,1,60.3,26l-1.4-.3a7.7,7.7,0,0,0-.7-1.6l1.6-2.5a1.9,1.9,0,0,0-.2-2.4Zm-8.1-4.7L53.7,16a.9.9,0,0,0,1,0,6.7,6.7,0,0,1,1.8-.7,1.1,1.1,0,0,0,.7-.8l.5-2.6h1.5l.5,2.6a1.1,1.1,0,0,0,.7.8,6.7,6.7,0,0,1,1.8.7.9.9,0,0,0,1,0l2.2-1.5,1.1,1L65,17.7a1.1,1.1,0,0,0,0,1.1,5.1,5.1,0,0,1,.7,1.7.8.8,0,0,0,.8.7l2.6.6v1.5l-2.6.5a.8.8,0,0,0-.7.7,7.1,7.1,0,0,1-.8,1.8.8.8,0,0,0,.1,1l1.4,2.2-1,1.1-2.2-1.5v-1a1.6,1.6,0,0,0-.7-1.4,5.8,5.8,0,0,0-4-10,4.7,4.7,0,0,0-1.7.3,3.2,3.2,0,0,0-1.4.3L53.1,19l-1.7-.7-.5-2.9c-.1-.1-.1-.1-.1-.2ZM46,19.3l.7-3.5H49l.7,3.5a.8.8,0,0,0,.7.7,8.5,8.5,0,0,1,2.2.9,1.1,1.1,0,0,0,1.1,0l2.9-2,1.6,1.6-1.9,3a.9.9,0,0,0-.1,1,9.4,9.4,0,0,1,1,2.3,1.2,1.2,0,0,0,.7.7l3.5.7v2.2l-3.5.7a1.2,1.2,0,0,0-.7.7,6.7,6.7,0,0,1-1,2.3,1.2,1.2,0,0,0,.1,1l1.9,3-1.6,1.6-2.9-2a.9.9,0,0,0-1,0l-2.3,1c-.4,0-.6.3-.7.7L49,42.9H46.7L46,39.4c0-.4-.3-.6-.7-.7l-2.2-1a1.1,1.1,0,0,0-1.1.1l-2.9,1.9-1.6-1.6,1.9-2.9a.8.8,0,0,0,.1-1,11.5,11.5,0,0,1-1-2.3,1,1,0,0,0-.7-.7l-3.5-.7V28.2l3.5-.7a1,1,0,0,0,.7-.7,7.7,7.7,0,0,1,1-2.3,1.2,1.2,0,0,0-.1-1l-1.9-2.9L39.1,19,42,20.9a1.2,1.2,0,0,0,1,.1,6.7,6.7,0,0,1,2.3-1,1,1,0,0,0,.7-.7Zm0,0"/><path class="a" d="M47.9,36.1a6.8,6.8,0,0,0-.1-13.5,6.8,6.8,0,1,0,.1,13.5Zm-.1-11.6a4.8,4.8,0,0,1,4.9,4.8,4.9,4.9,0,1,1-4.9-4.8Zm0,0"/></svg>