<svg xmlns="http://www.w3.org/2000/svg" viewBox="0 0 72 61"><defs><style>.a{fill:#ff8080;}</style></defs><title>200415_OSH Portal_UI_WIP_icons</title><path class="a" d="M53.1,11.2A19.8,19.8,0,0,0,35.5,0,19.9,19.9,0,0,0,16.1,17.3h-.3A12,12,0,0,0,4,29.5,12,12,0,0,0,15.8,41.7h4.9v9.2a3.1,3.1,0,0,0,3,3h6.7L29.8,57H28.6a1,1,0,0,0-1,1,1.1,1.1,0,0,0,1,1H42.4a1.1,1.1,0,0,0,1-1,1,1,0,0,0-1-1H41.2l-.6-3.1h6.7a3.1,3.1,0,0,0,3-3V41.7h1.9A15,15,0,0,0,67,26.5,15.2,15.2,0,0,0,53.1,11.2ZM48.3,47.8H22.7V32.6a1.1,1.1,0,0,1,1-1.1H47.3a1.1,1.1,0,0,1,1,1.1ZM39.2,57H31.8l.6-3.1h6.2Zm8.1-5.1H23.7a1.1,1.1,0,0,1-1-1V49.8H35.5a1.1,1.1,0,0,0-1,1.1,1.1,1.1,0,0,0,1,1,1,1,0,0,0,1-1,1,1,0,0,0-1-1.1H48.3v1.1a1.1,1.1,0,0,1-1,1Zm4.9-12.2H50.3V32.6a3.1,3.1,0,0,0-3-3.1H23.7a3.1,3.1,0,0,0-3,3.1v7.1H15.8A10,10,0,0,1,6,29.5a10,10,0,0,1,9.8-10.2h.1a3.8,3.8,0,0,0-.1,1,1.1,1.1,0,0,0,1,1.1,1.1,1.1,0,0,0,1-1.1C17.8,10.3,25.7,2,35.5,2A17.9,17.9,0,0,1,52.8,16.5a15.8,15.8,0,0,1,.4,3.8,1,1,0,1,0,2,0,21,21,0,0,0-.5-4.3,11.1,11.1,0,0,0-.7-2.6A13.1,13.1,0,0,1,65,26.5,13,13,0,0,1,52.2,39.7Zm0,0"/><path class="a" d="M40.1,14.5l-.3-.2a.9.9,0,0,0-.7,0l-.4.2-1.9,2.1a1,1,0,0,0,0,1.4.9.9,0,0,0,.7.3,1.1,1.1,0,0,0,.7-.3l.3-.3v7.7a.9.9,0,0,0,.9,1,.9.9,0,0,0,1-1V17.7l.3.3a1.1,1.1,0,0,0,.7.3.9.9,0,0,0,.7-.3,1,1,0,0,0,0-1.4Zm0,0"/><path class="a" d="M32.8,22.7l-.3.3V15.3a1,1,0,1,0-1.9,0V23l-.3-.3a1,1,0,0,0-1.4,1.4l2,2.1.3.2h.7l.4-.2,1.9-2.1a1,1,0,1,0-1.4-1.4Zm0,0"/></svg>