<svg xmlns="http://www.w3.org/2000/svg" viewBox="0 0 73 80"><defs><style>.a{fill:#ff8080;}</style></defs><title>200415_OSH Portal_UI_WIP_icons</title><path class="a" d="M10.8,65.1a.9.9,0,0,1-.9-.9.9.9,0,0,1,.9-1h0a.9.9,0,0,1,1,1,.9.9,0,0,1-1,.9Zm0,0"/><path class="a" d="M64,54.9a.9.9,0,0,1-.8-.4,1.1,1.1,0,0,1,.3-1.4A2.8,2.8,0,0,0,65,50.6a2.9,2.9,0,0,0-2.9-2.9.9.9,0,0,1-1-1,.9.9,0,0,1,1-.9,4.8,4.8,0,0,1,2.4,9Zm0,0"/><path class="a" d="M37.9,69a1,1,0,0,1-.5-1.8L63.6,53.1a1,1,0,0,1,1.3.4,1.1,1.1,0,0,1-.4,1.3L38.3,68.9Zm0,0"/><path class="a" d="M37.9,69h-.1L15.5,66.1a1,1,0,0,1-.8-1.1.9.9,0,0,1,1.1-.8L38,67.1a1,1,0,0,1,.9,1.1,1.1,1.1,0,0,1-1,.8Zm0,0"/><path class="a" d="M15.6,68H6a.9.9,0,0,1-1-.9V40.9A.9.9,0,0,1,6,40h9.6a.9.9,0,0,1,1,.9V67.1a.9.9,0,0,1-1,.9ZM6.9,66.1h7.8V41.9H6.9Zm0,0"/><path class="a" d="M42.7,50.6a.9.9,0,0,1-.9-.8,1,1,0,0,1,.8-1.1l18.7-2.8a.9.9,0,0,1,1.1.8,1,1,0,0,1-.8,1.1L42.9,50.6Zm0,0"/><path class="a" d="M38.9,54.5a.9.9,0,0,1-1-1,.9.9,0,0,1,1-.9,2.9,2.9,0,0,0,2.9-2.9,2.8,2.8,0,0,0-2.4-2.9,1,1,0,1,1,.3-1.9,4.8,4.8,0,0,1-.8,9.6Zm0,0"/><path class="a" d="M39.5,46.8h-.2l-15.1-3a.9.9,0,0,1-.8-1.1,1,1,0,0,1,1.1-.8l15.2,3a1,1,0,0,1,.8,1.1,1,1,0,0,1-1,.8Zm0,0"/><path class="a" d="M24.3,43.8H15.6a.9.9,0,0,1-.9-.9.9.9,0,0,1,.9-1h8.7a.9.9,0,0,1,1,1,.9.9,0,0,1-1,.9Zm0,0"/><path class="a" d="M38.5,54.5h-.1l-12.2-1a1,1,0,0,1-.9-1,.9.9,0,0,1,1.1-.9l12.1.9a.9.9,0,0,1,.9,1.1.9.9,0,0,1-.9.9Zm0,0"/><path class="a" d="M61.4,47.8a1,1,0,0,1-.9-.8c-.1-.6.2-1.1.8-1.1h.8a.9.9,0,0,1,.9.9.9.9,0,0,1-.9,1h-.7Zm0,0"/><path class="a" d="M38.9,54.5h-.6a1,1,0,0,1-.8-1.1,1.1,1.1,0,0,1,1.1-.9h.3a.9.9,0,0,1,.9.9.9.9,0,0,1-.9,1Zm0,0"/><path class="a" d="M28.2,44.6h-.1a1,1,0,0,1-.8-1.1,2.8,2.8,0,0,1,2.9-2.6,1,1,0,0,1,0,2,.9.9,0,0,0-1,.8,1.1,1.1,0,0,1-1,.9Zm0,0"/><path class="a" d="M49.5,44.8a1,1,0,0,1-1-1,.9.9,0,0,0-.9-.9,1,1,0,0,1,0-2,2.9,2.9,0,0,1,2.9,2.9,1,1,0,0,1-1,1Zm0,0"/><path class="a" d="M49.5,49.7a1.1,1.1,0,0,1-1-1V43.8a1,1,0,0,1,2,0v4.9a1.1,1.1,0,0,1-1,1Zm0,0"/><path class="a" d="M47.6,42.9H30.2a1,1,0,1,1,0-2H47.6a1,1,0,0,1,0,2Zm0,0"/><path class="a" d="M37.4,42.9a1.1,1.1,0,0,1-1-1V16.7a1,1,0,0,1,2,0V41.9a1.1,1.1,0,0,1-1,1Zm0,0"/><path class="a" d="M40.3,42.9a1.1,1.1,0,0,1-1-1V16.7a1,1,0,0,1,2,0V41.9a1.1,1.1,0,0,1-1,1Zm0,0"/><path class="a" d="M40.3,13.4a1.1,1.1,0,0,1-1-1,.5.5,0,0,0-.4-.5.5.5,0,0,0-.5.5,1,1,0,0,1-2,0,2.5,2.5,0,0,1,4.9,0,1.1,1.1,0,0,1-1,1Zm0,0"/><path class="a" d="M52.9,17.7a1,1,0,0,1-1-1,1,1,0,0,1,1-.9.5.5,0,0,0,0-1,1,1,0,0,1-1-1,1,1,0,0,1,1-.9,2.4,2.4,0,0,1,0,4.8Zm0,0"/><path class="a" d="M24.8,17.7a2.4,2.4,0,0,1,0-4.8.9.9,0,0,1,1,.9.9.9,0,0,1-1,1,.5.5,0,0,0,0,1,.9.9,0,0,1,1,.9.9.9,0,0,1-1,1Zm0,0"/><path class="a" d="M52.9,14.8h-28a1,1,0,0,1-1-1,1,1,0,0,1,1-.9h28a1,1,0,0,1,1,.9,1,1,0,0,1-1,1Zm0,0"/><path class="a" d="M52.9,17.7h-28a1,1,0,0,1-1-1,1,1,0,0,1,1-.9h28a1,1,0,0,1,1,.9,1,1,0,0,1-1,1Zm0,0"/><path class="a" d="M37.4,14.8a1,1,0,0,1-1-1V12.4a1,1,0,1,1,2,0v1.4a1,1,0,0,1-1,1Zm0,0"/><path class="a" d="M40.3,14.8a1,1,0,0,1-1-1V12.4a1,1,0,1,1,2,0v1.4a1,1,0,0,1-1,1Zm0,0"/><path class="a" d="M25.3,36.1a5.8,5.8,0,0,1-5.8-5.8,1,1,0,1,1,2,0,3.9,3.9,0,1,0,7.7,0,1,1,0,0,1,1-1,1,1,0,0,1,.9,1,5.8,5.8,0,0,1-5.8,5.8Zm0,0"/><path class="a" d="M30.2,31.3H20.5a1,1,0,0,1,0-2h9.7a1,1,0,0,1,0,2Zm0,0"/><path class="a" d="M20.5,31.3h-.3a.9.9,0,0,1-.6-1.2l4.8-13.6a1,1,0,0,1,1.3-.6,1,1,0,0,1,.5,1.3L21.4,30.6a1,1,0,0,1-.9.7Zm0,0"/><path class="a" d="M30.2,31.3a1,1,0,0,1-.9-.7L24.4,17.1a1,1,0,0,1,.6-1.3,1,1,0,0,1,1.2.6L31.1,30a.9.9,0,0,1-.6,1.2Zm0,0"/><path class="a" d="M52.4,37.1a5.8,5.8,0,0,1-5.8-5.8,1,1,0,0,1,2,0,3.9,3.9,0,0,0,7.7,0,1,1,0,1,1,2,0,5.8,5.8,0,0,1-5.9,5.8Zm0,0"/><path class="a" d="M57.3,32.2H47.6a1,1,0,0,1-1-.9,1,1,0,0,1,1-1h9.7a.9.9,0,0,1,.9,1,.9.9,0,0,1-.9.9Zm0,0"/><path class="a" d="M47.6,32.2h-.3a.9.9,0,0,1-.6-1.2l4.8-14.6a1,1,0,0,1,1.2-.6,1.1,1.1,0,0,1,.7,1.3L48.5,31.6a.9.9,0,0,1-.9.6Zm0,0"/><path class="a" d="M57.3,32.2a.9.9,0,0,1-.9-.6L51.5,17.1a1.1,1.1,0,0,1,.6-1.3,1.1,1.1,0,0,1,1.3.6L58.2,31a.9.9,0,0,1-.6,1.2Zm0,0"/></svg>