<svg xmlns="http://www.w3.org/2000/svg" viewBox="0 0 96 80"><defs><style>.a{fill:#ff8080;fill-rule:evenodd;}</style></defs><title>200415_OSH Portal_UI_WIP_icons</title><path class="a" d="M71,67.7a1.5,1.5,0,0,0,1.4-1.5V61.7h4.5a1.5,1.5,0,0,0,1.5-1.5V55.7h4.5a1.5,1.5,0,0,0,1.5-1.4V13.5A1.5,1.5,0,0,0,82.9,12H22.4a1.5,1.5,0,0,0-1.5,1.5V18H16.4A1.4,1.4,0,0,0,15,19.4v4.5H10.5A1.5,1.5,0,0,0,9,25.4V66.2a1.5,1.5,0,0,0,1.5,1.5H71Zm-29.8-3H11.9V26.9H69.5V64.7H41.2Zm34.2-6h-3V25.4A1.5,1.5,0,0,0,71,23.9H17.9v-3H75.4Zm6-5.9h-3V19.4A1.5,1.5,0,0,0,76.9,18h-53V14.9H81.4Zm0,0"/><path class="a" d="M49.9,45.8a1.7,1.7,0,0,0-.7-1.3L37,37.5a1.4,1.4,0,0,0-1.5,0,1.6,1.6,0,0,0-.7,1.3v14a1.7,1.7,0,0,0,.7,1.3l.8.2.7-.2,12.2-7a1.7,1.7,0,0,0,.7-1.3ZM37.7,50.3v-9l7.8,4.5Zm0,0"/></svg>