<svg xmlns="http://www.w3.org/2000/svg" viewBox="0 0 72 71"><defs><style>.a{fill:#ff8080;}</style></defs><title>200415_OSH Portal_UI_WIP_icons</title><path class="a" d="M31.5,69a1.1,1.1,0,0,1-.8-.3L26,63.9H19.1a8,8,0,0,1-8.1-8V38.1a8,8,0,0,1,8.1-8H30.7a1.2,1.2,0,0,1,1.2,1.1,1.3,1.3,0,0,1-1.2,1.2H19.1a5.7,5.7,0,0,0-5.8,5.7V55.9a5.8,5.8,0,0,0,5.8,5.7h7.5a1.2,1.2,0,0,1,1,.7l2.8,2.8V62.8a1.1,1.1,0,0,1,1.1-1.2H44a5.8,5.8,0,0,0,5.7-5.7v-8a1.1,1.1,0,0,1,1.2-1.1A1.1,1.1,0,0,1,52,47.9v8a8,8,0,0,1-8,8H32.7v3.9a1.2,1.2,0,0,1-.7,1.1Z"/><path class="a" d="M62.6,47.6a1.1,1.1,0,0,1-.8-.3L57.5,43a20.1,20.1,0,0,1-4.2.5h-3a16.8,16.8,0,0,1,0-33.5h3A16.7,16.7,0,0,1,70,26.7a16.4,16.4,0,0,1-1.8,7.6,18.1,18.1,0,0,1-4.4,5.5v6.6a1.2,1.2,0,0,1-.7,1.1Zm-4.8-7.1a1.6,1.6,0,0,1,.9.3l2.8,2.9V39.2a1.1,1.1,0,0,1,.4-.9,14.4,14.4,0,0,0-8.6-26h-3a14.5,14.5,0,0,0,0,28.9h3a15.2,15.2,0,0,0,4.2-.6Z"/><path class="a" d="M52.1,31.5A1.1,1.1,0,0,1,51,30.4V27.6a2.1,2.1,0,0,1,1.7-2.1,2.6,2.6,0,0,0-.4-5.1,2.3,2.3,0,0,0-1.9.7,2.3,2.3,0,0,0-.9,1.9,1.1,1.1,0,0,1-1.1,1.1A1.2,1.2,0,0,1,47.2,23a4.8,4.8,0,0,1,1.6-3.6,4.9,4.9,0,1,1,4.5,8.3v2.7A1.1,1.1,0,0,1,52.1,31.5Z"/><path class="a" d="M52.1,36.1a.9.9,0,0,1-.8-.4,1.1,1.1,0,0,1,1.6-1.6,1,1,0,0,1,0,1.6A.9.9,0,0,1,52.1,36.1Z"/><path class="a" d="M42.7,48H18.4a1.1,1.1,0,0,1-1.2-1.1,1.2,1.2,0,0,1,1.2-1.2H42.7a1.1,1.1,0,0,1,1.1,1.2A1.1,1.1,0,0,1,42.7,48Z"/><path class="a" d="M42.7,54.5a.9.9,0,0,1-.8-.4,1,1,0,0,1,0-1.6,1.1,1.1,0,0,1,1.6,1.6A.9.9,0,0,1,42.7,54.5Z"/><path class="a" d="M38.2,54.5H18.4a1.2,1.2,0,0,1-1.2-1.2,1.1,1.1,0,0,1,1.2-1.1H38.2a1.1,1.1,0,0,1,1.1,1.1A1.1,1.1,0,0,1,38.2,54.5Z"/><path class="a" d="M35.2,41.6H18.4a1.2,1.2,0,0,1-1.2-1.2,1.1,1.1,0,0,1,1.2-1.1H35.2a1.2,1.2,0,0,1,1.2,1.1A1.2,1.2,0,0,1,35.2,41.6Z"/></svg>