<svg xmlns="http://www.w3.org/2000/svg" viewBox="0 0 69 86"><defs><style>.a{fill:#ff8080;}</style></defs><title>200415_OSH Portal_UI_WIP_icons</title><path class="a" d="M51.3,32.9,50,34.3l6,5.6a6.6,6.6,0,0,1,2.3,5V69h1.9V44.9a8.8,8.8,0,0,0-2.8-6.5Zm0,0"/><path class="a" d="M43.5,10H17.9A4.9,4.9,0,0,0,13,14.9V64.1A4.9,4.9,0,0,0,17.9,69H42.5V67.2a22.1,22.1,0,0,1,3.8-12.4.9.9,0,0,0-.1-1.2l-6.9-6.9a3.2,3.2,0,0,1-.9-2.4A2.8,2.8,0,0,1,39.5,42a3.2,3.2,0,0,1,4.4.3L53.6,52,55,50.6,48.4,44V14.9A4.9,4.9,0,0,0,43.5,10Zm3,32-1.2-1.1a5.3,5.3,0,0,0-7-.5,5.6,5.6,0,0,0-1.9,3.8,5.3,5.3,0,0,0,1.5,3.9l6.3,6.3A24.5,24.5,0,0,0,40.6,67H17.9A2.9,2.9,0,0,1,15,64.1v-3H39.6V59.2H15V17.9H46.5Zm0-26.1H15v-1A2.9,2.9,0,0,1,17.9,12H43.5a3,3,0,0,1,3,2.9Zm0,0"/><path class="a" d="M18.9,27.7h4a1.9,1.9,0,0,0,1.9-2V21.8a1.9,1.9,0,0,0-1.9-2h-4a1.9,1.9,0,0,0-1.9,2v3.9a1.9,1.9,0,0,0,1.9,2Zm0-5.9h4v3.9h-4Zm0,0"/><path class="a" d="M28.8,27.7h3.9a2,2,0,0,0,2-2V21.8a2,2,0,0,0-2-2H28.8a2,2,0,0,0-2,2v3.9a2,2,0,0,0,2,2Zm0-5.9h3.9v3.9H28.8Zm0,0"/><path class="a" d="M38.6,27.7h3.9a2,2,0,0,0,2-2V21.8a2,2,0,0,0-2-2H38.6a2,2,0,0,0-2,2v3.9a2,2,0,0,0,2,2Zm0-5.9h3.9v3.9H38.6Zm0,0"/><path class="a" d="M18.9,37.5h4a1.8,1.8,0,0,0,1.9-1.9v-4a1.8,1.8,0,0,0-1.9-1.9h-4A1.8,1.8,0,0,0,17,31.6v4a1.8,1.8,0,0,0,1.9,1.9Zm0-5.9h4v4h-4Zm0,0"/><path class="a" d="M18.9,47.4h4a1.9,1.9,0,0,0,1.9-2V41.5a1.9,1.9,0,0,0-1.9-2h-4a1.9,1.9,0,0,0-1.9,2v3.9a1.9,1.9,0,0,0,1.9,2Zm0-5.9h4v3.9h-4Zm0,0"/><path class="a" d="M28.8,37.5h3.9a1.9,1.9,0,0,0,2-1.9v-4a1.9,1.9,0,0,0-2-1.9H28.8a1.9,1.9,0,0,0-2,1.9v4a1.9,1.9,0,0,0,2,1.9Zm0-5.9h3.9v4H28.8Zm0,0"/><path class="a" d="M38.6,37.5h3.9a1.9,1.9,0,0,0,2-1.9v-4a1.9,1.9,0,0,0-2-1.9H38.6a1.9,1.9,0,0,0-2,1.9v4a1.9,1.9,0,0,0,2,1.9Zm0-5.9h3.9v4H38.6Zm0,0"/><path class="a" d="M28.8,47.4h3.9a2,2,0,0,0,2-2V41.5a2,2,0,0,0-2-2H28.8a2,2,0,0,0-2,2v3.9a2,2,0,0,0,2,2Zm0-5.9h3.9v3.9H28.8Zm0,0"/><path class="a" d="M18.9,57.2h4a1.9,1.9,0,0,0,1.9-2V51.3a1.9,1.9,0,0,0-1.9-2h-4a1.9,1.9,0,0,0-1.9,2v3.9a1.9,1.9,0,0,0,1.9,2Zm0-5.9h4v3.9h-4Zm0,0"/><path class="a" d="M28.8,57.2h3.9a2,2,0,0,0,2-2V51.3a2,2,0,0,0-2-2H28.8a2,2,0,0,0-2,2v3.9a2,2,0,0,0,2,2Zm0-5.9h3.9v3.9H28.8Zm0,0"/><rect class="a" x="29.7" y="63.1" width="2" height="1.97"/></svg>