<svg xmlns="http://www.w3.org/2000/svg" viewBox="0 0 76 72"><defs><style>.a{fill:#ff8080;}</style></defs><title>200415_OSH Portal_UI_WIP_icons</title><path class="a" d="M24.6,47.4H40.8v9.4a2.8,2.8,0,0,0,2.8,2.6h5.7a.9.9,0,0,0,1-.9.9.9,0,0,0-1-1H43.6a.8.8,0,0,1-.8-.7V26.5a.9.9,0,0,1,.8-.8H62.4v4.5a2.7,2.7,0,0,0,2.7,2.7H69V56.8a.7.7,0,0,1-.7.7H53.9a.9.9,0,0,0-1,1,.9.9,0,0,0,1,.9H68.3A2.7,2.7,0,0,0,71,56.8V31.9h0c0-1.6-.2-2.3-1.7-3.8l-2.2-2.4-.4-.4a3.5,3.5,0,0,0-3.3-1.5H53.9V13.5a2,2,0,0,0-2-2H41.3V9.8a7.9,7.9,0,0,0-8-7.8H24.5a7.8,7.8,0,0,0-7.9,7.8v1.7H6a2,2,0,0,0-2,2V45.4a2,2,0,0,0,2,2H24.6Zm-4.5-1.9H6V26.8a103.8,103.8,0,0,0,16.3,2.5v1.8a1.8,1.8,0,0,0,1.8,1.8h9.7a1.8,1.8,0,0,0,1.8-1.8V29.3l5.2-.5V45.5H20.1ZM18.5,9.8a6,6,0,0,1,6-5.9h8.8a6,6,0,0,1,6.1,5.9v1.7h-2V9.8a4,4,0,0,0-4.1-4H24.5a4,4,0,0,0-4,4v1.7h-2Zm16.9,1.7h-13V9.8a2.1,2.1,0,0,1,2.1-2h8.8a2,2,0,0,1,2.1,2ZM33.6,31H24.2V26.3h9.4Zm18.3-7.2H43.6a2.8,2.8,0,0,0-2.8,2.7v.4l-5.2.5V26.1a1.8,1.8,0,0,0-1.8-1.8H24.1a1.8,1.8,0,0,0-1.8,1.8v1.3A104.2,104.2,0,0,1,6,24.8V13.5H51.9ZM65.1,31a.8.8,0,0,1-.7-.8V25.8l.9.8.3.4,2.3,2.4A3.5,3.5,0,0,1,69,31Zm0,0"/><path class="a" d="M63.8,40.4h-16a1,1,0,0,0,0,2h16a1,1,0,0,0,0-2Zm0,0"/><path class="a" d="M63.8,45.4h-16a1,1,0,0,0-1,1,.9.9,0,0,0,1,.9h16a1,1,0,0,0,1-.9,1.1,1.1,0,0,0-1-1Zm0,0"/><path class="a" d="M47.8,52.3h16a1,1,0,0,0,1-.9,1.1,1.1,0,0,0-1-1h-16a1,1,0,0,0-1,1,.9.9,0,0,0,1,.9Zm0,0"/><path class="a" d="M52.2,29.8H47.6a.9.9,0,0,0-1,1,.9.9,0,0,0,1,.9h4.6a.9.9,0,0,0,1-.9.9.9,0,0,0-1-1Zm0,0"/><path class="a" d="M47.6,36h3.1a.9.9,0,0,0,1-.9,1,1,0,0,0-1-1H47.6a1,1,0,0,0-1,1,.9.9,0,0,0,1,.9Zm0,0"/></svg>