<svg xmlns="http://www.w3.org/2000/svg" viewBox="0 0 75 62"><defs><style>.a{fill:#ff8080;}</style></defs><title>200415_OSH Portal_UI_WIP_icons</title><path class="a" d="M39.8,14.5H43a1,1,0,0,0,1.1-1V9.6A1.1,1.1,0,0,0,43,8.5H39.8a1.1,1.1,0,0,0-1.1,1.1v3.9A1,1,0,0,0,39.8,14.5Zm.6-4.3h2v2.7h-2Z"/><path class="a" d="M52.7,14.5H56a.9.9,0,0,0,1-1V9.6a1,1,0,0,0-1-1.1H52.7a1,1,0,0,0-1,1.1v3.9A.9.9,0,0,0,52.7,14.5Zm.6-4.3h2.1v2.7H53.3Z"/><path class="a" d="M39.8,24.2H43a1,1,0,0,0,1.1-1V19.3A1.1,1.1,0,0,0,43,18.2H39.8a1.1,1.1,0,0,0-1.1,1.1v3.9A1,1,0,0,0,39.8,24.2Zm.6-4.3h2v2.7h-2Z"/><path class="a" d="M39.8,33.9H43a1,1,0,0,0,1.1-1V29A1.1,1.1,0,0,0,43,27.9H39.8A1.1,1.1,0,0,0,38.7,29v3.9A1,1,0,0,0,39.8,33.9Zm.6-4.3h2v2.7h-2Z"/><path class="a" d="M12.2,53.8v1.7a2.9,2.9,0,0,0,2.9,2.9h2.5a2.9,2.9,0,0,0,2.9-2.9h0L32,59.8h.1l1.5.2h.8l16.9-2.4h0a7.3,7.3,0,0,0,4-1.8h0l11-9.8a3.5,3.5,0,0,0,.5-4.6,3.5,3.5,0,0,0-4.7-.9l-2.3,1.5V6.3H60a1,1,0,0,0,1-1.1V3.1A1,1,0,0,0,60,2H54.7a.9.9,0,0,0-.9.8.9.9,0,0,0,.9.9h4.7v.9H36.1V3.7H49.5a.9.9,0,0,0,.8-.9.9.9,0,0,0-.8-.8h-14a1,1,0,0,0-1,1.1V5.2a1,1,0,0,0,1,1.1H36V16.9H34.3v-2A1.3,1.3,0,0,0,33,13.6H26.7a1.3,1.3,0,0,0-1.3,1.3v2H24.2a1.3,1.3,0,0,0-1.3,1.4v19H20.5v-.5a2.9,2.9,0,0,0-2.9-2.9H15.1a2.9,2.9,0,0,0-2.9,2.9v17Zm1.6-5.1V36.8a1.2,1.2,0,0,1,1.3-1.2h2.5a1.2,1.2,0,0,1,1.3,1.2h0V55.5h0a1.2,1.2,0,0,1-1.3,1.2H15.1a1.2,1.2,0,0,1-1.3-1.2V48.7Zm23.8-7V6.3H58.1V43.1l-6.9,4.6-2.3-.2v-.6l-.3-1.2c-.1-.1-.1-.3-.2-.4l-.3-.5a4.8,4.8,0,0,0-.9-1.1h2.3a1.1,1.1,0,0,0,1.1-1.1V38.7a1.1,1.1,0,0,0-1.1-1.1H46.3a1.1,1.1,0,0,0-1.1,1.1v3.9H44.1V38.7A1.1,1.1,0,0,0,43,37.6H39.8a1.1,1.1,0,0,0-1.1,1.1v3.1H37.6m9.3.3V39.3h2V42Zm-4.5-2.7V42h-2V39.3Zm-15.3-24h5.5v1.6H27.1Zm-2.5,3.3H36v2.6H26.6a1,1,0,0,0-1,1v2.5a1,1,0,0,0,1,.9H36V28H26.6a1,1,0,0,0-1,.9v2.5a1,1,0,0,0,1,1H36v2.3H26.6a1.1,1.1,0,0,0-1,1v2h-1V18.6ZM36,22.8V24H27.3V22.8Zm0,6.8v1.2H27.3V29.6Zm-8.7,7.9V36.4H36v1.1ZM36,39.2v2.3h-.3l-1.6-.3a16.6,16.6,0,0,1-2.9-1,.5.5,0,0,0-.4-.2l-.5-.4-.5-.2H36Zm29.2,5.4-11,9.9a7.3,7.3,0,0,1-3.1,1.4L34.2,58.3h-.1a3.8,3.8,0,0,1-1.5-.1L20.5,53.6V38.9h5.3a15.3,15.3,0,0,1,2.7,1.1h.1l.3.2H29l.4.3h0l1.1.5a17.2,17.2,0,0,0,5,1.6h2.2l2.2.3h.6l3.8.4a3.3,3.3,0,0,1,2.9,3v.3L31.7,45.9c-.4-.1-.8.3-.9.7a.8.8,0,0,0,.8.9L48,49.1a.1.1,0,0,1,.1.1h3.8l7.5-5h0L63,41.8a1.8,1.8,0,0,1,2.5.5A1.8,1.8,0,0,1,65.2,44.6Z"/></svg>