<svg xmlns="http://www.w3.org/2000/svg" viewBox="0 0 63 72"><defs><style>.a{fill:#ff8080;}</style></defs><title>200415_OSH Portal_UI_WIP_icons</title><path class="a" d="M60,40.5a.1.1,0,0,0-.1-.1.3.3,0,0,0-.1-.2h0L50.6,27.8a.7.7,0,0,0-.6-.3H11a.7.7,0,0,0-.6.3L1.2,40.2h0a.3.3,0,0,0-.1.2.1.1,0,0,0-.1.1v3.4a2.7,2.7,0,0,0,2.7,2.7H25.8v4.9H22.9l-.6.2-4.6,4a.9.9,0,0,0-.3.6v3.9a.9.9,0,0,0,.9.8H42.7a.9.9,0,0,0,.9-.8V56.3a.9.9,0,0,0-.3-.6l-4.6-4-.6-.2H35.2V46.6H57.3A2.7,2.7,0,0,0,60,43.9V40.5Zm-42.6-.6,2.2-5.3h10v5.3Zm-14,0,3.9-5.3H17.9l-2.2,5.3ZM29.6,29.1V33H20.3l1.6-3.9Zm9.3,0L40.5,33H31.2V29.1Zm-7.7,5.5h10l2.2,5.3H31.2Zm13.9,5.3-2.2-5.3H53.7l3.9,5.3ZM52.5,33H42.3l-1.7-3.9h9ZM11.4,29.1h8.8L18.5,33H8.5ZM41.9,56.6v2.8H19.1V56.6l4.1-3.4H37.8Zm-8.3-5.1H27.4V46.6h6.2Zm23.7-6.6H3.7a1,1,0,0,1-1.1-1V41.5H58.4v2.4a1,1,0,0,1-1.1,1Zm0,0"/><path class="a" d="M30.5,18.8a5.2,5.2,0,0,0,4.9-3.2,5.4,5.4,0,0,0-1.2-5.8,5.3,5.3,0,1,0-3.7,9Zm0-8.9a3.7,3.7,0,0,1,3.4,2.3,3.7,3.7,0,0,1-.8,4,3.9,3.9,0,0,1-4,.8,3.8,3.8,0,0,1-2.3-3.4,3.7,3.7,0,0,1,3.7-3.7Zm0,0"/><path class="a" d="M30.4,6.4a.8.8,0,0,0,.8-.8V2.8a.8.8,0,1,0-1.6,0V5.6a.8.8,0,0,0,.8.8Zm0,0"/><path class="a" d="M29.6,21.5v2.8a.8.8,0,1,0,1.6,0V21.5a.8.8,0,1,0-1.6,0Zm0,0"/><path class="a" d="M36,8.8a.9.9,0,0,0,.6-.3l2-2c.7-.7-.4-1.8-1.2-1.1l-2,2A.8.8,0,0,0,36,8.8Zm0,0"/><path class="a" d="M24.2,18.6l-2,2a.8.8,0,1,0,1.2,1.1l2-2a.8.8,0,0,0-1.2-1.1Zm0,0"/><path class="a" d="M37.5,13.6a.9.9,0,0,0,.8.8h2.9a.8.8,0,0,0,0-1.6H38.3a.8.8,0,0,0-.8.8Zm0,0"/><path class="a" d="M19.6,14.4h2.9a.8.8,0,0,0,0-1.6H19.6a.8.8,0,0,0,0,1.6Zm0,0"/><path class="a" d="M35.4,18.6a.8.8,0,0,0,0,1.1l2,2a.8.8,0,1,0,1.2-1.1l-2-2a.9.9,0,0,0-1.2,0Zm0,0"/><path class="a" d="M24.2,8.5a.8.8,0,0,0,1.2-1.1l-2-2a.9.9,0,0,0-1.2,0,.8.8,0,0,0,0,1.1Zm0,0"/></svg>