<svg xmlns="http://www.w3.org/2000/svg" viewBox="0 0 69 71"><defs><style>.a{fill:#ff8080;}</style></defs><title>200415_OSH Portal_UI_WIP_icons</title><path class="a" d="M8.8,30.3a.8.8,0,0,0,1-.8l.5-4.6A1.7,1.7,0,0,1,12,23.4h6.1v3a.9.9,0,1,0,1.8,0v-3H35.1v3a.9.9,0,0,0,.8.9.9.9,0,0,0,.9-.9v-3H43a1.8,1.8,0,0,1,1.7,1.5L45.9,36a.8.8,0,0,0,.8.8h.1a.9.9,0,0,0,.8-1L46.4,24.7a3.4,3.4,0,0,0-3.4-3H36.8V20.3a9.4,9.4,0,0,0-18.7,0v1.4H12a3.4,3.4,0,0,0-3.4,3l-.5,4.7a.8.8,0,0,0,.7.9Zm11.1-10a7.6,7.6,0,0,1,15.2,0v1.4H19.9Zm0,0"/><path class="a" d="M51.2,43.5a2.8,2.8,0,0,0,1.9,4.7,3.2,3.2,0,0,0,2-.8,2.9,2.9,0,0,0,0-3.9,2.7,2.7,0,0,0-3.9,0Zm2.6,2.7a1.2,1.2,0,0,1-1.4,0,1.1,1.1,0,0,1,0-1.5,1,1,0,0,1,1.4,0,1.1,1.1,0,0,1,0,1.5Zm0,0"/><path class="a" d="M60,52.6l-.4-10.1A3.6,3.6,0,0,0,56.1,39L46,38.6a3.7,3.7,0,0,0-2.8,1L28.5,54.4A3.8,3.8,0,0,0,27.4,57H6.8L9.4,33a.8.8,0,0,0-.7-.9.8.8,0,0,0-1,.7L5,57.1a7.6,7.6,0,0,0,1.8,5.6,7.5,7.5,0,0,0,5.4,2.4H33.7l5,5a4,4,0,0,0,2.7,1.1,4.3,4.3,0,0,0,2.8-1.1L58.9,55.3A3.5,3.5,0,0,0,60,52.6ZM12.2,63.3a5.2,5.2,0,0,1-4-1.8,5.9,5.9,0,0,1-1.4-2.7h21a3.4,3.4,0,0,0,.7,1.1L32,63.3Zm45.5-9.2L42.9,68.8a2.2,2.2,0,0,1-3,0L29.7,58.6a2.2,2.2,0,0,1,0-3L44.5,40.9a1.6,1.6,0,0,1,1.3-.6h.1l10.1.4a1.9,1.9,0,0,1,1.8,1.8l.4,10.2a1.6,1.6,0,0,1-.5,1.4Zm0,0"/><path class="a" d="M40.9,53.6a3,3,0,0,0,3.1-3,3.1,3.1,0,1,0-6.1,0,3,3,0,0,0,3,3Zm0-4.3a1.3,1.3,0,1,1,0,2.6,1.3,1.3,0,0,1,0-2.6Zm0,0"/><path class="a" d="M46.4,56.1a3,3,0,0,0-3,3.1,2.9,2.9,0,0,0,3,3,3,3,0,0,0,3.1-3,3.1,3.1,0,0,0-3.1-3.1Zm0,4.4a1.3,1.3,0,0,1-1.3-1.3,1.3,1.3,0,1,1,2.6,0,1.3,1.3,0,0,1-1.3,1.3Zm0,0"/><path class="a" d="M48.8,49.8a.7.7,0,0,0-1.2,0l-9,8.9a.9.9,0,0,0,0,1.3.7.7,0,0,0,.6.3.9.9,0,0,0,.6-.3l9-9a.9.9,0,0,0,0-1.2Zm0,0"/></svg>