<svg xmlns="http://www.w3.org/2000/svg" viewBox="0 0 67 71"><defs><style>.a{fill:#ff8080;}</style></defs><title>200415_OSH Portal_UI_WIP_icons</title><path class="a" d="M32.4,32.3a4,4,0,0,0,3.9-4,4,4,0,0,0-7.9,0A4,4,0,0,0,32.4,32.3Zm0-6a2,2,0,1,1-2,2,2,2,0,0,1,2-2Z"/><path class="a" d="M43.7,32.3a4,4,0,0,0,3.9-4,4,4,0,0,0-7.9,0A4,4,0,0,0,43.7,32.3Zm0-6a2,2,0,0,1,0,4,2,2,0,0,1,0-4Z"/><path class="a" d="M24.7,35.3c.3,4.3,3.5,5.9,6.6,5.9H44.7c4.5,0,6.4-2.9,6.6-5.9a5.4,5.4,0,0,0,4.4-6.4A5.6,5.6,0,0,0,51,24.4C50.4,22,48.5,20,44.7,20H39V17.8a3.3,3.3,0,1,0-4.1-2.2A3.1,3.1,0,0,0,37,17.8v2.1H31.3c-2.7,0-5.5,1.2-6.3,4.5a5.4,5.4,0,0,0-4.7,6.2,5.5,5.5,0,0,0,4.4,4.7Zm29.1-5.4a3.5,3.5,0,0,1-2.5,3.4V26.5A3.5,3.5,0,0,1,53.8,29.9ZM36.7,14.7A1.3,1.3,0,1,1,38,16h0A1.3,1.3,0,0,1,36.7,14.7Zm-10,11.9c0-4,2.9-4.6,4.6-4.6H44.7c4,0,4.6,2.9,4.6,4.6v8c0,1.7-.6,4.6-4.6,4.6H31.3c-1.7,0-4.6-.6-4.6-4.6Zm-2,0v6.7A3.5,3.5,0,0,1,22.3,29,3.3,3.3,0,0,1,24.7,26.6Z"/><path class="a" d="M43.7,35H32.4a.9.9,0,0,0-1,.9.9.9,0,0,0,1,1H43.7a.9.9,0,0,0,.9-1A.9.9,0,0,0,43.7,35Z"/><path class="a" d="M60,43.1a3.9,3.9,0,0,0-3.9-3.8,3.8,3.8,0,0,0-3.7,3l-2.6.5H26.2l-2.6-.5a3.9,3.9,0,0,0-4.6-3,3.8,3.8,0,0,0-2.9,4.6,3.9,3.9,0,0,0,2.8,2.9v7.4A3.8,3.8,0,0,0,16,57.9v1.7a1,1,0,0,0,2,0V57.8A1.8,1.8,0,0,1,19.8,56a1.8,1.8,0,0,1,1.9,1.8h0v1.8a.9.9,0,0,0,1,1,1,1,0,0,0,1-1V57.8a3.7,3.7,0,0,0-2.9-3.6V46.8a3.9,3.9,0,0,0,2.7-2.6l1.6.4V56.8A13.5,13.5,0,0,0,26.2,62h0a12.9,12.9,0,0,0,23.5,0h0a12.7,12.7,0,0,0,1.2-5.1V44.6l1.6-.4a3.9,3.9,0,0,0,2.7,2.6v7.4a3.7,3.7,0,0,0-2.9,3.6v1.8a1,1,0,1,0,2,0V57.8A1.8,1.8,0,0,1,56.1,56,1.8,1.8,0,0,1,58,57.8v1.8a.9.9,0,0,0,1,1,1,1,0,0,0,1-1V57.8a3.7,3.7,0,0,0-2.9-3.6V46.8A3.9,3.9,0,0,0,60,43.1ZM19.8,44.9A1.8,1.8,0,0,1,18,43.1a1.9,1.9,0,1,1,3.7,0,1.8,1.8,0,0,1-1.9,1.8ZM38,67.7a11.1,11.1,0,0,1-9.2-5.1H47.2A11.1,11.1,0,0,1,38,67.7ZM48.9,56.8a12.2,12.2,0,0,1-.7,3.8H27.8a12.2,12.2,0,0,1-.7-3.8v-12H48.9Zm7.2-11.9a1.8,1.8,0,0,1-1.8-1.8,1.8,1.8,0,0,1,1.8-1.9A1.8,1.8,0,0,1,58,43.1a1.8,1.8,0,0,1-1.8,1.8h-.1Z"/><path class="a" d="M34.9,59a1,1,0,0,0,1.4,0l5.3-5.9a1.1,1.1,0,0,0-.1-1.4l-.7-.2H37.9l3.6-3.8a1,1,0,0,0-.1-1.4.9.9,0,0,0-1.3.1l-5.3,5.4a1.2,1.2,0,0,0,0,1.4,1.1,1.1,0,0,0,.7.3h3.1l-3.8,4.1a1.1,1.1,0,0,0,.1,1.4Z"/></svg>