<svg xmlns="http://www.w3.org/2000/svg" viewBox="0 0 70 81"><defs><style>.a,.b{fill:#ff8080;}.b{fill-rule:evenodd;}</style></defs><title>200415_OSH Portal_UI_WIP_icons</title><path class="a" d="M7.5,48.2l1,.6a4.1,4.1,0,0,1,1.2.8,1.7,1.7,0,0,1-.1,1,5.9,5.9,0,0,0-.4.8c-.4.6-1,1.7-.1,2.4l.9.7a3.2,3.2,0,0,0-.3,1.4,2.1,2.1,0,0,0,.6,1l.6.4c.6.3.8.5.9.8a2.2,2.2,0,0,1-.1,1.1c0,.3-.1.5-.1.8a5.7,5.7,0,0,0,.3,2.6,3.5,3.5,0,0,0,3.4,2.6h.8a59.1,59.1,0,0,0,8.2-2.4c2.1,1.2,3.5,5.1,3.9,6.6a1,1,0,0,0,.9.7H53.4a1.2,1.2,0,0,0,.8-.4,1,1,0,0,0,.1-.9,8.1,8.1,0,0,0-1-1.8l-.6-1A23.3,23.3,0,0,1,51.6,63a38.6,38.6,0,0,1-1.2-5.7,20.5,20.5,0,0,1,.1-4.3c.2-1.5-1.7-1.9-1.9-.3a19.3,19.3,0,0,0-.1,4.8,41.3,41.3,0,0,0,1.3,6.1,18.8,18.8,0,0,0,1.2,3,5.4,5.4,0,0,0,.7,1.3H29.9a16.6,16.6,0,0,0-3.5-6.2l.9-.3,1.4-.5c4.1-1.3,6.2-3.2,6.1-5.6a1.1,1.1,0,0,0-.3-.7l-.6-.2a.9.9,0,0,0-1,1c0,1-.8,2.4-4.8,3.7l-1.4.5-2.7.9h0a60.9,60.9,0,0,1-8.3,2.5,1.8,1.8,0,0,1-2-1.2,3.7,3.7,0,0,1-.2-1.8,4.3,4.3,0,0,0,.1-.5,5,5,0,0,0,.1-2.1,3.2,3.2,0,0,0-1.8-2h-.2l.4-.6a1.9,1.9,0,0,0,.2-.7,1.6,1.6,0,0,0-.4-.7l-1.2-.9a.4.4,0,0,0,.1-.3,1.9,1.9,0,0,0,.5-.9,4.1,4.1,0,0,0,.3-2.2c-.2-1.1-1.4-1.7-2.2-2.1l-.8-.5L8,46.1a4.6,4.6,0,0,1,.9-1.4,37.5,37.5,0,0,0,4.4-7.2,2.8,2.8,0,0,0,.4-1.3,3.5,3.5,0,0,0-1.4-2.4c-.4-.3-.8-.7-.8-1a1.3,1.3,0,0,1,.1-.6,11.2,11.2,0,0,0,.5-1.3,11.7,11.7,0,0,0,1-2.6,19.2,19.2,0,0,1,.9-3.2,16.6,16.6,0,0,1,3.4-5.7c1.9-1.9,4.8-3.3,8.7-4.1a54.2,54.2,0,0,1,9-1.3h3.1a.8.8,0,0,0,.9-.4,1,1,0,0,0,.1-.9.9.9,0,0,0-.8-.6H35a74.6,74.6,0,0,0-9.3,1.4c-4.4.9-7.5,2.4-9.7,4.7a19.6,19.6,0,0,0-3.9,6.3,25.8,25.8,0,0,0-.9,3.5,14.3,14.3,0,0,1-.8,2.2l-.6,1.4a4.5,4.5,0,0,0-.3,1.6A4.2,4.2,0,0,0,11,35.3c.4.4.8.7.8,1s-.1.2-.2.4a48.9,48.9,0,0,1-4.2,6.9,4.1,4.1,0,0,0-1.3,2.8,2.8,2.8,0,0,0,1.4,1.8Zm0,0"/><path class="b" d="M44.1,22.3a.9.9,0,0,0,1-.5,8.9,8.9,0,0,1,8.6-6.2,9.1,9.1,0,0,1,9,9.1c0,3.8-1.7,6.1-3.1,8s-1.9,2.5-1.9,3.9v.2H54.4V35.1a.7.7,0,0,0-.7-.8.7.7,0,0,0-.8.8v1.7H49.6v-.2c0-1.4-.9-2.6-1.9-3.9A14.5,14.5,0,0,1,45,27.6a.8.8,0,0,0-1-.6.7.7,0,0,0-.5.9,14.6,14.6,0,0,0,3,5.7c.8,1.2,1.5,2.1,1.5,3s.1.7.1,1.1v6.6h0a5.9,5.9,0,0,0,2,3.3A5.7,5.7,0,0,0,53.7,49a5.6,5.6,0,0,0,3.5-1.3,5.9,5.9,0,0,0,2-3.3h0V37.7c0-.4.1-.8.1-1.1s.7-1.8,1.5-3a13.6,13.6,0,0,0,3.5-8.9,10.6,10.6,0,0,0-20.7-3.4.7.7,0,0,0,.5,1Zm9.6,25.1A4,4,0,0,1,50,45.1h7.4a4.2,4.2,0,0,1-3.7,2.3Zm4-3.9H49.6V41.7h8.1Zm0-3.3H49.6V38.4h8.1Zm0,0"/><path class="b" d="M53.7,12.6a.7.7,0,0,0,.7-.7V9.8a.7.7,0,0,0-.7-.8.7.7,0,0,0-.8.8v2.1a.7.7,0,0,0,.8.7Zm0,0"/><path class="b" d="M38.8,25.4h2.1a.7.7,0,0,0,.7-.7.7.7,0,0,0-.7-.8H38.8a.7.7,0,0,0-.8.8.7.7,0,0,0,.8.7Zm0,0"/><path class="b" d="M57.2,26.2a.8.8,0,0,0-.8-.8H50.9a.8.8,0,0,0-.8.8.7.7,0,0,0,.8.8h2v1.8a.8.8,0,0,0,.8.8.8.8,0,0,0,.7-.8V27h2a.7.7,0,0,0,.8-.8Zm0,0"/><path class="b" d="M44.1,16.2l.5.2.6-.2a.8.8,0,0,0,0-1.1l-1.5-1.5a.8.8,0,0,0-1.1,1.1Zm0,0"/><path class="b" d="M42.6,36.5l.5-.2,1.5-1.5a.8.8,0,0,0-1.1-1.1L42,35.2a.8.8,0,0,0,0,1.1l.6.2Zm0,0"/><path class="b" d="M62.7,16.4l.5-.2,1.5-1.5a.8.8,0,1,0-1.1-1.1l-1.5,1.5a.8.8,0,0,0,0,1.1l.6.2Zm0,0"/><path class="b" d="M62.7,33.7a.8.8,0,0,0,0,1.1l1.5,1.5.5.2.6-.2a.8.8,0,0,0,0-1.1l-1.5-1.5a.8.8,0,0,0-1.1,0Zm0,0"/><path class="b" d="M66.4,25.4h2.1a.7.7,0,0,0,.8-.7.7.7,0,0,0-.8-.8H66.4a.7.7,0,0,0-.7.8.7.7,0,0,0,.7.7Zm0,0"/><path class="b" d="M53.7,31.1a.8.8,0,0,0-.8.8.7.7,0,0,0,.8.8.7.7,0,0,0,.7-.8.8.8,0,0,0-.7-.8Zm0,0"/><path class="b" d="M44.6,24.7a.7.7,0,0,0-.8-.8.8.8,0,0,0-.8.8.8.8,0,0,0,.8.7.7.7,0,0,0,.8-.7Zm0,0"/></svg>