<svg xmlns="http://www.w3.org/2000/svg" viewBox="0 0 78 67"><defs><style>.a{fill:#ff8080;}</style></defs><title>200415_OSH Portal_UI_WIP_icons</title><path class="a" d="M62.9,45.4a1,1,0,0,0-1,1A10.5,10.5,0,0,1,51.4,56.9a1,1,0,0,0-1,1,1.1,1.1,0,0,0,1,1.1A12.5,12.5,0,0,0,64,46.4a1.1,1.1,0,0,0-1.1-1Zm0,0"/><path class="a" d="M51.4,55.2a8.7,8.7,0,0,0,8.8-8.8,1.1,1.1,0,0,0-2.2,0A6.5,6.5,0,0,1,51.4,53a1.1,1.1,0,0,0,0,2.2Zm0,0"/><path class="a" d="M51.4,51.3a4.9,4.9,0,0,0,4.9-4.9,1,1,0,0,0-1-1,1.1,1.1,0,0,0-1.1,1,2.7,2.7,0,0,1-2.8,2.8,1.1,1.1,0,0,0-1,1.1,1,1,0,0,0,1,1Zm0,0"/><path class="a" d="M50.8,47.3a1.1,1.1,0,0,0,.8.3.9.9,0,0,0,.7-.3,1.1,1.1,0,0,0,0-1.5l-.3-.3,5.5-5.6a1.1,1.1,0,0,0,.3-.8.9.9,0,0,0-.3-.7A9.7,9.7,0,0,0,47.3,36l-1.7-1.7,2.7-2.7a1.1,1.1,0,0,0,0-1.5l-6.8-6.9,2.7-2.7,3.3,3.4a1.1,1.1,0,0,0,.8.3.9.9,0,0,0,.7-.3L62.9,10a.9.9,0,0,0,.3-.7,1.1,1.1,0,0,0-.3-.8L54.7.3a1.2,1.2,0,0,0-1.6,0L39.3,14.2a.9.9,0,0,0-.3.7,1.1,1.1,0,0,0,.3.8L42.7,19,40,21.7l-5.2-5.1a5.8,5.8,0,0,0-7.5-.7l-2.5-2.4a1.1,1.1,0,0,0-1.5,0l-4.8,4.8a1.1,1.1,0,0,0-.3.8.9.9,0,0,0,.3.7l2.4,2.4a6,6,0,0,0-1.1,3.4,5.6,5.6,0,0,0,1.8,4.2L26.7,35,24,37.7l-3.3-3.4a1.1,1.1,0,0,0-1.5,0L5.3,48.1a1.2,1.2,0,0,0,0,1.6l8.2,8.2a1.1,1.1,0,0,0,.8.3.9.9,0,0,0,.7-.3L28.9,44a1.1,1.1,0,0,0,0-1.5l-3.4-3.3,2.7-2.7,6.9,6.8a1.1,1.1,0,0,0,.7.3,1.1,1.1,0,0,0,.8-.3l2.7-2.7L41,42.3a9.7,9.7,0,0,0,2.4,10.2,1.1,1.1,0,0,0,.7.3,1.1,1.1,0,0,0,.8-.3L50.5,47ZM52.9,17l-6.7-6.7,3.1-3.1L56,13.9Zm1-14.4,6.7,6.7-3.1,3.1L50.8,5.7Zm-9.2,9.2,6.7,6.7-3.1,3.1-6.7-6.7ZM15.3,41.2,22,47.9,18.9,51l-6.7-6.7Zm-1,14.4L7.6,48.9l3.1-3.1,6.7,6.7Zm9.2-9.2-6.7-6.7,3.1-3.1,6.7,6.7ZM34.2,19l9,9L33,38.2l-9-9Zm-3.6-2a4.6,4.6,0,0,1,2,.5L22.5,27.6a4.6,4.6,0,0,1-.5-2,3.9,3.9,0,0,1,1.1-2.7l4.8-4.8A3.6,3.6,0,0,1,30.6,17Zm-6.5-1.3,1.6,1.6L24,19l-1.7,1.7-1.6-1.6ZM35.8,41.1l-1.3-1.4L44.7,29.5l1.4,1.3Zm5-2,3.3-3.3,1.2,1.1a10.4,10.4,0,0,0-3.4,3.4Zm3.4,11.1a7.8,7.8,0,0,1,.7-10.3,7.5,7.5,0,0,1,5.6-2.3,7.6,7.6,0,0,1,4.7,1.6Zm0,0"/></svg>