<svg xmlns="http://www.w3.org/2000/svg" viewBox="0 0 84 61"><defs><style>.a{fill:#ff8080;}</style></defs><title>200415_OSH Portal_UI_WIP_icons</title><path class="a" d="M47.6,22.4A1.1,1.1,0,1,0,46,24a1.1,1.1,0,0,0,1.6-1.6Z"/><path class="a" d="M67,20.9a5.6,5.6,0,0,0,1.8-4.2,6.2,6.2,0,0,0-1.6-4.1l-.9-.8.9-.8a5.9,5.9,0,0,0,0-8.2,5.9,5.9,0,0,0-8.2,0l-.8.9-.8-.9a5.9,5.9,0,0,0-8.2,0V3L47.5,1.4a4.6,4.6,0,0,0-6.6,6.5l6.6,6.5L25.4,36.5l-6.5-6.6a4.6,4.6,0,0,0-6.5,0,4.5,4.5,0,0,0,0,6.6L14,38.1h-.2a5.9,5.9,0,0,0,0,8.2l.9.8-.9.8A5.8,5.8,0,1,0,22,56.2l.8-.9.8.9a5.9,5.9,0,0,0,8.2,0V56l1.6,1.6a4.6,4.6,0,0,0,6.6-6.5l-6.6-6.5L55.6,22.5l6.5,6.6a4.6,4.6,0,0,0,6.5,0,4.5,4.5,0,0,0,0-6.6ZM60.6,4.5a3.4,3.4,0,0,1,4.9,0,3.4,3.4,0,0,1,0,4.9l-.8.8L59.8,5.3Zm-9.7,0a3.4,3.4,0,0,1,4.9,0l9.7,9.7a3.4,3.4,0,0,1,0,4.9v.2L50.7,4.6Zm-30.5,50a3.5,3.5,0,0,1-4.9-4.9l.8-.8,4.9,4.9Zm9.7,0a3.4,3.4,0,0,1-4.9,0l-9.7-9.7a3.4,3.4,0,0,1,0-4.9v-.2L30.3,54.4ZM38.4,56a2.2,2.2,0,0,1-3.2,0L14,34.8a2.3,2.3,0,0,1,3.2-3.2L38.4,52.8A2.2,2.2,0,0,1,38.4,56ZM31.9,43,27,38.1,49.1,16,54,20.9ZM67,27.4a2.2,2.2,0,0,1-3.2,0L42.6,6.2A2.3,2.3,0,0,1,45.8,3C46.9,4,66.1,23.2,67,24.2A2.2,2.2,0,0,1,67,27.4Z"/><path class="a" d="M42.7,25.7,33.4,35A1.1,1.1,0,0,0,35,36.6l9.3-9.3a1.1,1.1,0,0,0-1.6-1.6Z"/></svg>