<svg xmlns="http://www.w3.org/2000/svg" viewBox="0 0 90 79"><defs><style>.a{fill:#ff8080;}</style></defs><title>200415_OSH Portal_UI_WIP_icons</title><path class="a" d="M20.1,18.7m54,25.1a1.9,1.9,0,0,1,2.1.6h.1a2.3,2.3,0,0,1,.4,1.6,2.2,2.2,0,0,1-1,1.3L54.2,60.5a6.6,6.6,0,0,1-3.6,1.1h-28v-23h2.1a9.8,9.8,0,0,1,5.9,2,12.4,12.4,0,0,0,7.2,2.6h6a4.7,4.7,0,0,1,4,2.2h0a3,3,0,0,1-.1,3.5h-7a12.3,12.3,0,0,0-6.4,1.9l-.8.6a1.1,1.1,0,0,0-.3,1.6,1.1,1.1,0,0,0,1.6.3l.8-.6a9.2,9.2,0,0,1,5.1-1.5H50.9a5.8,5.8,0,0,0,1.9-.3Zm-40-3.7a22.6,22.6,0,0,1-2.6-2,5.2,5.2,0,0,0-1.3-.6l-6.4-1.2H22.4A3.2,3.2,0,0,0,19.2,34H13.4A3.4,3.4,0,0,0,10,37.4V61.6A3.4,3.4,0,0,0,13.4,65h5.8a3.6,3.6,0,0,0,2.6-1.1H50.6a9.2,9.2,0,0,0,4.8-1.4L76.9,49.4a4.3,4.3,0,0,0,1.3-6.2h-.1a4.4,4.4,0,0,0-4.8-1.5l-8.1,2.7-2.3.8-8.1,2.7-2.3.8H52l-1.1.2h-.6a5.7,5.7,0,0,0-.5-4.6h0a6.9,6.9,0,0,0-6-3.3h-6l-1.4-.2m8.8-12.5M12.3,37.4a1.1,1.1,0,0,1,1.1-1.1h5.8a1.2,1.2,0,0,1,1.2,1.1V61.6a1.2,1.2,0,0,1-1.2,1.1H13.4a1.1,1.1,0,0,1-1.1-1.1Zm0,0"/><path class="a" d="M32.1,25.2a3.5,3.5,0,0,0,3.5-3.5,3.5,3.5,0,0,0-2.3-3.3A12.5,12.5,0,0,1,36.7,12,12.3,12.3,0,0,1,52,10.3a.9.9,0,0,0,1.4-.3.9.9,0,0,0-.3-1.4,14.7,14.7,0,0,0-9.2-2.2,14.2,14.2,0,0,0-8.6,4.1,14,14,0,0,0-4,7.8,3.4,3.4,0,0,0-2.7,3.4,3.5,3.5,0,0,0,3.5,3.5Zm0-5a1.5,1.5,0,0,1,1.4,1.5,1.4,1.4,0,0,1-1.4,1.4,1.5,1.5,0,0,1-1.5-1.4,1.5,1.5,0,0,1,1.5-1.5Zm0,0"/><path class="a" d="M38.5,30.8a1,1,0,0,0-1.2,1.7A14.3,14.3,0,0,0,45.4,35a14.2,14.2,0,0,0,10.1-4.2,14.3,14.3,0,0,0,4-7.8,3.5,3.5,0,0,0,2.7-3.4,3.5,3.5,0,0,0-3.5-3.5,3.5,3.5,0,0,0-1.3,6.8,12,12,0,0,1-3.3,6.4,12.3,12.3,0,0,1-15.6,1.5ZM58.7,18.2a1.4,1.4,0,0,1,1.4,1.4,1.5,1.5,0,0,1-1.4,1.5,1.5,1.5,0,0,1-1.5-1.5,1.5,1.5,0,0,1,1.5-1.4Zm0,0"/><path class="a" d="M44.9,28.8h1l6.3-3.6a1.1,1.1,0,0,0,.5-.9V17a1.2,1.2,0,0,0-.5-.9l-6.3-3.6a.9.9,0,0,0-1,0l-6.3,3.6a1.2,1.2,0,0,0-.5.9v7.3a1.1,1.1,0,0,0,.5.9Zm-4.8-10,4.3,2.5v4.8l-4.3-2.4Zm6.3,7.3V21.3l4.2-2.5v4.9Zm-1-11.5L49.6,17l-4.2,2.5L41.2,17Zm0,0"/><path class="a" d="M56,13.7a.9.9,0,0,0,.7-.3,1.1,1.1,0,0,0,.3-.8,1.1,1.1,0,0,0-.3-.7.9.9,0,0,0-.7-.3.8.8,0,0,0-.7.3,1.1,1.1,0,0,0-.3.7,1.1,1.1,0,0,0,.3.8.8.8,0,0,0,.7.3Zm0,0"/><path class="a" d="M34.6,27.4a1,1,0,0,0-1,1,.8.8,0,0,0,.3.7.8.8,0,0,0,1.4,0,.8.8,0,0,0,.3-.7,1,1,0,0,0-1-1Zm0,0"/></svg>