<svg xmlns="http://www.w3.org/2000/svg" viewBox="0 0 73 91"><defs><style>.a{fill:#ff8080;}</style></defs><title>200415_OSH Portal_UI_WIP_icons</title><path class="a" d="M30.9,32.5a1.1,1.1,0,0,0,1.5,0,1,1,0,0,0,0-1.4,6,6,0,0,1,0-8.6A1.1,1.1,0,0,0,30.9,21a8.3,8.3,0,0,0,0,11.5Zm0,0"/><path class="a" d="M28.6,35.5a1,1,0,0,0,.9-.6.9.9,0,0,0-.2-1.1,10.3,10.3,0,0,1,0-14.1,1,1,0,0,0,0-1.4,1.1,1.1,0,0,0-.8-.3,1.1,1.1,0,0,0-.7.3,12.5,12.5,0,0,0,0,16.9,1.1,1.1,0,0,0,.8.3Zm0,0"/><path class="a" d="M39.1,32.5a1.1,1.1,0,0,0,1.5,0,8.3,8.3,0,0,0,0-11.5,1.1,1.1,0,0,0-1.5,1.5,6.2,6.2,0,0,1,0,8.6,1,1,0,0,0,0,1.4Zm0,0"/><path class="a" d="M44.9,26.8a10.6,10.6,0,0,1-2.7,7,1,1,0,0,0,1.4,1.4,12.3,12.3,0,0,0,0-16.9.8.8,0,0,0-.7-.3,1.1,1.1,0,0,0-.7.3,1,1,0,0,0,0,1.4,10.6,10.6,0,0,1,2.7,7.1Zm0,0"/><path class="a" d="M62.2,75H47.9L42.8,42a1,1,0,0,0-1.1-.8H39.8V37.1a.9.9,0,0,0-1-1h-2V29.7a3,3,0,0,0,2-2.9,3.1,3.1,0,0,0-2-2.9V21.7a1.1,1.1,0,0,0-1.1-1,1.1,1.1,0,0,0-1,1v2.2a3.1,3.1,0,0,0-2,2.9,3,3,0,0,0,2,2.9v6.4h-2a1,1,0,0,0-1.1,1v4.1h-2a1,1,0,0,0-1,.8L23.5,75H5a1,1,0,0,0-1,1,1.1,1.1,0,0,0,1,1H62.2a1,1,0,0,0,1-1,.9.9,0,0,0-1-1ZM35.7,25.8a1.2,1.2,0,0,1,1,.7,1.5,1.5,0,0,1-.2,1.1,1.3,1.3,0,0,1-1.2.2,1.2,1.2,0,0,1-.6-1,1.1,1.1,0,0,1,1-1Zm-2,12.3h4.1v3.1H33.7Zm-3.2,5.1H40.9l.4,3.1H30Zm-.8,5.1h12l.4,3.1H29.2Zm-.8,5.2H42.5l.4,3H28.4Zm-.8,5.1H43.3l.4,3H27.6Zm-.8,5.1H44l.4,2H27Zm-.6,4.1h18l.5,3.1h-19ZM25.5,75l.4-2.1H45.5l.3,2.1Zm0,0"/><path class="a" d="M66.4,75h-1a1,1,0,0,0-1,1,1.1,1.1,0,0,0,1,1h1a1.1,1.1,0,0,0,1.1-1,1,1,0,0,0-1.1-1Zm0,0"/></svg>