<svg xmlns="http://www.w3.org/2000/svg" viewBox="0 0 77 91"><defs><style>.a{fill:#ff8080;}</style></defs><title>200415_OSH Portal_UI_WIP_icons</title><path class="a" d="M63.5,18H32.2a4.7,4.7,0,0,0-4.5,4.9V63.2h0a.4.4,0,0,0,.1.3h0L30.1,69a1.8,1.8,0,0,0,1.7,1.1h.8v4a2.9,2.9,0,0,0,.2.9h-12V57.3a2.9,2.9,0,0,0-3-2.9V37.6a7.9,7.9,0,0,0-.9-15.7,7.9,7.9,0,0,0-1,15.7V54.4a3,3,0,0,0-3,2.9V75H10a1,1,0,0,0-1,1,.9.9,0,0,0,1,1H67a.9.9,0,0,0,1-1,1,1,0,0,0-1-1H62.9a2.9,2.9,0,0,0,.2-.9v-4h.8A1.8,1.8,0,0,0,65.6,69l2.3-5.4h0a.4.4,0,0,0,.1-.3h0V22.9A4.7,4.7,0,0,0,63.5,18ZM11,29.8a5.8,5.8,0,0,1,5.9-5.9,5.9,5.9,0,1,1,0,11.8A5.8,5.8,0,0,1,11,29.8Zm18.6-6.9A2.8,2.8,0,0,1,32.2,20H63.5A2.7,2.7,0,0,1,66,22.9V62.3H54.2v-2a3,3,0,0,0-2.9-3H44.4a3.1,3.1,0,0,0-3,3v2H29.6ZM52.3,62.3H43.4v-2a1,1,0,0,1,1-1h6.9a1,1,0,0,1,1,1ZM14.9,75V57.3a.9.9,0,0,1,1-.9h1.9a.9.9,0,0,1,1,.9V75Zm20.6,0a.9.9,0,0,1-.9-.9v-4h3.9v4a.9.9,0,0,1-1,.9Zm19.7-4.9v4a2.9,2.9,0,0,0,.2.9H40.3a2.9,2.9,0,0,0,.2-.9v-4Zm5.9,4a.9.9,0,0,1-1,.9H58.2a.9.9,0,0,1-1-.9v-4h3.9Zm2.7-5.9H31.9l-1.7-4H65.5Z"/><path class="a" d="M34.6,28.8H61.1a3,3,0,0,0,3-2.9v-1a3.1,3.1,0,0,0-3-3H34.6a3,3,0,0,0-3,3v1A2.9,2.9,0,0,0,34.6,28.8Zm-1-3.9a.9.9,0,0,1,1-1H61.1a.9.9,0,0,1,1,1v1a1,1,0,0,1-1,1H34.6a1,1,0,0,1-1-1Z"/><path class="a" d="M35.5,60.3a4,4,0,1,0-3.9-3.9A4,4,0,0,0,35.5,60.3Zm0-5.9a2,2,0,1,1,0,3.9,2,2,0,0,1-1.9-1.9A2,2,0,0,1,35.5,54.4Z"/><path class="a" d="M60.1,52.4a4,4,0,1,0,4,4A4,4,0,0,0,60.1,52.4Zm0,5.9a1.9,1.9,0,0,1-1.9-1.9,1.9,1.9,0,0,1,1.9-2,2,2,0,1,1,0,3.9Z"/><path class="a" d="M34.6,50.5H61.1a3.1,3.1,0,0,0,3-3V33.7a3,3,0,0,0-3-2.9H34.6a2.9,2.9,0,0,0-3,2.9V47.5A3.1,3.1,0,0,0,34.6,50.5Zm-1-16.8a.9.9,0,0,1,1-.9H61.1a.9.9,0,0,1,1,.9V47.5a1,1,0,0,1-1,1H34.6a1,1,0,0,1-1-1Z"/></svg>