<svg xmlns="http://www.w3.org/2000/svg" viewBox="0 0 80 85"><defs><style>.a{fill:#ff8080;}</style></defs><title>200415_OSH Portal_UI_WIP_icons</title><path class="a" d="M65.9,25.8a1,1,0,0,0-.6-.5L45,18.1a1,1,0,0,0-1.3.6L39.1,31.8H37V28.5a3,3,0,0,0-1.1-2.4,3.4,3.4,0,0,0-2.6-.5L9.7,31.8h0a1.1,1.1,0,0,0-.7,1V74.1A2.9,2.9,0,0,0,11.9,77H39.5a2.9,2.9,0,0,0,2.9-2.9v-9l7.9,2.8a.9.9,0,0,0,1.2-.6L65.9,26.5a.9.9,0,0,0,0-.7ZM33.8,27.5a1,1,0,0,1,.9.2,1,1,0,0,1,.4.7v3.4H17.6Zm6.6,46.6a.9.9,0,0,1-.9.9H11.9a.9.9,0,0,1-.9-.9V33.8H39.5a.9.9,0,0,1,.9.9Zm8.1-36.6,1.3-.6.6,1.3L45.6,51.7a.9.9,0,0,0,0,.7l1.1,2.2-.3.9-2-2.1a1.1,1.1,0,0,0-.8-.3l-1.2.2V52l.9-.4a1,1,0,0,0,.5-.6l1.9-5.5Zm1.9,6.6,2,3.2-.4.9-2.4-2.1Zm-8,4.8V46.2h1Zm1.7-4.7H42.4V42.9l2.4-.8ZM50,65.7,42.4,63V55.3h.9L46.1,58a.8.8,0,0,0,.7.3H47a.9.9,0,0,0,.7-.6l1-2.8a.9.9,0,0,0-.1-.7l-1-2.2,1.3-3.8,2.9,2.6.7.2h.2a1.1,1.1,0,0,0,.7-.6l1-2.8a1,1,0,0,0-.1-.9l-3.1-4.9,1.2-3.3a.9.9,0,0,0-.1-.7l-1.2-2.5a1,1,0,0,0-1.3-.5l-2.5,1.2a1,1,0,0,0-.5.6l-1.1,3.2-3.3,1.2V34.7A3,3,0,0,0,41,32.2l1.6-4.5.4-1,2.2-6.4,18.6,6.5Zm0,0"/><path class="a" d="M49.7,30.4l.6-1.8,9.8,3.2-.6,1.8ZM57.8,33"/><path class="a" d="M25.3,37.7a9.8,9.8,0,1,0,9.8,9.8,9.8,9.8,0,0,0-9.8-9.8Zm7.1,6.5L31,43.9l-1.8-.4-.3-1.7-.3-1.4a7.8,7.8,0,0,1,3.8,3.8Zm-15,3.3a4.9,4.9,0,0,1,.1-1.2l2.4-.5,1.1-.2a25.4,25.4,0,0,0,0,3.9l-1.1-.2-2.4-.6a4.9,4.9,0,0,1-.1-1.2ZM23,45.3h4.5a32.3,32.3,0,0,1,0,4.4,17,17,0,0,1-4.5,0,32.3,32.3,0,0,1,0-4.4Zm6.5.3,1.1.2,2.4.5a4.9,4.9,0,0,1,0,2.4l-2.4.6-1.1.2a25.4,25.4,0,0,0,0-3.9Zm-3-5.8.5,2.4c.1.4.1.7.2,1.1H23.3c.1-.4.1-.7.2-1.1l.6-2.4a4.9,4.9,0,0,1,2.4,0Zm-4.6.6-.3,1.4-.3,1.7-1.8.4-1.3.3a7.6,7.6,0,0,1,3.7-3.8ZM18.2,50.9l1.3.3,1.8.3.3,1.8.3,1.3a7.8,7.8,0,0,1-3.7-3.7Zm5.9,4.4-.6-2.5c-.1-.3-.1-.7-.2-1.1h3.9c-.1.4-.1.8-.2,1.1l-.5,2.5a9.6,9.6,0,0,1-2.4,0Zm4.5-.7.3-1.3.3-1.8,1.8-.3,1.3-.3a7.4,7.4,0,0,1-3.7,3.7Zm0,0"/><rect class="a" x="17.4" y="65.2" width="15.7" height="1.97"/><rect class="a" x="19.4" y="69.1" width="11.8" height="1.97"/></svg>