<svg xmlns="http://www.w3.org/2000/svg" viewBox="0 0 94 91"><defs><style>.a{fill:#ff8080;}</style></defs><title>200415_OSH Portal_UI_WIP_icons</title><path class="a" d="M81.8,18H16.3a3.2,3.2,0,0,0-3.2,3.2V64.9A3.1,3.1,0,0,0,16.3,68h25v5.5h-3a2.8,2.8,0,0,0-2.7,2.8A2.7,2.7,0,0,0,38.3,79H59.8a2.7,2.7,0,0,0,2.7-2.7,2.8,2.8,0,0,0-2.7-2.8h-3V68h25A3.1,3.1,0,0,0,85,64.9V21.2A3.2,3.2,0,0,0,81.8,18ZM60.4,76.3a.6.6,0,0,1-.6.6H38.3a.6.6,0,0,1-.6-.6.6.6,0,0,1,.6-.6H59.8a.6.6,0,0,1,.6.6ZM82.9,64.9a1,1,0,0,1-1.1,1h-33a1.1,1.1,0,0,0-1,1.1,1,1,0,0,0,1,1h5.9v5.5H43.4V68h.5A1,1,0,0,0,45,67a1.1,1.1,0,0,0-1.1-1.1H16.3a1,1,0,0,1-1.1-1V21.2a1.1,1.1,0,0,1,1.1-1.1H81.8a1.1,1.1,0,0,1,1.1,1.1Zm0,0"/><path class="a" d="M78.9,22.7H19.2a1.8,1.8,0,0,0-1.8,1.8V59.7a1.8,1.8,0,0,0,1.8,1.8H78.9a1.8,1.8,0,0,0,1.8-1.8V24.5a1.8,1.8,0,0,0-1.8-1.8ZM27.1,24.8V36.6H23.4a1,1,0,0,0-1,1,1.1,1.1,0,0,0,1,1.1h3.7v5.9a.3.3,0,0,1-.3.3H19.5V24.8ZM19.5,59.3V47h7.3a2.4,2.4,0,0,0,2.4-2.4V24.8H78.6V44.9H70.8a.4.4,0,0,1-.4-.4V28.6a1.1,1.1,0,0,0-1-1,1.1,1.1,0,0,0-1.1,1V44.5A2.5,2.5,0,0,0,70.8,47h7.8V59.3Zm0,0"/><path class="a" d="M76.7,54.2H68.2a3.7,3.7,0,0,0-3.5-2.6,3.5,3.5,0,0,0-3.4,2.6h-26a3.6,3.6,0,0,0-6.9,0H21.9a1.1,1.1,0,0,0-1.1,1,1.1,1.1,0,0,0,1.1,1.1h6.5a3.6,3.6,0,0,0,6.9,0h26a3.5,3.5,0,0,0,3.4,2.6,3.7,3.7,0,0,0,3.5-2.6h8.5a1.1,1.1,0,0,0,1.1-1.1,1.1,1.1,0,0,0-1.1-1ZM31.9,56.8a1.6,1.6,0,0,1-1.6-1.6,1.6,1.6,0,0,1,1.6-1.5,1.5,1.5,0,0,1,1.5,1.5,1.6,1.6,0,0,1-1.5,1.6Zm32.8,0a1.6,1.6,0,0,1-1.5-1.6,1.5,1.5,0,0,1,1.5-1.5,1.5,1.5,0,0,1,1.5,1.5,1.5,1.5,0,0,1-1.5,1.6Zm0,0"/><path class="a" d="M76.7,49H46a3.6,3.6,0,0,0-6.9,0H21.9a1.1,1.1,0,0,0-1.1,1.1,1,1,0,0,0,1.1,1H39.1a3.6,3.6,0,0,0,6.9,0H76.7a1,1,0,0,0,1.1-1A1.1,1.1,0,0,0,76.7,49ZM42.5,51.6A1.5,1.5,0,0,1,41,50.1h0a1.5,1.5,0,0,1,1.5-1.5,1.5,1.5,0,1,1,0,3Zm0,0"/><path class="a" d="M43.3,45.6a2.7,2.7,0,0,0,1.2.3,2.4,2.4,0,0,0,1.2-.3l12.9-7.5a2.4,2.4,0,0,0,0-4.2L45.7,26.5a2.1,2.1,0,0,0-2.4,0,2.2,2.2,0,0,0-1.2,2.1V43.4a2.5,2.5,0,0,0,1.2,2.2Zm.9-17a.4.4,0,0,1,.1-.3h.4l12.8,7.4c.2.1.2.2.2.3s0,.2-.2.3L44.7,43.7h-.4a.4.4,0,0,1-.1-.3Zm0,0"/></svg>