<svg xmlns="http://www.w3.org/2000/svg" viewBox="0 0 81 82"><defs><style>.a{fill:#ff8080;}</style></defs><title>200415_OSH Portal_UI_WIP_icons</title><path class="a" d="M32.5,58c9.7,0,15.1-5.7,15.1-16S33.9,17,33.3,16.3a1.1,1.1,0,0,0-.8-.3,1.1,1.1,0,0,0-.7.3c-.6.7-14.3,16-14.3,25.7s5.4,16,15,16Zm0-39.5C35.4,21.9,45.6,34.3,45.6,42S43.3,56,32.5,56s-13-7.6-13-14,10.2-20.1,13-23.5Zm0,0"/><path class="a" d="M60.6,60c5.7,0,9-3.8,9-10.5s-8-14.8-8.3-15.2a1.1,1.1,0,0,0-.7-.3,1.1,1.1,0,0,0-.8.3c-.3.4-8.2,9-8.2,15.2S54.8,60,60.6,60Zm0-23.5c1.9,2.2,7,8.6,7,13s-2.4,8.5-7,8.5-7-2.9-7-8.5,5-10.8,7-13Zm0,0"/><path class="a" d="M45.8,56.3c-.3.3-6.2,7.2-6.2,11.7s2.5,8,7,8,7-2.9,7-8-6-11.4-6.3-11.7a1.1,1.1,0,0,0-.7-.3,1.1,1.1,0,0,0-.8.3ZM46.6,74c-3.4,0-5-2-5-6s3.1-7.1,5-9.5c1.8,2.3,5,6.8,5,9.5s-1.7,6-5,6Zm0,0"/><path class="a" d="M30.4,54h.1a.9.9,0,0,0,1-1c.1-.5-.3-.9-.9-1a7.4,7.4,0,0,1-5.3-2.7c-2.7-3.5-1.8-9.1-1.8-9.1a1,1,0,0,0-.8-1.2,1,1,0,0,0-1.1.8c-.1.3-1.1,6.5,2.1,10.7A9.3,9.3,0,0,0,30.4,54Zm0,0"/><path class="a" d="M59.6,56a6.7,6.7,0,0,0,4.8-2.1,5.5,5.5,0,0,0,1.1-5.1,1,1,0,0,0-1.1-.8,1,1,0,0,0-.8,1.2,4.2,4.2,0,0,1-.7,3.4A4.7,4.7,0,0,1,59.6,54a.9.9,0,0,0-1,1,1,1,0,0,0,1,1Zm0,0"/><path class="a" d="M46,70.1a1.2,1.2,0,0,1-.7-.7,1.7,1.7,0,0,1,.1-1,.9.9,0,0,0-.4-1.3,1,1,0,0,0-1.3.5,2.9,2.9,0,0,0-.3,2.4,3.2,3.2,0,0,0,1.7,1.9,1.1,1.1,0,0,0,1.3-.4,1,1,0,0,0-.4-1.4Zm0,0"/></svg>