<svg xmlns="http://www.w3.org/2000/svg" viewBox="0 0 63 67"><defs><style>.a{fill:#ff8080;}.b{fill:#ababab;}.c{fill:#fff;}.d{fill:#03385c;}</style></defs><title>200415_OSH Portal_UI_WIP_icons</title><path class="a" d="M52.9,24.5H49.3a18.2,18.2,0,0,0-2.7-6.4l2.6-2.6a1.6,1.6,0,0,0,0-2.2L46,10.1a1.6,1.6,0,0,0-2.2,0l-2.6,2.6a19.5,19.5,0,0,0-6.3-2.6V6.4a1.6,1.6,0,0,0-1.6-1.5H28.8a1.6,1.6,0,0,0-1.6,1.5v3.7a19.5,19.5,0,0,0-6.3,2.6l-2.6-2.6a1.7,1.7,0,0,0-2.3,0l-3.1,3.2a1.6,1.6,0,0,0,0,2.2l2.6,2.6a18.2,18.2,0,0,0-2.7,6.4H9.2a1.6,1.6,0,0,0-1.6,1.6v4.4a1.6,1.6,0,0,0,1.6,1.6h3.6a18.2,18.2,0,0,0,2.7,6.4l-2.6,2.6a1.6,1.6,0,0,0,0,2.2L16,46.5a1.7,1.7,0,0,0,2.3,0l2.6-2.6a19,19,0,0,0,6.2,2.6,14.6,14.6,0,0,0,.5-2v-.2a.8.8,0,0,1,.1-.4V42.8a1.7,1.7,0,0,0,.1-.7V36.7H25.9a1,1,0,0,1-1-1V33.8a1,1,0,0,1,1-1h.6a6.4,6.4,0,1,1,9.1,0h.6a1.1,1.1,0,0,1,1,1v1.9a1.1,1.1,0,0,1-1,1H34.3V43c0,.1.1.2.1.4v.5c0,.2,0,.3.1.4v.2c.1.7.3,1.3.4,2a19.5,19.5,0,0,0,6.3-2.6l2.6,2.6a1.6,1.6,0,0,0,2.2,0l3.2-3.2a1.6,1.6,0,0,0,0-2.2l-2.6-2.6a18.2,18.2,0,0,0,2.7-6.4h3.6a1.6,1.6,0,0,0,1.6-1.6V26.1a1.6,1.6,0,0,0-1.6-1.6Zm0,0"/><path class="b" d="M25.9,32.8h.6a6.4,6.4,0,1,1,9.1,0h.6a1.1,1.1,0,0,1,1,1v.8H40a10.7,10.7,0,0,0,2-6.3,11,11,0,0,0-21.9,0,10.7,10.7,0,0,0,2,6.3h2.8v-.8a1,1,0,0,1,1-1Zm0,0"/><path class="c" d="M39.2,54.7H37.7a1.1,1.1,0,0,0,.8-1.9l-.6-.8a15.6,15.6,0,0,1-3.6-9.9V36.7h1.9a1.1,1.1,0,0,0,1-1V33.8a1.1,1.1,0,0,0-1-1h-.6A6.3,6.3,0,0,0,37.4,28a6.5,6.5,0,0,0-6.1-6.1,6.4,6.4,0,0,0-4.8,10.9h-.6a1,1,0,0,0-1,1v1.9a1,1,0,0,0,1,1h1.9v5.4A15.6,15.6,0,0,1,24.2,52l-.7.8a1.2,1.2,0,0,0,.9,1.9H22.8a1.2,1.2,0,0,0-1.2,1.2v3.7H40.4V55.9a1.2,1.2,0,0,0-1.2-1.2Zm0,0"/><path class="d" d="M22.5,35.2a.9.9,0,0,0,.2-1.1,10,10,0,0,1-1.8-5.8,10.2,10.2,0,1,1,20.3,0,10,10,0,0,1-1.8,5.8.7.7,0,0,0,.2,1.1H40a.6.6,0,0,0,.6-.3A11.7,11.7,0,0,0,31,16.6,11.7,11.7,0,0,0,19.3,28.3,12.3,12.3,0,0,0,21.4,35a.9.9,0,0,0,1.1.2ZM18.8,9.6,21,11.7a18.1,18.1,0,0,1,5.4-2.2V6.4a2.3,2.3,0,0,1,2.4-2.3h4.5a2.3,2.3,0,0,1,2.3,2.3V9.5a17.6,17.6,0,0,1,5.5,2.2l2.2-2.1a2.4,2.4,0,0,1,3.3,0l3.1,3.2a2,2,0,0,1,.7,1.6,2.2,2.2,0,0,1-.7,1.7l-2.1,2.1a22.1,22.1,0,0,1,2.3,5.5h3a2.4,2.4,0,0,1,2.4,2.4v4.4a2.4,2.4,0,0,1-2.4,2.4h-3a22.1,22.1,0,0,1-2.3,5.5l2.1,2.1a2.4,2.4,0,0,1,0,3.4L46.6,47a2.3,2.3,0,0,1-1.7.7,2,2,0,0,1-1.6-.7l-2.2-2.1a18.5,18.5,0,0,1-5.2,2.2,15,15,0,0,0,2.6,4.4l.6.8a1.8,1.8,0,0,1,.4,1.7,1.9,1.9,0,0,1,1.7,1.9v1.2a.7.7,0,0,1-.8.7.7.7,0,0,1-.7-.7V55.9a.5.5,0,0,0-.5-.4H22.8a.4.4,0,0,0-.4.4v1.2a.7.7,0,0,1-.8.7.7.7,0,0,1-.7-.7V55.9A1.9,1.9,0,0,1,22.5,54a2.5,2.5,0,0,1,.4-1.7l.7-.8a12.9,12.9,0,0,0,2.5-4.4A19.2,19.2,0,0,1,21,44.9L18.8,47a2,2,0,0,1-1.6.7,2.1,2.1,0,0,1-1.7-.7l-3.2-3.1a2.4,2.4,0,0,1,0-3.4l2.2-2.1a18.9,18.9,0,0,1-2.3-5.5h-3a2.4,2.4,0,0,1-2.4-2.4V26.1a2.4,2.4,0,0,1,2.4-2.4h3a18.9,18.9,0,0,1,2.3-5.5l-2.2-2.1a2.6,2.6,0,0,1-.7-1.7,2.4,2.4,0,0,1,.7-1.6l3.2-3.2a2.4,2.4,0,0,1,3.3,0ZM36.6,28.3a5.6,5.6,0,1,0-11.2,0A5.1,5.1,0,0,0,26.9,32h8.3a5.5,5.5,0,0,0,1.4-3.7ZM25.7,35.7l.2.2H36.2l.2-.2V33.8l-.2-.2H25.9l-.2.2ZM37.3,52.5a16.7,16.7,0,0,1-3.1-5.7h0a.8.8,0,0,1-.1-.4.4.4,0,0,1-.1-.3.9.9,0,0,1-.1-.5.8.8,0,0,1-.1-.4.4.4,0,0,0-.1-.3v-.6a.6.6,0,0,1-.1-.4v-.9a1.5,1.5,0,0,1-.1-.7V37.4h-5v6.3a.6.6,0,0,0-.1.4v.3c0,.1-.1.2-.1.3V45c0,.1-.1.3-.1.4s-.1.3-.1.5-.1.2-.1.3-.1.2-.1.4h0a18.6,18.6,0,0,1-3.1,5.7l-.7.8c-.1.2-.1.4,0,.4s.1.2.3.2H37.7c.2,0,.3-.1.3-.2a.4.4,0,0,0-.1-.4ZM16.6,10.7l-3.2,3.1a1.4,1.4,0,0,0-.2.6,1.4,1.4,0,0,0,.2.6L16,17.6a.6.6,0,0,1,.1.9,17.9,17.9,0,0,0-2.5,6.1.8.8,0,0,1-.8.7H9.2a.7.7,0,0,0-.8.8v4.4a.8.8,0,0,0,.8.9h3.6a.8.8,0,0,1,.8.6,17.9,17.9,0,0,0,2.5,6.1.6.6,0,0,1-.1.9l-2.6,2.6a1,1,0,0,0,0,1.2l3.2,3.1a.6.6,0,0,0,.6.3.5.5,0,0,0,.5-.3l2.6-2.6a.9.9,0,0,1,1-.1,17,17,0,0,0,5.3,2.4h0a.4.4,0,0,1,.1-.3.9.9,0,0,1,.1-.5v-.5a.3.3,0,0,0,.1-.2v-.6h0a.6.6,0,0,0,.1-.4V37.4H25.9a1.8,1.8,0,0,1-1.8-1.7V33.8a1.8,1.8,0,0,1,1-1.6,6.7,6.7,0,0,1-1.2-3.9,7.2,7.2,0,0,1,14.3,0A6.7,6.7,0,0,1,37,32.2a1.8,1.8,0,0,1,1,1.6v1.9a1.8,1.8,0,0,1-1.8,1.7H35.1v5.9h0a1.3,1.3,0,0,1,.1.6v.2c0,.1.1.2.1.3v.2c0,.2.1.3.1.5a.4.4,0,0,0,.1.3h0a17,17,0,0,0,5.3-2.4h.4l.6.2,2.5,2.6a.7.7,0,0,0,1.2,0l3.2-3.1a1,1,0,0,0,0-1.2L46.1,39a.6.6,0,0,1-.1-.9A17.9,17.9,0,0,0,48.5,32a.8.8,0,0,1,.8-.6h3.6a.8.8,0,0,0,.8-.9V26.1a.7.7,0,0,0-.8-.8H49.3a.8.8,0,0,1-.8-.7A17.9,17.9,0,0,0,46,18.5a.6.6,0,0,1,.1-.9L48.7,15a1.4,1.4,0,0,0,.2-.6,1.4,1.4,0,0,0-.2-.6l-3.2-3.1a.9.9,0,0,0-1.2,0l-2.5,2.6a.9.9,0,0,1-1,.1,17.3,17.3,0,0,0-6.1-2.6.7.7,0,0,1-.6-.7V6.4a.9.9,0,0,0-.8-.8H28.8a.9.9,0,0,0-.8.8v3.7c0,.3-.3.7-.6.7a16.6,16.6,0,0,0-6.1,2.6.9.9,0,0,1-1-.1l-2.6-2.6a.8.8,0,0,0-1.1,0ZM50.2,58.8H11.9a.8.8,0,0,0,0,1.6H50.2a.8.8,0,1,0,0-1.6Zm4.3,0"/></svg>