<svg xmlns="http://www.w3.org/2000/svg" viewBox="0 0 79 80"><defs><style>.a{fill:#ff8080;}.b{fill:#fff;}.c{fill:#03385c;}</style></defs><title>200415_OSH Portal_UI_WIP_icons</title><path class="a" d="M16.7,45.2a1.5,1.5,0,0,0,1.4.7,1.5,1.5,0,0,0,1.3-.7l4.8-6.8a1.7,1.7,0,0,0,.1-1.7,1.8,1.8,0,0,0-1.5-.8H21.6a20.8,20.8,0,0,1,38.2-5,2.9,2.9,0,0,0,4,1.1A2.8,2.8,0,0,0,65,28.1a26.8,26.8,0,0,0-49.4,7.8H13.3a1.6,1.6,0,0,0-1.4.8,1.5,1.5,0,0,0,.1,1.7Zm0,0"/><path class="b" d="M48.1,69.9c2.3-1.9,14.3-4.3,16.3-12.7.7-3,2.8-5.6,3.4-8.7h2.3a1.5,1.5,0,0,0,1.4-.8,1.5,1.5,0,0,0-.1-1.7l-4.7-6.8a1.5,1.5,0,0,0-1.4-.7,1.5,1.5,0,0,0-1.3.7L59.2,46a1.7,1.7,0,0,0-.1,1.7,1.8,1.8,0,0,0,1.5.8h1.2A20.6,20.6,0,0,1,41.7,64,20.9,20.9,0,0,1,23.5,53.4a3,3,0,0,0-4-1.2,2.8,2.8,0,0,0-1.1,3.9A28.1,28.1,0,0,0,25,64H10.2a2.9,2.9,0,0,0,0,5.8Zm31.1-4.4"/><path class="c" d="M11.4,38.8a2.3,2.3,0,0,1-.2-2.4,2.3,2.3,0,0,1,2.1-1.3H15a27.5,27.5,0,0,1,50.6-7.4,3.5,3.5,0,0,1,.3,2.8,3.4,3.4,0,0,1-1.7,2.2,3.5,3.5,0,0,1-2.8.3,4.1,4.1,0,0,1-2.2-1.7A20.2,20.2,0,0,0,41.7,21.2,19.9,19.9,0,0,0,22.6,35.1h.2A2.6,2.6,0,0,1,25,36.4a2.3,2.3,0,0,1-.2,2.4l-4.7,6.9a2.5,2.5,0,0,1-4,0Zm1.2-.8,4.7,6.8a.9.9,0,0,0,.8.4.7.7,0,0,0,.7-.4L23.6,38a.7.7,0,0,0,0-.9.8.8,0,0,0-.8-.5H21.6a.7.7,0,0,1-.6-.3.7.7,0,0,1-.1-.6,21.6,21.6,0,0,1,39.6-5.1,2.2,2.2,0,0,0,1.3,1,2,2,0,0,0,1.7-.2,1.9,1.9,0,0,0,1-1.3,1.8,1.8,0,0,0-.2-1.6,26,26,0,0,0-48,7.5.7.7,0,0,1-.7.6H13.3a1,1,0,0,0-.8.5,1,1,0,0,0,.1.9ZM36.4,70.5H10.2a3.6,3.6,0,0,1-3.6-3.6,3.7,3.7,0,0,1,3.6-3.7H23a26.6,26.6,0,0,1-5.3-6.7,3.5,3.5,0,0,1,1.5-4.9,3.7,3.7,0,0,1,5,1.4,20.2,20.2,0,0,0,36.7-3.7h-.3A2.3,2.3,0,0,1,58.5,48a2.1,2.1,0,0,1,.1-2.4l4.8-6.8a2.1,2.1,0,0,1,1.9-1.1,2.3,2.3,0,0,1,2,1.1L72,45.6h0a2.1,2.1,0,0,1,.2,2.4,2.3,2.3,0,0,1-2.1,1.3H68.4A26,26,0,0,1,65,57.6,27.6,27.6,0,0,1,55.2,67a29.2,29.2,0,0,1-14.4,3.5H36.4ZM10.2,69H40.8a27.8,27.8,0,0,0,13.7-3.3,26.2,26.2,0,0,0,9.3-8.8,25.9,25.9,0,0,0,3.3-8.5.9.9,0,0,1,.7-.6h2.3a1,1,0,0,0,.8-.5,1,1,0,0,0-.1-.9l-4.7-6.8a.9.9,0,0,0-.8-.4.7.7,0,0,0-.7.4l-4.8,6.8a.8.8,0,0,0,0,.9.8.8,0,0,0,.8.5h1.2a.6.6,0,0,1,.6.3.5.5,0,0,1,.1.6,21.5,21.5,0,0,1-39.6,5,2.3,2.3,0,0,0-3-.8,2,2,0,0,0-.9,2.9,26.3,26.3,0,0,0,6.5,7.6.8.8,0,0,1,.2.8.8.8,0,0,1-.7.5H10.2A2.2,2.2,0,0,0,8,66.9,2.1,2.1,0,0,0,10.2,69Z"/></svg>