<svg xmlns="http://www.w3.org/2000/svg" viewBox="0 0 68 77"><defs><style>.a{fill:#ff8080;}.b{fill:#ecf4f7;}.c{fill:#03385c;}</style></defs><title>200415_OSH Portal_UI_WIP_icons</title><path class="a" d="M38.6,20.2H8.1V66.8H47.2v-38Zm0,0"/><path class="b" d="M16.4,34.7a1.8,1.8,0,0,1-1.2-.5l-2.7-2.8a1.5,1.5,0,0,1,0-2.3,1.6,1.6,0,0,1,2.4,0l1.5,1.5,4.1-4a1.6,1.6,0,0,1,2.3,2.3l-5.2,5.3a1.7,1.7,0,0,1-1.2.5Zm0,0"/><path class="b" d="M16.4,47.8a1.8,1.8,0,0,1-1.2-.5l-2.7-2.7a1.6,1.6,0,0,1,0-2.4,1.8,1.8,0,0,1,2.4,0l1.5,1.6,4.1-4.1a1.7,1.7,0,0,1,2.3,0,1.6,1.6,0,0,1,0,2.4l-5.2,5.2a1.7,1.7,0,0,1-1.2.5Zm0,0"/><path class="b" d="M46.6,12.3H16.1v7.9H38.6v8.6h8.6V62.5h7.9V20.8Zm0,0"/><path class="c" d="M47.9,28.6h-.2l-8.6-8.5H8.8V14.6a.7.7,0,0,0-.7-.8.8.8,0,0,0-.8.8V66.9a.8.8,0,0,0,.8.7h39a.7.7,0,0,0,.8-.7V28.7h0ZM45.4,28h-6V22ZM8.9,66.1V21H37.9v7.9a.7.7,0,0,0,.7.7h7.8V66.1Zm45.5-2.9H50.3a.7.7,0,0,1-.7-.8.7.7,0,0,1,.7-.7h4.1V21.1L46.2,13H16.8v4.5a.8.8,0,0,1-.8.7.7.7,0,0,1-.7-.7V12.3a.8.8,0,0,1,.7-.8H46.5l.6.2,8.5,8.6c.2.1.2.3.2.5V62.2a.9.9,0,0,1-.9.9ZM19.9,26.1l-3.5,3.5-1-1a2.3,2.3,0,0,0-3.4,0A2.3,2.3,0,0,0,12,32l2.7,2.7a2.3,2.3,0,0,0,1.7.7,2.1,2.1,0,0,0,1.7-.7l5.2-5.2a2,2,0,0,0,.7-1.7,2.1,2.1,0,0,0-.7-1.7,2.3,2.3,0,0,0-3.4,0Zm2.4,2.3-5.2,5.3-.7.2-.6-.2L13,30.9a.9.9,0,0,1,0-1.3.9.9,0,0,1,.7-.3.9.9,0,0,1,.6.3l1.6,1.6a.9.9,0,0,0,1,0L21,27.1a.9.9,0,0,1,1.3,0,.9.9,0,0,1,.3.7.7.7,0,0,1-.3.6ZM19.9,39.2l-3.5,3.5-1-1a2.5,2.5,0,0,0-3.4,0,2.3,2.3,0,0,0,0,3.4l2.7,2.8a2.8,2.8,0,0,0,1.7.7,2.4,2.4,0,0,0,1.7-.7l5.3-5.3a2.4,2.4,0,0,0,.7-1.7,2.5,2.5,0,0,0-4.2-1.7Zm2.4,2.4-5.2,5.2a.9.9,0,0,1-.7.3.9.9,0,0,1-.6-.3L13,44.1a1.2,1.2,0,0,1,0-1.4l.7-.2.7.2,1.5,1.6.5.2.6-.2,4-4.1a1,1,0,0,1,1.3,0,1,1,0,0,1,0,1.4Zm13.9-6.9a.7.7,0,0,1-.8.7H26.3a.7.7,0,0,1-.7-.7.8.8,0,0,1,.7-.8h9.1a.9.9,0,0,1,.8.8Zm3.8,0a.7.7,0,0,1-.7.7h-.7a.7.7,0,0,1-.7-.7.7.7,0,0,1,.7-.8h.7a.8.8,0,0,1,.7.8ZM36.2,47.8a.7.7,0,0,1-.7.7H26.3a.8.8,0,0,1-.7-.8.7.7,0,0,1,.7-.7h9.2a.7.7,0,0,1,.7.7Zm3.8,0a.7.7,0,0,1-.7.7h-.7a.7.7,0,1,1,0-1.4h.7a.7.7,0,0,1,.7.7ZM36.2,60.9a.8.8,0,0,1-.7.8H26.4a.7.7,0,0,1-.8-.8.7.7,0,0,1,.8-.7h9.1a.7.7,0,0,1,.7.7Zm3.9,0a.9.9,0,0,1-.8.8h-.6a.9.9,0,0,1-.8-.8.8.8,0,0,1,.8-.7h.6a.8.8,0,0,1,.8.7Zm0,0"/></svg>