<svg xmlns="http://www.w3.org/2000/svg" xmlns:xlink="http://www.w3.org/1999/xlink" viewBox="0 0 78 79"><defs><style>.a{fill:none;}.b{fill:#fff;}.c{fill:#03385c;}.d{clip-path:url(#a);}.e{fill:#ff8080;}.f{clip-path:url(#b);}</style><clipPath id="a"><path class="a" d="M33.1,11.2V40.6H63s-6.3,33.1-5.8,33.6L9.6,64.7,3.7,36.8,7.5,25.6,19.8,10H31.3Z"/></clipPath><clipPath id="b"><rect class="a" x="-4" y="-0.1" width="76" height="79.07"/></clipPath></defs><title>200415_OSH Portal_UI_WIP_icons</title><path class="b" d="M42.9,20.1V47.4H71.2S69,20.1,42.9,20.1Z"/><path class="c" d="M72.3,47.8H42.1V19.4H43a35.3,35.3,0,0,1,13.8,3.5,27.4,27.4,0,0,1,9.9,8.2,29.9,29.9,0,0,1,5.5,15.8ZM43.8,46.1H70.4a29.3,29.3,0,0,0-5-14,25.8,25.8,0,0,0-9.3-7.6,32.8,32.8,0,0,0-12.3-3.3h0Z"/><path class="c" d="M43.4,25.3a20.5,20.5,0,0,1,10,3c1,.7,2-.9,1-1.6a21.3,21.3,0,0,0-11-3.2.9.9,0,0,0,0,1.8Z"/><polygon class="c" points="62.3 40.6 32.9 40.6 32.9 11.3 34.7 11.3 34.6 38.9 62.3 38.9 62.3 40.6"/><g class="d"><path class="e" d="M61.6,39.5A27.6,27.6,0,1,1,34,12,27.5,27.5,0,0,1,61.6,39.5Zm0,0"/><g class="f"><path class="c" d="M34,67.8A28.3,28.3,0,1,1,62.4,39.5,28.4,28.4,0,0,1,34,67.8Zm0-1.6A26.7,26.7,0,1,0,7.2,39.5,26.8,26.8,0,0,0,34,66.2Z"/></g></g></svg>